/* XPM */
static char *monster_1[] = {
/* columns rows colors chars-per-pixel */
"100 100 7 1 ",
"  c #386D00",
". c #DB4161",
"X c #51A200",
"o c #71F341",
"O c #FF61B2",
"+ c white",
"@ c None",
/* pixels */
"@@@@@@@@@@@@@@@@@@@@@@@@@@@@@@@@@@@@@@@@@@@@@@@@@@@@@@@@@@@@@@@@@@@@@@@@@@@@@@@@@@@@@@@@@@@@@@@@@@@@",
"@@@@@@@@@@@@@@@@@@@@@@@@@@@@@@@@@@@@@@@@@@@@@@@@@@@@@@@@@@@@@@@@@@@@@@@@@@@@@@@@@@@@@@@@@@@@@@@@@@@@",
"@@@@@@@@@@@@@@@@@@@@@@@@@@@@@@@@@@@@@@@@@@@@@@@@@@@@@@@@@@@@@@@@@@@@@@@@@@@@@@@@@@@@@@@@@@@@@@@@@@@@",
"@@@@@@@@@@@@@@@@@@@@@@@@@@@@@@@@@@@@@@@@@@@@@@@@@@@@@@@@@@@@@@@@@@@@@@@@@@@@@@@@@@@@@@@@@@@@@@@@@@@@",
"@@@@@@@@@@@@@@@@@@@@@@@@@@@@@@@@@@@@@@@@@@@@@@@@@@@@@@@@@@@@@@@@@@@@@@@@@@@@@@@@@@@@@@@@@@@@@@@@@@@@",
"@@@@@@@@@@@@@@@@@@@@@@@@@@@@@@@@@@@@@@@@@@@@@@@@@@@@@@@@@@@@@@@@@@@@@@@@@@@@@@@@@@@@@@@@@@@@@@@@@@@@",
"@@@@@@@@@@@@@@@@@@@@@@@@@@@@@@@@@@@@@@@@@@@@@@@@@@@@@@@@@@@@@@@@@@@@@@@@@@@@@@@@@@@@@@@@@@@@@@@@@@@@",
"@@@@@@@@@@@@@@@@@@@@@@@@@@@@@@@@@@@@@@@@@@@@@@@@@@@@@@@@@@@@@@@@@@@@@@@@@@@@@@@@@@@@@@@@@@@@@@@@@@@@",
"@@@@@@@@@@@@@@@@@@@@@@@@@@@@@@@@@@@@@@@@@@@@@@@@@@@@@@@@@@@@@@@@@@@@@@@@@@@@@@@@@@@@@@@@@@@@@@@@@@@@",
"@@@@@@@@@@@@@@@@@@@@@@@@@@@@@@@@@@@@@@@@@@@@@@@@@@@@@@@@@@@@@@@@@@@@@@@@@@@@@@@@@@@@@@@@@@@@@@@@@@@@",
"@@@@@@@@@@@@@@@@@@@@@@@@@@@@@@@@@@@@@@@@@@@@@@@@@@@@@@@@@@@@@@@@@@@@@@@@@@@@@@@@@@@@@@@@@@@@@@@@@@@@",
"@@@@@@@@@@@@@@@@@@@@@@@@@@@@@@@@@@@@@@@@@@@@@@@@@@@@@@@@@@@@@@@@@@@@@@@@@@@@@@@@@@@@@@@@@@@@@@@@@@@@",
"@@@@@@@@@@@@@@@@@@@@@@@@@@@@@@@@@@@@@@@@@@@@@@@@@@@@@@@@@@@@@@@@@@@@@@@@@@@@@@@@@@@@@@@@@@@@@@@@@@@@",
"@@@@@@@@@@@@@@@@@@@@@@@@@@@@@@@@@@@@@@@@@@@@@@@@@@@@@@@@@@@@@@@@@@@@@@@@@@@@@@@@@@@@@@@@@@@@@@@@@@@@",
"@@@@@@@@@@@@@@@@@@@@@@@@@@@@@@@@@@@@@@@@@@@@@@@@@@@@@@@@@@@@@@@@@@@@@@@@@@@@@@@@@@@@@@@@@@@@@@@@@@@@",
"@@@@@@@@@@@@@@@@@@@@@@@@@@@@@@@@@@@@@@@@@@@@@@@@@@@@@@@@@@@@@@@@@@@@@@@@@@@@@@@@@@@@@@@@@@@@@@@@@@@@",
"@@@@@@@@@@@@@@@@@@@@@@@@@@@@@@@@@@@@@@@@@@@@@@@@@@@@@@@@@@@@@@@@@@@@@@@@@@@@@@@@@@@@@@@@@@@@@@@@@@@@",
"@@@@@@@@@@@@@@@@@@@@@@@@@@@@@@@@@@@@@@@@@@@@@@@@@@@@@@@@@@@@@@@@@@@@@@@@@@@@@@@@@@@@@@@@@@@@@@@@@@@@",
"@@@@@@@@@@@@@@@@@@@@@@@@@@@@@@@@@@@@@@@@@@@@@@@@@@@@@@@@@@@@@@@@@@@@@@@@@@@@@@@@@@@@@@@@@@@@@@@@@@@@",
"@@@@@@@@@@@@@@@@@@@@@@@@@@@@@@@@@@@@@@@@@@@@@@@@@@@@@@@@@@@@@@@@@@@@@@@@@@@@@@@@@@@@@@@@@@@@@@@@@@@@",
"@@@@@@@@@@@@@@@@@@@@@@@@@@@@@@@@@@@@@@@@@@@@@@@@@@@@@@@@@@@@@@@@@@@@@@@@@@@@@@@@@@@@@@@@@@@@@@@@@@@@",
"@@@@@@@@@@@@@@@@@@@@@@@@@@@@@@@@@@@@@@@@@@@@@@@@@@@@@@@@@@@@@@@@@@@@@@@@@@@@@@@@@@@@@@@@@@@@@@@@@@@@",
"@@@@@@@@@@@@@@@@@@@@@@@@@@@@@@@@@@@@@@@@@@@@@@@@@@@@@@@@@@@@@@@@@@@@@@@@@@@@@@@@@@@@@@@@@@@@@@@@@@@@",
"@@@@@@@@@@@@@@@@@@@@@@@@@@@@@@@@@@@@@@@@@@@@@@@@@@@@@@@@@@@@@@@@@@@@@@@@@@@@@@@@@@@@@@@@@@@@@@@@@@@@",
"@@@@@@@@@@@@@@@@@@@@@@@@@@@@@@@@@@@@@@@@@@@@@@@@@@@@@@@@@@@@@@@@@@@@@@@@@@@@@@@@@@@@@@@@@@@@@@@@@@@@",
"@@@@@@@@@@@@@@@@@@@@@@@@@@@@@@@@@@@@@@@@@@@@@@@@@@@@@@@@@@@@@@@@@@@@@@@@@@@@@@@@@@@@@@@@@@@@@@@@@@@@",
"@@@@@@@@@@@@@@@@@@@@@@@@@@@@@@@@@@@@@@@@@@@@@@@@@@@@@@@@@@@@@@@@@@@@@@@@@@@@@@@@@@@@@@@@@@@@@@@@@@@@",
"@@@@@@@@@@@@@@@@@@@@@@@@@@@@@@@@@@@@@@@@@@@@@@@@@@@@@@@@@@@@@@@@@@@@@@@@@@@@@@@@@@@@@@@@@@@@@@@@@@@@",
"@@@@@@@@@@@@@@@@@@@@@@@@@@@@@@@@@@@@@@@@@@@@@@@@@@@@@@@@@@@@@@@@@@@@@@@@@@@@@@@@@@@@@@@@@@@@@@@@@@@@",
"@@@@@@@@@@@@@@@@@@@@@@@@@@@@@@@@@@@@@@@@@@@@@@@@@@@@@@@@@@@@@@@@@@@@@@@@@@@@@@@@@@@@@@@@@@@@@@@@@@@@",
"@@@@@@@@@@@@@@@@@@@@@@@@@@@@@@@@@@@@@@@@@@@@@@@@@@@@@@@@@@@@@@@@@@@@@@@@@@@@@@@@@@@@@@@@@@@@@@@@@@@@",
"@@@@@@@@@@@@@@@@@@@@@@@@@@@@@@@@@@@@@@@@@@@             @@@@@@@@@@@@@@@@@@@@@@@@@@@@@@@@@@@@@@@@@@@@",
"@@@@@@@@@@@@@@@@@@@@@@@@@@@@@@@@@@@@@@@@@@@             @@@@@@@@@@@@@@@@@@@@@@@@@@@@@@@@@@@@@@@@@@@@",
"@@@@@@@@@@@@@@@@@@@@@@@@@@@@@@@@@@@@@@@@@@@             @@@@@@@@@@@@@@@@@@@@@@@@@@@@@@@@@@@@@@@@@@@@",
"@@@@@@@@@@@@@@@@@@@@@@@@@@@@@@@@@@@@@      XXXoooooooooo       @@@@@@@@@@@@@@@@@@@@@@@@@@@@@@@@@@@@@",
"@@@@@@@@@@@@@@@@@@@@@@@@@@@@@@@@@@@@@      XXXoooooooooo       @@@@@@@@@@@@@@@@@@@@@@@@@@@@@@@@@@@@@",
"@@@@@@@@@@@@@@@@@@@@@@@@@@@@@@@@@@@@@      XXXoooooooooo       @@@@@@@@@@@@@@@@@@@@@@@@@@@@@@@@@@@@@",
"@@@@@@@@@@@@@@@@@@@@@@@@@@@@@@@@@@@@@      XXXoooooooooo       @@@@@@@@@@@@@@@@@@@@@@@@@@@@@@@@@@@@@",
"@@@@@@@@@@@@@@@@@@@@@@@@@@@@@@@@@    XXXXXXoooooooooooooooooooo   @@@@@@@@@@@@@@@@@@@@@@@@@@@@@@@@@@",
"@@@@@@@@@@@@@@@@@@@@@@@@@@@@@@@@@    XXXXXXoooooooooooooooooooo   @@@@@@@@@@@@@@@@@@@@@@@@@@@@@@@@@@",
"@@@@@@@@@@@@@@@@@@@@@@@@@@@@@@@@@    XXXXXXoooooooooooooooooooo   @@@@@@@@@@@@@@@@@@@@@@@@@@@@@@@@@@",
"@@@@@@@@@@@@@@@@@@@@@@@@@@@@@@   XXXXooooooXXXXXXXXXXooooooooooooo   @@@@@@@@@@@@@@@@@@@@@@@@@@@@@@@",
"@@@@@@@@@@@@@@@@@@@@@@@@@@@@@@   XXXXooooooXXXXXXXXXXooooooooooooo   @@@@@@@@@@@@@@@@@@@@@@@@@@@@@@@",
"@@@@@@@@@@@@@@@@@@@@@@@@@@@@@@   XXXXooooooXXXXXXXXXXooooooooooooo   @@@@@@@@@@@@@@@@@@@@@@@@@@@@@@@",
"@@@@@@@@@@@@@@@@@@@@@@@@@@@@@@   XXXXoooooooooXXXX...OOOoooooooooo   @@@@@@@@@@@@@@@@@@@@@@@@@@@@@@@",
"@@@@@@@@@@@@@@@@@@@@@@@@@@@@@@   XXXXoooooooooXXXX...OOOoooooooooo   @@@@@@@@@@@@@@@@@@@@@@@@@@@@@@@",
"@@@@@@@@@@@@@@@@@@@@@@@@@@@@@@   XXXXoooooooooXXXX...OOOoooooooooo   @@@@@@@@@@@@@@@@@@@@@@@@@@@@@@@",
"@@@@@@@@@@@@@@@@@@@@@@@@@@@   XXXXXXXoooooooooXXXX...OOOOOOoooooooooo    @@@@@@@@@@@@@@@@@@@@@@@@@@@",
"@@@@@@@@@@@@@@@@@@@@@@@@@@@   XXXXXXXoooooooooXXXX...OOOOOOoooooooooo    @@@@@@@@@@@@@@@@@@@@@@@@@@@",
"@@@@@@@@@@@@@@@@@@@@@@@@@@@   XXXXXXXoooooooooXXXX...OOOOOOoooooooooo    @@@@@@@@@@@@@@@@@@@@@@@@@@@",
"@@@@@@@@@@@@@@@@@@@@@@@@@@@   XXXXXXXoooooooooXXXX...OOOOOOoooooooooo    @@@@@@@@@@@@@@@@@@@@@@@@@@@",
"@@@@@@@@@@@@@@@@@@@@@@@@@@@   XXXoooooooooooooXXXX...OOOOOO++++oooooo    @@@@@@@@@@@@@@@@@@@@@@@@@@@",
"@@@@@@@@@@@@@@@@@@@@@@@@@@@   XXXoooooooooooooXXXX...OOOOOO++++oooooo    @@@@@@@@@@@@@@@@@@@@@@@@@@@",
"@@@@@@@@@@@@@@@@@@@@@@@@@@@   XXXoooooooooooooXXXX...OOOOOO++++oooooo    @@@@@@@@@@@@@@@@@@@@@@@@@@@",
"@@@@@@@@@@@@@@@@@@@@@@@@@@@   XXXooooooooooooooooo......OOOOOOOOOOooo    @@@@@@@@@@@@@@@@@@@@@@@@@@@",
"@@@@@@@@@@@@@@@@@@@@@@@@@@@   XXXooooooooooooooooo......OOOOOOOOOOooo    @@@@@@@@@@@@@@@@@@@@@@@@@@@",
"@@@@@@@@@@@@@@@@@@@@@@@@@@@   XXXooooooooooooooooo......OOOOOOOOOOooo    @@@@@@@@@@@@@@@@@@@@@@@@@@@",
"@@@@@@@@@@@@@@@@@@@@@@@    XXXXXXoooooooooooooooooooo.............ooooooo   @@@@@@@@@@@@@@@@@@@@@@@@",
"@@@@@@@@@@@@@@@@@@@@@@@    XXXXXXoooooooooooooooooooo.............ooooooo   @@@@@@@@@@@@@@@@@@@@@@@@",
"@@@@@@@@@@@@@@@@@@@@@@@    XXXXXXoooooooooooooooooooo.............ooooooo   @@@@@@@@@@@@@@@@@@@@@@@@",
"@@@@@@@@@@@@@@@@@@@@@@@    XXXXXXoooooooooooooooooooo.............ooooooo   @@@@@@@@@@@@@@@@@@@@@@@@",
"@@@@@@@@@@@@@@@@@@@@@@@    XXXooooooooooooooooooooooooooooooooooooooooooo   @@@@@@@@@@@@@@@@@@@@@@@@",
"@@@@@@@@@@@@@@@@@@@@@@@    XXXooooooooooooooooooooooooooooooooooooooooooo   @@@@@@@@@@@@@@@@@@@@@@@@",
"@@@@@@@@@@@@@@@@@@@@@@@    XXXooooooooooooooooooooooooooooooooooooooooooo   @@@@@@@@@@@@@@@@@@@@@@@@",
"@@@@@@@@@@@@@@@@@@@@   XXXXXXXoooooooooooooooooooooooooooooooooooooooXXXXXXX   @@@@@@@@@@@@@@@@@@@@@",
"@@@@@@@@@@@@@@@@@@@@   XXXXXXXoooooooooooooooooooooooooooooooooooooooXXXXXXX   @@@@@@@@@@@@@@@@@@@@@",
"@@@@@@@@@@@@@@@@@@@@   XXXXXXXoooooooooooooooooooooooooooooooooooooooXXXXXXX   @@@@@@@@@@@@@@@@@@@@@",
"@@@@@@@@@@@@@@@@@@@@   XXXXXXXoooooooooooooooooooooooooooooXXXXooooooXXXXXXX   @@@@@@@@@@@@@@@@@@@@@",
"@@@@@@@@@@@@@@@@@@@@   XXXXXXXoooooooooooooooooooooooooooooXXXXooooooXXXXXXX   @@@@@@@@@@@@@@@@@@@@@",
"@@@@@@@@@@@@@@@@@@@@   XXXXXXXoooooooooooooooooooooooooooooXXXXooooooXXXXXXX   @@@@@@@@@@@@@@@@@@@@@",
"@@@@@@@@@@@@@@@@@@@@   XXXXoooooooooooooooooooooooooooooXXXXXXXooooooXXXXXXX   @@@@@@@@@@@@@@@@@@@@@",
"@@@@@@@@@@@@@@@@@@@@   XXXXoooooooooooooooooooooooooooooXXXXXXXooooooXXXXXXX   @@@@@@@@@@@@@@@@@@@@@",
"@@@@@@@@@@@@@@@@@@@@   XXXXoooooooooooooooooooooooooooooXXXXXXXooooooXXXXXXX   @@@@@@@@@@@@@@@@@@@@@",
"@@@@@@@@@@@@@@@@@@@@   XXXXoooooooooooooooooooooooooooooXXXXXXXooooooXXXXXXX   @@@@@@@@@@@@@@@@@@@@@",
"@@@@@@@@@@@@@@@@@   XXXXXXXooooooooooooooooooooooooooXXXXXXXXXXoooXXXXXXXXXXXXX   @@@@@@@@@@@@@@@@@@",
"@@@@@@@@@@@@@@@@@   XXXXXXXooooooooooooooooooooooooooXXXXXXXXXXoooXXXXXXXXXXXXX   @@@@@@@@@@@@@@@@@@",
"@@@@@@@@@@@@@@@@@   XXXXXXXooooooooooooooooooooooooooXXXXXXXXXXoooXXXXXXXXXXXXX   @@@@@@@@@@@@@@@@@@",
"@@@@@@@@@@@@@@@@@   XXXXXXXooooooooooooooooooooooooooXXXXXXXXXXoooXXXXXXXXXXXXX   @@@@@@@@@@@@@@@@@@",
"@@@@@@@@@@@@@@@@@   XXXXXXXooooooooooooooooooooooooooXXXXXXXXXXoooXXXXXXXXXXXXX   @@@@@@@@@@@@@@@@@@",
"@@@@@@@@@@@@@@@@@   XXXXXXXooooooooooooooooooooooooooXXXXXXXXXXoooXXXXXXXXXXXXX   @@@@@@@@@@@@@@@@@@",
"@@@@@@@@@@@@@@@@@   XXXXXXXoooooooooooooooooooXXXXoooXXXXXXXXXXoooXXXXXXXXXXooo   @@@@@@@@@@@@@@@@@@",
"@@@@@@@@@@@@@@@@@   XXXXXXXoooooooooooooooooooXXXXoooXXXXXXXXXXoooXXXXXXXXXXooo   @@@@@@@@@@@@@@@@@@",
"@@@@@@@@@@@@@@@@@   XXXXXXXoooooooooooooooooooXXXXoooXXXXXXXXXXoooXXXXXXXXXXooo   @@@@@@@@@@@@@@@@@@",
"@@@@@@@@@@@@@@@@@   XXXXXXXoooooooooooooooooooXXXXoooXXXXXXXXXXoooXXXXXXXXXXooo   @@@@@@@@@@@@@@@@@@",
"@@@@@@@@@@@@@    XXXXXXooooooooooooooooooooXXXXXXXoooXXXXXXXXXXooooooooooooooooooo    @@@@@@@@@@@@@@",
"@@@@@@@@@@@@@    XXXXXXooooooooooooooooooooXXXXXXXoooXXXXXXXXXXooooooooooooooooooo    @@@@@@@@@@@@@@",
"@@@@@@@@@@@@@    XXXXXXooooooooooooooooooooXXXXXXXoooXXXXXXXXXXooooooooooooooooooo    @@@@@@@@@@@@@@",
"@@@@@@@@@@@@@    XXXXXXooooooooooooooooooooXXXXXXXoooXXXXXXooooooooooooooooooooooo    @@@@@@@@@@@@@@",
"@@@@@@@@@@@@@    XXXXXXooooooooooooooooooooXXXXXXXoooXXXXXXooooooooooooooooooooooo    @@@@@@@@@@@@@@",
"@@@@@@@@@@@@@    XXXXXXooooooooooooooooooooXXXXXXXoooXXXXXXooooooooooooooooooooooo    @@@@@@@@@@@@@@",
"@@@@@@@@@@@@@    XXXXXXXXXXooooooooooooooooooooooooooooooooooooooooooooooooooooooo    @@@@@@@@@@@@@@",
"@@@@@@@@@@@@@    XXXXXXXXXXooooooooooooooooooooooooooooooooooooooooooooooooooooooo    @@@@@@@@@@@@@@",
"@@@@@@@@@@@@@    XXXXXXXXXXooooooooooooooooooooooooooooooooooooooooooooooooooooooo    @@@@@@@@@@@@@@",
"@@@@@@@@@@@@@    XXXXXXXXXXXXXoooooooooooooooooooooooooooooooooooooooooooooooooooo    @@@@@@@@@@@@@@",
"@@@@@@@@@@@@@    XXXXXXXXXXXXXoooooooooooooooooooooooooooooooooooooooooooooooooooo    @@@@@@@@@@@@@@",
"@@@@@@@@@@@@@    XXXXXXXXXXXXXoooooooooooooooooooooooooooooooooooooooooooooooooooo    @@@@@@@@@@@@@@",
"@@@@@@@@@@@@@    XXXXXXXXXXXXXoooooooooooooooooooooooooooooooooooooooooooooooooooo    @@@@@@@@@@@@@@",
"@@@@@@@@@@@@@@@@@                                                                 @@@@@@@@@@@@@@@@@@",
"@@@@@@@@@@@@@@@@@                                                                 @@@@@@@@@@@@@@@@@@",
"@@@@@@@@@@@@@@@@@                                                                 @@@@@@@@@@@@@@@@@@"
};
