/* XPM */
static char *monster_3[] = {
/* columns rows colors chars-per-pixel */
"100 100 7 1 ",
"  c #386D00",
". c #DB4161",
"X c #51A200",
"o c #71F341",
"O c #FF61B2",
"+ c white",
"@ c None",
/* pixels */
"@@@@@@@@@@@@@@@@@@@@@@@@@@@@@@@@@@@@@@@@@@@@@@@@@@@@@@@@@@@@@@@@@@@@@@@@@@@@@@@@@@@@@@@@@@@@@@@@@@@@",
"@@@@@@@@@@@@@@@@@@@@@@@@@@@@@@@@@@@@@@@@@@@@@@@@@@@@@@@@@@@@@@@@@@@@@@@@@@@@@@@@@@@@@@@@@@@@@@@@@@@@",
"@@@@@@@@@@@@@@@@@@@@@@@@@@@@@@@@@@@@@@@@@@@@@@@@@@@@@@@@@@@@@@@@@@@@@@@@@@@@@@@@@@@@@@@@@@@@@@@@@@@@",
"@@@@@@@@@@@@@@@@@@@@@@@@@@@@@@@@@@@@@@@@@@@@@@@@@@@@@@@@@@@@@@@@@@@@@@@@@@@@@@@@@@@@@@@@@@@@@@@@@@@@",
"@@@@@@@@@@@@@@@@@@@@@@@@@@@@@@@@@@@@@@@@@@@@@@@@@@@@@@@@@@@@@@@@@@@@@@@@@@@@@@@@@@@@@@@@@@@@@@@@@@@@",
"@@@@@@@@@@@@@@@@@@@@@@@@@@@@@@@@@@@@@@@@@@@@@@@@@@@@@@@@@@@@@@@@@@@@@@@@@@@@@@@@@@@@@@@@@@@@@@@@@@@@",
"@@@@@@@@@@@@@@@@@@@@@@@@@@@@@@@@@@@@@@@@@@@@@@@@@@@@@@@@@@@@@@@@@@@@@@@@@@@@@@@@@@@@@@@@@@@@@@@@@@@@",
"@@@@@@@@@@@@@@@@@@@@@@@@@@@@@@@@@@@@@@@@@@@@@@@@@@@@@@@@@@@@@@@@@@@@@@@@@@@@@@@@@@@@@@@@@@@@@@@@@@@@",
"@@@@@@@@@@@@@@@@@@@@@@@@@@@@@@@@@@@@@@@@@@@@@@@@@@@@@@@@@@@@@@@@@@@@@@@@@@@@@@@@@@@@@@@@@@@@@@@@@@@@",
"@@@@@@@@@@@@@@@@@@@@@@@@@@@@@@@@@@@@@@@@@@@@@@@@@@@@@@@@@@@@@@@@@@@@@@@@@@@@@@@@@@@@@@@@@@@@@@@@@@@@",
"@@@@@@@@@@@@@@@@@@@@@@@@@@@@@@@@@@@@@@@@@@@@@@@@@@@@@@@@@@@@@@@@@@@@@@@@@@@@@@@@@@@@@@@@@@@@@@@@@@@@",
"@@@@@@@@@@@@@@@@@@@@@@@@@@@@@@@@@@@@@@@@@@@@@@@@@@@@@@@@@@@@@@@@@@@@@@@@@@@@@@@@@@@@@@@@@@@@@@@@@@@@",
"@@@@@@@@@@@@@@@@@@@@@@@@@@@@@@@@@@@@@@@@@@@@@@@@@@@@@@@@@@@@@@@@@@@@@@@@@@@@@@@@@@@@@@@@@@@@@@@@@@@@",
"@@@@@@@@@@@@@@@@@@@@@@@@@@@@@@@@@@@@@@@@@@@@@@@@@@@@@@@@@@@@@@@@@@@@@@@@@@@@@@@@@@@@@@@@@@@@@@@@@@@@",
"@@@@@@@@@@@@@@@@@@@@@@@@@@@@@@@@@@@@@@@@@@@@@@@@@@@@@@@@@@@@@@@@@@@@@@@@@@@@@@@@@@@@@@@@@@@@@@@@@@@@",
"@@@@@@@@@@@@@@@@@@@@@@@@@@@@@@@@@@@@@@@@@@@@@@@@@@@@@@@@@@@@@@@@@@@@@@@@@@@@@@@@@@@@@@@@@@@@@@@@@@@@",
"@@@@@@@@@@@@@@@@@@@@@@@@@@@@@@@@@@@@@@@@@@@@@@@@@@@@@@@@@@@@@@@@@@@@@@@@@@@@@@@@@@@@@@@@@@@@@@@@@@@@",
"@@@@@@@@@@@@@@@@@@@@@@@@@@@@@@@@@@@@@@@@@@@@@@@@@@@@@@@@@@@@@@@@@@@@@@@@@@@@@@@@@@@@@@@@@@@@@@@@@@@@",
"@@@@@@@@@@@@@@@@@@@@@@@@@@@@@@@@@@@@@@@@@@@@@@@@@@@@@@@@@@@@@@@@@@@@@@@@@@@@@@@@@@@@@@@@@@@@@@@@@@@@",
"@@@@@@@@@@@@@@@@@@@@@@@@@@@@@@@@@@@@@@@@@@@@@@@@@@@@@@@@@@@@@@@@@@@@@@@@@@@@@@@@@@@@@@@@@@@@@@@@@@@@",
"@@@@@@@@@@@@@@@@@@@@@@@@@@@@@@@@@@@@@@@@@@@@@@@@@@@@@@@@@@@@@@@@@@@@@@@@@@@@@@@@@@@@@@@@@@@@@@@@@@@@",
"@@@@@@@@@@@@@@@@@@@@@@@@@@@@@@@@@@@@@@@@@@@@@@@@@@@@@@@@@@@@@@@@@@@@@@@@@@@@@@@@@@@@@@@@@@@@@@@@@@@@",
"@@@@@@@@@@@@@@@@@@@@@@@@@@@@@@@@@@@@@@@@@@@@@@@@@@@@@@@@@@@@@@@@@@@@@@@@@@@@@@@@@@@@@@@@@@@@@@@@@@@@",
"@@@@@@@@@@@@@@@@@@@@@@@@@@@@@@@@@@@@@@@@@@@@@@@@@@@@@@@@@@@@@@@@@@@@@@@@@@@@@@@@@@@@@@@@@@@@@@@@@@@@",
"@@@@@@@@@@@@@@@@@@@@@@@@@@@@@@@@@@@@@@@@@@@@@@@@@@@@@@@@@@@@@@@@@@@@@@@@@@@@@@@@@@@@@@@@@@@@@@@@@@@@",
"@@@@@@@@@@@@@@@@@@@@@@@@@@@@@@@@@@@@@@@@@@@@@@@@@@@@@@@@@@@@@@@@@@@@@@@@@@@@@@@@@@@@@@@@@@@@@@@@@@@@",
"@@@@@@@@@@@@@@@@@@@@@@@@@@@@@@@@@@@@@@@@@@@@@@@@@@@@@@@@@@@@@@@@@@@@@@@@@@@@@@@@@@@@@@@@@@@@@@@@@@@@",
"@@@@@@@@@@@@@@@@@@@@@@@@@@@@@@@@@@@@@@@@@@@@@@@@@@@@@@@@@@@@@@@@@@@@@@@@@@@@@@@@@@@@@@@@@@@@@@@@@@@@",
"@@@@@@@@@@@@@@@@@@@@@@@@@@@@@@@@@@@@@@@@@@@@@@@@@@@@@@@@@@@@@@@@@@@@@@@@@@@@@@@@@@@@@@@@@@@@@@@@@@@@",
"@@@@@@@@@@@@@@@@@@@@@@@@@@@@@@@@@@@@@@@@@@@@@@@@@@@@@@@@@@@@@@@@@@@@@@@@@@@@@@@@@@@@@@@@@@@@@@@@@@@@",
"@@@@@@@@@@@@@@@@@@@@@@@@@@@@@@@@@@@@@@@@@@@@@@@@@@@@@@@@@@@@@@@@@@@@@@@@@@@@@@@@@@@@@@@@@@@@@@@@@@@@",
"@@@@@@@@@@@@@@@@@@@@@@@@@@@@@@@@@@@@@@@@@@@@@@@@@@@@@@@@@@@@@@@@@@@@@@@@@@@@@@@@@@@@@@@@@@@@@@@@@@@@",
"@@@@@@@@@@@@@@@@@@@@@@@@@@@@@@@@@@@@@@@@@@@@@@@@@@@@@@@@@@@@@@@@@@@@@@@@@@@@@@@@@@@@@@@@@@@@@@@@@@@@",
"@@@@@@@@@@@@@@@@@@@@@@@@@@@@@@@@@@@@@@@@@@@@@@@@@@@@@@@@@@@@@@@@@@@@@@@@@@@@@@@@@@@@@@@@@@@@@@@@@@@@",
"@@@@@@@@@@@@@@@@@@@@@@@@@@@@@@@@@@@@@@@@@@@@@@@@@@@@@@@@@@@@@@@@@@@@@@@@@@@@@@@@@@@@@@@@@@@@@@@@@@@@",
"@@@@@@@@@@@@@@@@@@@@@@@@@@@@@@@@@@@@@@@@@@@@@@@@@@@@@@@@@@@@@@@@@@@@@@@@@@@@@@@@@@@@@@@@@@@@@@@@@@@@",
"@@@@@@@@@@@@@@@@@@@@@@@@@@@@@@@@@@@@@@@@@@@@@@@@@@@@@@@@@@@@@@@@@@@@@@@@@@@@@@@@@@@@@@@@@@@@@@@@@@@@",
"@@@@@@@@@@@@@@@@@@@@@@@@@@@@@@@@@@@@@@@@@@@@@@@@@@@@@@@@@@@@@@@@@@@@@@@@@@@@@@@@@@@@@@@@@@@@@@@@@@@@",
"@@@@@@@@@@@@@@@@@@@@@@@@@@@@@@@@@@@@@@@@@@@@@@@@@@@@@@@@@@@@@@@@@@@@@@@@@@@@@@@@@@@@@@@@@@@@@@@@@@@@",
"@@@@@@@@@@@@@@@@@@@@@@@@@@@@@@@@@@@@@@@@@@@@@@@@@@@@@@@@@@@@@@@@@@@@@@@@@@@@@@@@@@@@@@@@@@@@@@@@@@@@",
"@@@@@@@@@@@@@@@@@@@@@@@@@@@@@@@@@@@@@@@@@@@@@@@@@@@@@@@@@@@@@@@@@@@@@@@@@@@@@@@@@@@@@@@@@@@@@@@@@@@@",
"@@@@@@@@@@@@@@@@@@@@@@@@@@@@@@@@@@@@@@@@@@@@@@@@@@@@@@@@@@@@@@@@@@@@@@@@@@@@@@@@@@@@@@@@@@@@@@@@@@@@",
"@@@@@@@@@@@@@@@@@@@@@@@@@@@@@@@@@@@@@@@@@@@@@@@@@@@@@@@@@@@@@@@@@@@@@@@@@@@@@@@@@@@@@@@@@@@@@@@@@@@@",
"@@@@@@@@@@@@@@@@@@@@@@@@@@@@@@@@@@@@@@@@@@@@@@@@@@@@@@@@@@@@@@@@@@@@@@@@@@@@@@@@@@@@@@@@@@@@@@@@@@@@",
"@@@@@@@@@@@@@@@@@@@@@@@@@@@@@@@@@@@@@@@@@@@@@@@@@@@@@@@@@@@@@@@@@@@@@@@@@@@@@@@@@@@@@@@@@@@@@@@@@@@@",
"@@@@@@@@@@@@@@@@@@@@@@@@@@@@@@@@@@@@@@@@@@@@@@@@@@@@@@@@@@@@@@@@@@@@@@@@@@@@@@@@@@@@@@@@@@@@@@@@@@@@",
"@@@@@@@@@@@@@@@@@@@@@@@@@@@@@@@@@@@@@@@@@@@@@@@@@@@@@@@@@@@@@@@@@@@@@@@@@@@@@@@@@@@@@@@@@@@@@@@@@@@@",
"@@@@@@@@@@@@@@@@@@@@@@@@@@@@@@@@@@@@@                   @@@@@@@@@@@@@@@@@@@@@@@@@@@@@@@@@@@@@@@@@@@@",
"@@@@@@@@@@@@@@@@@@@@@@@@@@@@@@@@@@@@@                   @@@@@@@@@@@@@@@@@@@@@@@@@@@@@@@@@@@@@@@@@@@@",
"@@@@@@@@@@@@@@@@@@@@@@@@@@@@@@@@@@@@@                   @@@@@@@@@@@@@@@@@@@@@@@@@@@@@@@@@@@@@@@@@@@@",
"@@@@@@@@@@@@@@@@@@@@@@@@@@@@@@@@@@@@@                   @@@@@@@@@@@@@@@@@@@@@@@@@@@@@@@@@@@@@@@@@@@@",
"@@@@@@@@@@@@@@@@@@@@@@@@@@@@@@       XXXXXXooooooooooooo          @@@@@@@@@@@@@@@@@@@@@@@@@@@@@@@@@@",
"@@@@@@@@@@@@@@@@@@@@@@@@@@@@@@       XXXXXXooooooooooooo          @@@@@@@@@@@@@@@@@@@@@@@@@@@@@@@@@@",
"@@@@@@@@@@@@@@@@@@@@@@@@@@@@@@       XXXXXXooooooooooooo          @@@@@@@@@@@@@@@@@@@@@@@@@@@@@@@@@@",
"@@@@@@@@@@@@@@@@@@@@@@@@@@@   XXXXXXXooooooooooooooooooooooooooooo       @@@@@@@@@@@@@@@@@@@@@@@@@@@",
"@@@@@@@@@@@@@@@@@@@@@@@@@@@   XXXXXXXooooooooooooooooooooooooooooo       @@@@@@@@@@@@@@@@@@@@@@@@@@@",
"@@@@@@@@@@@@@@@@@@@@@@@@@@@   XXXXXXXooooooooooooooooooooooooooooo       @@@@@@@@@@@@@@@@@@@@@@@@@@@",
"@@@@@@@@@@@@@@@@@@@@@@@@   XXXXXXoooooooooooooooooXXXXXXXXXXooooooooooooo   @@@@@@@@@@@@@@@@@@@@@@@@",
"@@@@@@@@@@@@@@@@@@@@@@@@   XXXXXXoooooooooooooooooXXXXXXXXXXooooooooooooo   @@@@@@@@@@@@@@@@@@@@@@@@",
"@@@@@@@@@@@@@@@@@@@@@@@@   XXXXXXoooooooooooooooooXXXXXXXXXXooooooooooooo   @@@@@@@@@@@@@@@@@@@@@@@@",
"@@@@@@@@@@@@@@@@@@@@@@@@   XXXXXXoooooooooooooooooXXXXXXXXXXooooooooooooo   @@@@@@@@@@@@@@@@@@@@@@@@",
"@@@@@@@@@@@@@@@@@@@@    XXXXXXoooooooooooooooooooooooXXX....OOOooooooooooooo   @@@@@@@@@@@@@@@@@@@@@",
"@@@@@@@@@@@@@@@@@@@@    XXXXXXoooooooooooooooooooooooXXX....OOOooooooooooooo   @@@@@@@@@@@@@@@@@@@@@",
"@@@@@@@@@@@@@@@@@@@@    XXXXXXoooooooooooooooooooooooXXX....OOOooooooooooooo   @@@@@@@@@@@@@@@@@@@@@",
"@@@@@@@@@@@@@@@@@   XXXXXXXooooooooooooooooooooooooooXXX....OOOOOOooooooooooooo    @@@@@@@@@@@@@@@@@",
"@@@@@@@@@@@@@@@@@   XXXXXXXooooooooooooooooooooooooooXXX....OOOOOOooooooooooooo    @@@@@@@@@@@@@@@@@",
"@@@@@@@@@@@@@@@@@   XXXXXXXooooooooooooooooooooooooooXXX....OOOOOOooooooooooooo    @@@@@@@@@@@@@@@@@",
"@@@@@@@@@@@@@@   XXXXXXXXXXooooooooooooooooooooooooooXXX....OOOOOO++++ooooooooooooo   @@@@@@@@@@@@@@",
"@@@@@@@@@@@@@@   XXXXXXXXXXooooooooooooooooooooooooooXXX....OOOOOO++++ooooooooooooo   @@@@@@@@@@@@@@",
"@@@@@@@@@@@@@@   XXXXXXXXXXooooooooooooooooooooooooooXXX....OOOOOO++++ooooooooooooo   @@@@@@@@@@@@@@",
"@@@@@@@@@@@@@@   XXXXXXXoooooooooooooooooooooooooooooooo.......OOOOOOOOOOoooooooooo   @@@@@@@@@@@@@@",
"@@@@@@@@@@@@@@   XXXXXXXoooooooooooooooooooooooooooooooo.......OOOOOOOOOOoooooooooo   @@@@@@@@@@@@@@",
"@@@@@@@@@@@@@@   XXXXXXXoooooooooooooooooooooooooooooooo.......OOOOOOOOOOoooooooooo   @@@@@@@@@@@@@@",
"@@@@@@@@@@@@@@   XXXXXXXoooooooooooooooooooooooooooooooo.......OOOOOOOOOOoooooooooo   @@@@@@@@@@@@@@",
"@@@@@@@@@@@   XXXXXXXXXXoooooooooooooooooooooooooooooooooooo.............ooooooooooooo   @@@@@@@@@@@",
"@@@@@@@@@@@   XXXXXXXXXXoooooooooooooooooooooooooooooooooooo.............ooooooooooooo   @@@@@@@@@@@",
"@@@@@@@@@@@   XXXXXXXXXXoooooooooooooooooooooooooooooooooooo.............ooooooooooooo   @@@@@@@@@@@",
"@@@@@@@@@@@   XXXXXXoooooooooooooooooooooooooooooooooooooooooooooooooooooooooooooooooo   @@@@@@@@@@@",
"@@@@@@@@@@@   XXXXXXoooooooooooooooooooooooooooooooooooooooooooooooooooooooooooooooooo   @@@@@@@@@@@",
"@@@@@@@@@@@   XXXXXXoooooooooooooooooooooooooooooooooooooooooooooooooooooooooooooooooo   @@@@@@@@@@@",
"@@@@@@@    XXXXXXXXXooooooooooooooooooooooooooooooooooooooooooooooooooooooooXXXXXXXXXXXXX    @@@@@@@",
"@@@@@@@    XXXXXXXXXooooooooooooooooooooooooooooooooooooooooooooooooooooooooXXXXXXXXXXXXX    @@@@@@@",
"@@@@@@@    XXXXXXXXXooooooooooooooooooooooooooooooooooooooooooooooooooooooooXXXXXXXXXXXXX    @@@@@@@",
"@@@@@@@    XXXXXXXXXooooooooooooooooooooooooooooooooooooooooooooooooooooooooXXXXXXXXXXXXX    @@@@@@@",
"@@@@@@@    XXXXXXXXXooooooooooooooooooooooooooooooooooooooooXXXXXXXXXXXXXoooXXXXXXXXXXXXX    @@@@@@@",
"@@@@@@@    XXXXXXXXXooooooooooooooooooooooooooooooooooooooooXXXXXXXXXXXXXoooXXXXXXXXXXXXX    @@@@@@@",
"@@@@@@@    XXXXXXXXXooooooooooooooooooooooooooooooooooooooooXXXXXXXXXXXXXoooXXXXXXXXXXXXX    @@@@@@@",
"@@@@   XXXXXXXXXXoooooooooooooooooooooooooooooooooXXXXXXooooXXXoooooooooooooooooooooooooooooo   @@@@",
"@@@@   XXXXXXXXXXoooooooooooooooooooooooooooooooooXXXXXXooooXXXoooooooooooooooooooooooooooooo   @@@@",
"@@@@   XXXXXXXXXXoooooooooooooooooooooooooooooooooXXXXXXooooXXXoooooooooooooooooooooooooooooo   @@@@",
"@@@@   XXXXXXXXXXXXXooooooooooooooooooooooooooooooooooooooooooooooooooooooooooooooooooooooooo   @@@@",
"@@@@   XXXXXXXXXXXXXooooooooooooooooooooooooooooooooooooooooooooooooooooooooooooooooooooooooo   @@@@",
"@@@@   XXXXXXXXXXXXXooooooooooooooooooooooooooooooooooooooooooooooooooooooooooooooooooooooooo   @@@@",
"@@@@   XXXXXXXXXXXXXXXXXXXXoooooooooooooooooooooooooooooooooooooooooooooooooooooooooooooooooo   @@@@",
"@@@@   XXXXXXXXXXXXXXXXXXXXoooooooooooooooooooooooooooooooooooooooooooooooooooooooooooooooooo   @@@@",
"@@@@   XXXXXXXXXXXXXXXXXXXXoooooooooooooooooooooooooooooooooooooooooooooooooooooooooooooooooo   @@@@",
"@@@@   XXXXXXXXXXXXXXXXXXXXoooooooooooooooooooooooooooooooooooooooooooooooooooooooooooooooooo   @@@@",
"@@@@@@@                                                                                      @@@@@@@",
"@@@@@@@                                                                                      @@@@@@@",
"@@@@@@@                                                                                      @@@@@@@"
};
