/* XPM */
static char *monster_7[] = {
/* columns rows colors chars-per-pixel */
"100 100 6 1 ",
"  c #386D00",
". c #DB4161",
"X c #51A200",
"o c #71F341",
"O c #FF61B2",
"+ c None",
/* pixels */
"++++++++++++++++++++++++++++++++++++++++++++++++++++++++++++++++++++++++++++++++++++++++++++++++++++",
"++++++++++++++++++++++++++++++++++++++++++++++++++++++++++++++++++++++++++++++++++++++++++++++++++++",
"++++++++++++++++++++++++++++++++++++++++++++++++++++++++++++++++++++++++++++++++++++++++++++++++++++",
"++++++++++++++++++++++++++++++++++++++++++++++++++++++++++++++++++++++++++++++++++++++++++++++++++++",
"++++++++++++++++++++++++++++++++++++++++++++++++++++++++++++++++++++++++++++++++++++++++++++++++++++",
"++++++++++++++++++++++++++++++++++++++++++++++++++++++++++++++++++++++++++++++++++++++++++++++++++++",
"++++++++++++++++++++++++++++++++++++++++++++++++++++++++++++++++++++++++++++++++++++++++++++++++++++",
"++++++++++++++++++++++++++++++++++++++++++++++++++++++++++++++++++++++++++++++++++++++++++++++++++++",
"++++++++++++++++++++++++++++++++++++++++++++++++++++++++++++++++++++++++++++++++++++++++++++++++++++",
"++++++++++++++++++++++++++++++++++++++++++++++++++++++++++++++++++++++++++++++++++++++++++++++++++++",
"++++++++++++++++++++++++++++++++++++++++++++++++++++++++++++++++++++++++++++++++++++++++++++++++++++",
"++++++++++++++++++++++++++++++++++++++++++++++++++++++++++++++++++++++++++++++++++++++++++++++++++++",
"++++++++++++++++++++++++++++++++++++++++++++++++++++++++++++++++++++++++++++++++++++++++++++++++++++",
"++++++++++++++++++++++++++++++++++++++++++++++++++++++++++++++++++++++++++++++++++++++++++++++++++++",
"++++++++++++++++++++++++++++++++++++++++++++++++++++++++++++++++++++++++++++++++++++++++++++++++++++",
"++++++++++++++++++++++++++++++++++++++++++++++++++++++++++++++++++++++++++++++++++++++++++++++++++++",
"++++++++++++++++++++++++++++++++++++++++++++++++++++++++++++++++++++++++++++++++++++++++++++++++++++",
"++++++++++++++++++++++++++++++++++++++++++++++++++++++++++++++++++++++++++++++++++++++++++++++++++++",
"++++++++++++++++++++++++++++++++++++++++++++++++++++++++++++++++++++++++++++++++++++++++++++++++++++",
"++++++++++++++++++++++++++++++++++++++++++++++++++++++++++++++++++++++++++++++++++++++++++++++++++++",
"++++++++++++++++++++++++++++++++++++++++++++++++++++++++++++++++++++++++++++++++++++++++++++++++++++",
"++++++++++++++++++++++++++++++++++++++++++++++++++++++++++++++++++++++++++++++++++++++++++++++++++++",
"++++++++++++++++++++++++++++++++++++++++++++++++++++++++++++++++++++++++++++++++++++++++++++++++++++",
"++++++++++++++++++++++++++++++++++++++++++++++++++++++++++++++++++++++++++++++++++++++++++++++++++++",
"++++++++++++++++++++++++++++++++++++++++++++++++++++++++++++++++++++++++++++++++++++++++++++++++++++",
"++++++++++++++++++++++++++++++++++++++++++++++++++++++++++++++++++++++++++++++++++++++++++++++++++++",
"++++++++++++++++++++++++++++++++++++++++++++++++++++++++++++++++++++++++++++++++++++++++++++++++++++",
"++++++++++++++++++++++++++++++++++++++++++++++++++++++++++++++++++++++++++++++++++++++++++++++++++++",
"++++++++++++++++++++++++++++++++++++++++++++++++++++++++++++++++++++++++++++++++++++++++++++++++++++",
"++++++++++++++++++++++++++++++++++++++++++++++++++++++++++++++++++++++++++++++++++++++++++++++++++++",
"++++++++++++++++++++++++++++++++++++++++++++++++++++++++++++++++++++++++++++++++++++++++++++++++++++",
"++++++++++++++++++++++++++++++++++++++++++++++++++++++++++++++++++++++++++++++++++++++++++++++++++++",
"++++++++++++++++++++++++++++++++++++++++++++++++++++++++++++++++++++++++++++++++++++++++++++++++++++",
"++++++++++++++++++++++++++++++++++++++++++++++++++++++++++++++++++++++++++++++++++++++++++++++++++++",
"++++++++++++++++++++++++++++++++++++++++++++++++++++++++++++++++++++++++++++++++++++++++++++++++++++",
"++++++++++++++++++++++++++++++++++++++++++++++++++++++++++++++++++++++++++++++++++++++++++++++++++++",
"++++++++++++++++++++++++++++++++++++++++++++++++++++++++++++++++++++++++++++++++++++++++++++++++++++",
"++++++++++++++++++++++++++++++++++++++++++++++++++++++++++++++++++++++++++++++++++++++++++++++++++++",
"++++++++++++++++++++++++++++++++++++++++++++++++++++++++++++++++++++++++++++++++++++++++++++++++++++",
"++++++++++++++++++++++++++++++++++++++++++++++++++++++++++++++++++++++++++++++++++++++++++++++++++++",
"++++++++++++++++++++++++++++++++++++++++++++++++++++++++++++++++++++++++++++++++++++++++++++++++++++",
"++++++++++++++++++++++++++++++++++++++++++++++++++++++++++++++++++++++++++++++++++++++++++++++++++++",
"++++++++++++++++++++++++++++++++++++++++++++++++++++++++++++++++++++++++++++++++++++++++++++++++++++",
"++++++++++++++++++++++++++++++++++++++++++++++++++++++++++++++++++++++++++++++++++++++++++++++++++++",
"++++++++++++++++++++++++++++++++++++++++++++++++++++++++++++++++++++++++++++++++++++++++++++++++++++",
"++++++++++++++++++++++++++++++++++++++++++++++++++++++++++++++++++++++++++++++++++++++++++++++++++++",
"++++++++++++++++++++++++++++++++++++++++++++++++++++++++++++++++++++++++++++++++++++++++++++++++++++",
"++++++++++++++++++++++++++++++++++++++++++++++++++++++++++++++++++++++++++++++++++++++++++++++++++++",
"++++++++++++++++++++++++++++++++++++++++++++++++++++++++++++++++++++++++++++++++++++++++++++++++++++",
"++++++++++++++++++++++++++++++++++++++++++++++++++++++++++++++++++++++++++++++++++++++++++++++++++++",
"++++++++++++++++++++++++++++++++++++++++++++++++++++++++++++++++++++++++++++++++++++++++++++++++++++",
"++++++++++++++++++++++++++++++++++++++++++++++++++++++++++++++++++++++++++++++++++++++++++++++++++++",
"++++++++++++++++++++++++++++++++++++++++++++++++++++++++++++++++++++++++++++++++++++++++++++++++++++",
"++++++++++++++++++++++++++++++++++++++++++++++++++++++++++++++++++++++++++++++++++++++++++++++++++++",
"++++++++++++++++++++++++++++++++++++++++++                          ++++++++++++++++++++++++++++++++",
"++++++++++++++++++++++++++++++++++++++++++                          ++++++++++++++++++++++++++++++++",
"++++++++++++++++++++++++++++++++++++++++++                          ++++++++++++++++++++++++++++++++",
"+++++++++++++++++++++++++++++++++++       XXXooooooooooooooooooooooo       +++++++++++++++++++++++++",
"+++++++++++++++++++++++++++++++++++       XXXooooooooooooooooooooooo       +++++++++++++++++++++++++",
"+++++++++++++++++++++++++++++++++++       XXXooooooooooooooooooooooo       +++++++++++++++++++++++++",
"+++++++++++++++++++++++++++++++++++       XXXooooooooooooooooooooooo       +++++++++++++++++++++++++",
"+++++++++++++++++++++++++++++      XXXXXXXooooooooooXXXXXXXXXoooooooooooooo   ++++++++++++++++++++++",
"+++++++++++++++++++++++++++++      XXXXXXXooooooooooXXXXXXXXXoooooooooooooo   ++++++++++++++++++++++",
"+++++++++++++++++++++++++++++      XXXXXXXooooooooooXXXXXXXXXoooooooooooooo   ++++++++++++++++++++++",
"+++++++++++++++++++++++++    XXXXXXooooooooooooooooooooXXX...OOOOooooooooooooo   +++++++++++++++++++",
"+++++++++++++++++++++++++    XXXXXXooooooooooooooooooooXXX...OOOOooooooooooooo   +++++++++++++++++++",
"+++++++++++++++++++++++++    XXXXXXooooooooooooooooooooXXX...OOOOooooooooooooo   +++++++++++++++++++",
"++++++++++++++++++++++   XXXXooooooooooooooooooooooooooooo...OOOOOOOooooooooooooo   ++++++++++++++++",
"++++++++++++++++++++++   XXXXooooooooooooooooooooooooooooo...OOOOOOOooooooooooooo   ++++++++++++++++",
"++++++++++++++++++++++   XXXXooooooooooooooooooooooooooooo...OOOOOOOooooooooooooo   ++++++++++++++++",
"+++++++++++++++++++   XXXooooooooooooooooooooooooooooooooo.......OOOOOOoooooooooo   ++++++++++++++++",
"+++++++++++++++++++   XXXooooooooooooooooooooooooooooooooo.......OOOOOOoooooooooo   ++++++++++++++++",
"+++++++++++++++++++   XXXooooooooooooooooooooooooooooooooo.......OOOOOOoooooooooo   ++++++++++++++++",
"+++++++++++++++++++   XXXooooooooooooooooooooooooooooooooo.......OOOOOOoooooooooo   ++++++++++++++++",
"++++++++++++++++   XXXooooooooooooooooooooooooooooooooooooooo..............ooooooooo    ++++++++++++",
"++++++++++++++++   XXXooooooooooooooooooooooooooooooooooooooo..............ooooooooo    ++++++++++++",
"++++++++++++++++   XXXooooooooooooooooooooooooooooooooooooooo..............ooooooooo    ++++++++++++",
"++++++++++++    XXXXXXooooooooooooooooooooooooooooooooooooooooooooooooooooooooXXXXXX    ++++++++++++",
"++++++++++++    XXXXXXooooooooooooooooooooooooooooooooooooooooooooooooooooooooXXXXXX    ++++++++++++",
"++++++++++++    XXXXXXooooooooooooooooooooooooooooooooooooooooooooooooooooooooXXXXXX    ++++++++++++",
"++++++++++++    XXXXXXooooooooooooooooooooooooooooooooooooooooooooooXXXooooXXXXXXXXXXXXX   +++++++++",
"++++++++++++    XXXXXXooooooooooooooooooooooooooooooooooooooooooooooXXXooooXXXXXXXXXXXXX   +++++++++",
"++++++++++++    XXXXXXooooooooooooooooooooooooooooooooooooooooooooooXXXooooXXXXXXXXXXXXX   +++++++++",
"++++++++++++    XXXXXXooooooooooooooooooooooooooooooooooooooooooooooXXXooooXXXXXXXXXXXXX   +++++++++",
"+++++++++   XXXXXXXooooooooooooooooooooooooooooooooooooooooooooooXXXXXXooooXXXXXXXXXXXXX   +++++++++",
"+++++++++   XXXXXXXooooooooooooooooooooooooooooooooooooooooooooooXXXXXXooooXXXXXXXXXXXXX   +++++++++",
"+++++++++   XXXXXXXooooooooooooooooooooooooooooooooooooooooooooooXXXXXXooooXXXXXXXXXXXXX   +++++++++",
"+++++++++   XXXXXXXooooooooooooooooooooooooooooooooooooXXXoooXXXXXXXXXXooooooooooooooooo   +++++++++",
"+++++++++   XXXXXXXooooooooooooooooooooooooooooooooooooXXXoooXXXXXXXXXXooooooooooooooooo   +++++++++",
"+++++++++   XXXXXXXooooooooooooooooooooooooooooooooooooXXXoooXXXXXXXXXXooooooooooooooooo   +++++++++",
"++++++   XXXXXXXXXXXXXooooooooooooooooooooooooooooooXXXXXXoooXXXXXXXooooooooooooooooooooooo    +++++",
"++++++   XXXXXXXXXXXXXooooooooooooooooooooooooooooooXXXXXXoooXXXXXXXooooooooooooooooooooooo    +++++",
"++++++   XXXXXXXXXXXXXooooooooooooooooooooooooooooooXXXXXXoooXXXXXXXooooooooooooooooooooooo    +++++",
"++++++   XXXXXXXXXXXXXXXXoooooooooooooooooooooooooooooooooooooooooooooooooooooooooooooooooo    +++++",
"++++++   XXXXXXXXXXXXXXXXoooooooooooooooooooooooooooooooooooooooooooooooooooooooooooooooooo    +++++",
"++++++   XXXXXXXXXXXXXXXXoooooooooooooooooooooooooooooooooooooooooooooooooooooooooooooooooo    +++++",
"++++++   XXXXXXXXXXXXXXXXoooooooooooooooooooooooooooooooooooooooooooooooooooooooooooooooooo    +++++",
"++++++                                                                                         +++++",
"++++++                                                                                         +++++",
"++++++                                                                                         +++++"
};
