/* XPM */
static char *monster_18[] = {
/* columns rows colors chars-per-pixel */
"100 100 6 1 ",
"  c #386D00",
". c #DB4161",
"X c #51A200",
"o c #71F341",
"O c #FF61B2",
"+ c None",
/* pixels */
"++++++++++++++++++++++++++++++++++++++++++++++++++++++++++++++++++++++++++++++++++++++++++++++++++++",
"++++++++++++++++++++++++++++++++++++++++++++++++++++++++++++++++++++++++++++++++++++++++++++++++++++",
"++++++++++++++++++++++++++++++++++++++++++++++++++++++++++++++++++++++++++++++++++++++++++++++++++++",
"++++++++++++++++++++++++++++++++++++++++++++++++++++++++++++++++++++++++++++++++++++++++++++++++++++",
"++++++++++++++++++++++++++++++++++++++++++++++++++++++++++++++++++++++++++++++++++++++++++++++++++++",
"++++++++++++++++++++++++++++++++++++++++++++++++++++++++++++++++++++++++++++++++++++++++++++++++++++",
"++++++++++++++++++++++++++++++++++++++++++++++++++++++++++++++++++++++++++++++++++++++++++++++++++++",
"++++++++++++++++++++++++++++++++++++++++++++++++++++++++++++++++++++++++++++++++++++++++++++++++++++",
"++++++++++++++++++++++++++++++++++++++++++++++++++++++++++++++++++++++++++++++++++++++++++++++++++++",
"++++++++++++++++++++++++++++++++++++++++++++++++++++++++++++++++++++++++++++++++++++++++++++++++++++",
"++++++++++++++++++++++++++++++++++++++++++++++++++++++++++++++++++++++++++++++++++++++++++++++++++++",
"++++++++++++++++++++++++++++++++++++++++++++++++++++++++++++++++++++++++++++++++++++++++++++++++++++",
"++++++++++++++++++++++++++++++++++++++++++++++++++++++++++++++++++++++++++++++++++++++++++++++++++++",
"++++++++++++++++++++++++++++++++++++++++++++++++++++++++++++++++++++++++++++++++++++++++++++++++++++",
"++++++++++++++++++++++++++++++++++++++++++++++++++++++++++++++++++++++++++++++++++++++++++++++++++++",
"++++++++++++++++++++++++++++++++++++++++++++++++++++++++++++++++++++++++++++++++++++++++++++++++++++",
"++++++++++++++++++++++++++++++++++++++++++++++++++++++++++++++++++++++++++++++++++++++++++++++++++++",
"++++++++++++++++++++++++++++++++++++++++++++++++++++++++++++++++++++++++++++++++++++++++++++++++++++",
"++++++++++++++++++++++++++++++++++++++++++++++++++++++++++++++++++++++++++++++++++++++++++++++++++++",
"++++++++++++++++++++++++++++++++++++++++++++++++++++++++++++++++++++++++++++++++++++++++++++++++++++",
"++++++++++++++++++++++++++++++++++++++++++++++++++++++++++++++++++++++++++++++++++++++++++++++++++++",
"++++++++++++++++++++++++++++++++++++++++++++++++++++++++++++++++++++++++++++++++++++++++++++++++++++",
"++++++++++++++++++++++++++++++++++++++++++++++++++++++++++++++++++++++++++++++++++++++++++++++++++++",
"++++++++++++++++++++++++++++++++++++++++++++++++++++++++++++++++++++++++++++++++++++++++++++++++++++",
"++++++++++++++++++++++++++++++++++++++++++++++++++++++++++++++++++++++++++++++++++++++++++++++++++++",
"++++++++++++++++++++++++++++++++++++++++++++++++++++++++++++++++++++++++++++++++++++++++++++++++++++",
"++++++++++++++++++++++++++++++++++++++++++++++++++++++++++++++++++++++++++++++++++++++++++++++++++++",
"++++++++++++++++++++++++++++++++++++++++++++++++++++++++++++++++++++++++++++++++++++++++++++++++++++",
"++++++++++++++++++++++++++++++++++++++++++++++++++++++++++++++++++++++++++++++++++++++++++++++++++++",
"++++++++++++++++++++++++++++++++++++++++++++++++++++++++++++++++++++++++++++++++++++++++++++++++++++",
"++++++++++++++++++++++++++++++++++++++++++++++++++++++++++++++++++++++++++++++++++++++++++++++++++++",
"++++++++++++++++++++++++++++++++++++++++++++++++++++++++++++++++++++++++++++++++++++++++++++++++++++",
"++++++++++++++++++++++++++++++++++++++++++++++++++++++++++++++++++++++++++++++++++++++++++++++++++++",
"++++++++++++++++++++++++++++++++++++++++++++++++++++++++++++++++++++++++++++++++++++++++++++++++++++",
"++++++++++++++++++++++++++++++++++++++++++++++++++++++++++++++++++++++++++++++++++++++++++++++++++++",
"++++++++++++++++++++++++++++++++++++++++++++++++++++++++++++++++++++++++++++++++++++++++++++++++++++",
"++++++++++++++++++++++++++++++++++++++++++++++++++++++++++++++++++++++++++++++++++++++++++++++++++++",
"++++++++++++++++++++++++++++++++++++++++++++++++++++++++++++++++++++++++++++++++++++++++++++++++++++",
"++++++++++++++++++++++++++++++++++++++++++++++++++++++++++++++++++++++++++++++++++++++++++++++++++++",
"++++++++++++++++++++++++++++++++++++++++++++++++++++++++++++++++++++++++++++++++++++++++++++++++++++",
"++++++++++++++++++++++++++++++++++++++++++++++++++++++++++++++++++++++++++++++++++++++++++++++++++++",
"++++++++++++++++++++++++++++++++++++++++++++++++++++++++++++++++++++++++++++++++++++++++++++++++++++",
"++++++++++++++++++++++++++++++++++++++++++++++++++++++++++++++++++++++++++++++++++++++++++++++++++++",
"++++++++++++++++++++++++++++++++++++++++++++++++++++++++++++++++++++++++++++++++++++++++++++++++++++",
"++++++++++++++++++++++++++++++++++++++++++++++++++++++++++++++++++++++++++++++++++++++++++++++++++++",
"++++++++++++++++++++++++++++++++++++++++++++++++++++++++++++++++++++++++++++++++++++++++++++++++++++",
"++++++++++++++++++++++++++++++++++++++++++++++++++++++++++++++++++++++++++++++++++++++++++++++++++++",
"++++++++++++++++++++++++++++++++++++++++++++++++++++++++++++++++++++++++++++++++++++++++++++++++++++",
"++++++++++++++++++++++++++++++++++++++++++++++++++++++++++++++++++++++++++++++++++++++++++++++++++++",
"++++++++++++++++++++++++++++++++++++++++++++++++++++++++++++++++++++++++++++++++++++++++++++++++++++",
"++++++++++++++++++++++++++++++++++++++++++++++++++++++++++++++++++++++++++++++++++++++++++++++++++++",
"++++++++++++++++++++++++++++++++++++++++++++++++++++++++++++++++++++++++++++++++++++++++++++++++++++",
"++++++++++++++++++++++++++++++++++++++++++++++++++++++++++++++++++++++++++++++++++++++++++++++++++++",
"++++++++++++++++++++++++++++++++++++++++++++++++++++++++++++++++++++++++++++++++++++++++++++++++++++",
"++++++++++++++++++++++++++++++++                          ++++++++++++++++++++++++++++++++++++++++++",
"++++++++++++++++++++++++++++++++                          ++++++++++++++++++++++++++++++++++++++++++",
"++++++++++++++++++++++++++++++++                          ++++++++++++++++++++++++++++++++++++++++++",
"+++++++++++++++++++++++++       oooooooooooooooooooooooXXX       +++++++++++++++++++++++++++++++++++",
"+++++++++++++++++++++++++       oooooooooooooooooooooooXXX       +++++++++++++++++++++++++++++++++++",
"+++++++++++++++++++++++++       oooooooooooooooooooooooXXX       +++++++++++++++++++++++++++++++++++",
"+++++++++++++++++++++++++       oooooooooooooooooooooooXXX       +++++++++++++++++++++++++++++++++++",
"++++++++++++++++++++++   ooooooooooooooXXXXXXXXXooooooooooXXXXXXX      +++++++++++++++++++++++++++++",
"++++++++++++++++++++++   ooooooooooooooXXXXXXXXXooooooooooXXXXXXX      +++++++++++++++++++++++++++++",
"++++++++++++++++++++++   ooooooooooooooXXXXXXXXXooooooooooXXXXXXX      +++++++++++++++++++++++++++++",
"+++++++++++++++++++   oooooooooooooOOOO...XXXooooooooooooooooooooXXXXXX    +++++++++++++++++++++++++",
"+++++++++++++++++++   oooooooooooooOOOO...XXXooooooooooooooooooooXXXXXX    +++++++++++++++++++++++++",
"+++++++++++++++++++   oooooooooooooOOOO...XXXooooooooooooooooooooXXXXXX    +++++++++++++++++++++++++",
"++++++++++++++++   oooooooooooooOOOOOOO...oooooooooooooooooooooooooooooXXXX   ++++++++++++++++++++++",
"++++++++++++++++   oooooooooooooOOOOOOO...oooooooooooooooooooooooooooooXXXX   ++++++++++++++++++++++",
"++++++++++++++++   oooooooooooooOOOOOOO...oooooooooooooooooooooooooooooXXXX   ++++++++++++++++++++++",
"++++++++++++++++   ooooooooooOOOOOO.......oooooooooooooooooooooooooooooooooXXX   +++++++++++++++++++",
"++++++++++++++++   ooooooooooOOOOOO.......oooooooooooooooooooooooooooooooooXXX   +++++++++++++++++++",
"++++++++++++++++   ooooooooooOOOOOO.......oooooooooooooooooooooooooooooooooXXX   +++++++++++++++++++",
"++++++++++++++++   ooooooooooOOOOOO.......oooooooooooooooooooooooooooooooooXXX   +++++++++++++++++++",
"++++++++++++    ooooooooo..............oooooooooooooooooooooooooooooooooooooooXXX   ++++++++++++++++",
"++++++++++++    ooooooooo..............oooooooooooooooooooooooooooooooooooooooXXX   ++++++++++++++++",
"++++++++++++    ooooooooo..............oooooooooooooooooooooooooooooooooooooooXXX   ++++++++++++++++",
"++++++++++++    XXXXXXooooooooooooooooooooooooooooooooooooooooooooooooooooooooXXXXXX    ++++++++++++",
"++++++++++++    XXXXXXooooooooooooooooooooooooooooooooooooooooooooooooooooooooXXXXXX    ++++++++++++",
"++++++++++++    XXXXXXooooooooooooooooooooooooooooooooooooooooooooooooooooooooXXXXXX    ++++++++++++",
"+++++++++   XXXXXXXXXXXXXooooXXXooooooooooooooooooooooooooooooooooooooooooooooXXXXXX    ++++++++++++",
"+++++++++   XXXXXXXXXXXXXooooXXXooooooooooooooooooooooooooooooooooooooooooooooXXXXXX    ++++++++++++",
"+++++++++   XXXXXXXXXXXXXooooXXXooooooooooooooooooooooooooooooooooooooooooooooXXXXXX    ++++++++++++",
"+++++++++   XXXXXXXXXXXXXooooXXXooooooooooooooooooooooooooooooooooooooooooooooXXXXXX    ++++++++++++",
"+++++++++   XXXXXXXXXXXXXooooXXXXXXooooooooooooooooooooooooooooooooooooooooooooooXXXXXXX   +++++++++",
"+++++++++   XXXXXXXXXXXXXooooXXXXXXooooooooooooooooooooooooooooooooooooooooooooooXXXXXXX   +++++++++",
"+++++++++   XXXXXXXXXXXXXooooXXXXXXooooooooooooooooooooooooooooooooooooooooooooooXXXXXXX   +++++++++",
"+++++++++   oooooooooooooooooXXXXXXXXXXoooXXXooooooooooooooooooooooooooooooooooooXXXXXXX   +++++++++",
"+++++++++   oooooooooooooooooXXXXXXXXXXoooXXXooooooooooooooooooooooooooooooooooooXXXXXXX   +++++++++",
"+++++++++   oooooooooooooooooXXXXXXXXXXoooXXXooooooooooooooooooooooooooooooooooooXXXXXXX   +++++++++",
"+++++    oooooooooooooooooooooooXXXXXXXoooXXXXXXooooooooooooooooooooooooooooooXXXXXXXXXXXXX   ++++++",
"+++++    oooooooooooooooooooooooXXXXXXXoooXXXXXXooooooooooooooooooooooooooooooXXXXXXXXXXXXX   ++++++",
"+++++    oooooooooooooooooooooooXXXXXXXoooXXXXXXooooooooooooooooooooooooooooooXXXXXXXXXXXXX   ++++++",
"+++++    ooooooooooooooooooooooooooooooooooooooooooooooooooooooooooooooooooXXXXXXXXXXXXXXXX   ++++++",
"+++++    ooooooooooooooooooooooooooooooooooooooooooooooooooooooooooooooooooXXXXXXXXXXXXXXXX   ++++++",
"+++++    ooooooooooooooooooooooooooooooooooooooooooooooooooooooooooooooooooXXXXXXXXXXXXXXXX   ++++++",
"+++++    ooooooooooooooooooooooooooooooooooooooooooooooooooooooooooooooooooXXXXXXXXXXXXXXXX   ++++++",
"+++++                                                                                         ++++++",
"+++++                                                                                         ++++++",
"+++++                                                                                         ++++++"
};
