/* XPM */
static char *monster_12[] = {
/* columns rows colors chars-per-pixel */
"100 100 7 1 ",
"  c #386D00",
". c #DB4161",
"X c #51A200",
"o c #71F341",
"O c #FF61B2",
"+ c white",
"@ c None",
/* pixels */
"@@@@@@@@@@@@@@@@@@@@@@@@@@@@@@@@@@@@@@@@@@@@@@@@@@@@@@@@@@@@@@@@@@@@@@@@@@@@@@@@@@@@@@@@@@@@@@@@@@@@",
"@@@@@@@@@@@@@@@@@@@@@@@@@@@@@@@@@@@@@@@@@@@@@@@@@@@@@@@@@@@@@@@@@@@@@@@@@@@@@@@@@@@@@@@@@@@@@@@@@@@@",
"@@@@@@@@@@@@@@@@@@@@@@@@@@@@@@@@@@@@@@@@@@@@@@@@@@@@@@@@@@@@@@@@@@@@@@@@@@@@@@@@@@@@@@@@@@@@@@@@@@@@",
"@@@@@@@@@@@@@@@@@@@@@@@@@@@@@@@@@@@@@@@@@@@@@@@@@@@@@@@@@@@@@@@@@@@@@@@@@@@@@@@@@@@@@@@@@@@@@@@@@@@@",
"@@@@@@@@@@@@@@@@@@@@@@@@@@@@@@@@@@@@@@@@@@@@@@@@@@@@@@@@@@@@@@@@@@@@@@@@@@@@@@@@@@@@@@@@@@@@@@@@@@@@",
"@@@@@@@@@@@@@@@@@@@@@@@@@@@@@@@@@@@@@@@@@@@@@@@@@@@@@@@@@@@@@@@@@@@@@@@@@@@@@@@@@@@@@@@@@@@@@@@@@@@@",
"@@@@@@@@@@@@@@@@@@@@@@@@@@@@@@@@@@@@@@@@@@@@@@@@@@@@@@@@@@@@@@@@@@@@@@@@@@@@@@@@@@@@@@@@@@@@@@@@@@@@",
"@@@@@@@@@@@@@@@@@@@@@@@@@@@@@@@@@@@@@@@@@@@@@@@@@@@@@@@@@@@@@@@@@@@@@@@@@@@@@@@@@@@@@@@@@@@@@@@@@@@@",
"@@@@@@@@@@@@@@@@@@@@@@@@@@@@@@@@@@@@@@@@@@@@@@@@@@@@@@@@@@@@@@@@@@@@@@@@@@@@@@@@@@@@@@@@@@@@@@@@@@@@",
"@@@@@@@@@@@@@@@@@@@@@@@@@@@@@@@@@@@@@@@@@@@@@@@@@@@@@@@@@@@@@@@@@@@@@@@@@@@@@@@@@@@@@@@@@@@@@@@@@@@@",
"@@@@@@@@@@@@@@@@@@@@@@@@@@@@@@@@@@@@@@@@@@@@@@@@@@@@@@@@@@@@@@@@@@@@@@@@@@@@@@@@@@@@@@@@@@@@@@@@@@@@",
"@@@@@@@@@@@@@@@@@@@@@@@@@@@@@@@@@@@@@@@@@@@@@@@@@@@@@@@@@@@@@@@@@@@@@@@@@@@@@@@@@@@@@@@@@@@@@@@@@@@@",
"@@@@@@@@@@@@@@@@@@@@@@@@@@@@@@@@@@@@@@@@@@@@@@@@@@@@@@@@@@@@@@@@@@@@@@@@@@@@@@@@@@@@@@@@@@@@@@@@@@@@",
"@@@@@@@@@@@@@@@@@@@@@@@@@@@@@@@@@@@@@@@@@@@@@@@@@@@@@@@@@@@@@@@@@@@@@@@@@@@@@@@@@@@@@@@@@@@@@@@@@@@@",
"@@@@@@@@@@@@@@@@@@@@@@@@@@@@@@@@@@@@@@@@@@@@@@@@@@@@@@@@@@@@@@@@@@@@@@@@@@@@@@@@@@@@@@@@@@@@@@@@@@@@",
"@@@@@@@@@@@@@@@@@@@@@@@@@@@@@@@@@@@@@@@@@@@@@@@@@@@@@@@@@@@@@@@@@@@@@@@@@@@@@@@@@@@@@@@@@@@@@@@@@@@@",
"@@@@@@@@@@@@@@@@@@@@@@@@@@@@@@@@@@@@@@@@@@@@@@@@@@@@@@@@@@@@@@@@@@@@@@@@@@@@@@@@@@@@@@@@@@@@@@@@@@@@",
"@@@@@@@@@@@@@@@@@@@@@@@@@@@@@@@@@@@@@@@@@@@@@@@@@@@@@@@@@@@@@@@@@@@@@@@@@@@@@@@@@@@@@@@@@@@@@@@@@@@@",
"@@@@@@@@@@@@@@@@@@@@@@@@@@@@@@@@@@@@@@@@@@@@@@@@@@@@@@@@@@@@@@@@@@@@@@@@@@@@@@@@@@@@@@@@@@@@@@@@@@@@",
"@@@@@@@@@@@@@@@@@@@@@@@@@@@@@@@@@@@@@@@@@@@@@@@@@@@@@@@@@@@@@@@@@@@@@@@@@@@@@@@@@@@@@@@@@@@@@@@@@@@@",
"@@@@@@@@@@@@@@@@@@@@@@@@@@@@@@@@@@@@@@@@@@@@@@@@@@@@@@@@@@@@@@@@@@@@@@@@@@@@@@@@@@@@@@@@@@@@@@@@@@@@",
"@@@@@@@@@@@@@@@@@@@@@@@@@@@@@@@@@@@@@@@@@@@@@@@@@@@@@@@@@@@@@@@@@@@@@@@@@@@@@@@@@@@@@@@@@@@@@@@@@@@@",
"@@@@@@@@@@@@@@@@@@@@@@@@@@@@@@@@@@@@@@@@@@@@@@@@@@@@@@@@@@@@@@@@@@@@@@@@@@@@@@@@@@@@@@@@@@@@@@@@@@@@",
"@@@@@@@@@@@@@@@@@@@@@@@@@@@@@@@@@@@@@@@@@@@@@@@@@@@@@@@@@@@@@@@@@@@@@@@@@@@@@@@@@@@@@@@@@@@@@@@@@@@@",
"@@@@@@@@@@@@@@@@@@@@@@@@@@@@@@@@@@@@@@@@@@@@@@@@@@@@@@@@@@@@@@@@@@@@@@@@@@@@@@@@@@@@@@@@@@@@@@@@@@@@",
"@@@@@@@@@@@@@@@@@@@@@@@@@@@@@@@@@@@@@@@@@@@@@@@@@@@@@@@@@@@@@@@@@@@@@@@@@@@@@@@@@@@@@@@@@@@@@@@@@@@@",
"@@@@@@@@@@@@@@@@@@@@@@@@@@@@@@@@@@@@@@@@@@@@@@@@@@@@@@@@@@@@@@@@@@@@@@@@@@@@@@@@@@@@@@@@@@@@@@@@@@@@",
"@@@@@@@@@@@@@@@@@@@@@@@@@@@@@@@@@@@@@@@@@@@@@@@@@@@@@@@@@@@@@@@@@@@@@@@@@@@@@@@@@@@@@@@@@@@@@@@@@@@@",
"@@@@@@@@@@@@@@@@@@@@@@@@@@@@@@@@@@@@@@@@@@@@@@@@@@@@@@@@@@@@@@@@@@@@@@@@@@@@@@@@@@@@@@@@@@@@@@@@@@@@",
"@@@@@@@@@@@@@@@@@@@@@@@@@@@@@@@@@@@@@@@@@@@@@@@@@@@@@@@@@@@@@@@@@@@@@@@@@@@@@@@@@@@@@@@@@@@@@@@@@@@@",
"@@@@@@@@@@@@@@@@@@@@@@@@@@@@@@@@@@@@@@@@@@@@@@@@@@@@@@@@@@@@@@@@@@@@@@@@@@@@@@@@@@@@@@@@@@@@@@@@@@@@",
"@@@@@@@@@@@@@@@@@@@@@@@@@@@@@@@@@@@@@@@@@@@@             @@@@@@@@@@@@@@@@@@@@@@@@@@@@@@@@@@@@@@@@@@@",
"@@@@@@@@@@@@@@@@@@@@@@@@@@@@@@@@@@@@@@@@@@@@             @@@@@@@@@@@@@@@@@@@@@@@@@@@@@@@@@@@@@@@@@@@",
"@@@@@@@@@@@@@@@@@@@@@@@@@@@@@@@@@@@@@@@@@@@@             @@@@@@@@@@@@@@@@@@@@@@@@@@@@@@@@@@@@@@@@@@@",
"@@@@@@@@@@@@@@@@@@@@@@@@@@@@@@@@@@@@@       ooooooooooXXX      @@@@@@@@@@@@@@@@@@@@@@@@@@@@@@@@@@@@@",
"@@@@@@@@@@@@@@@@@@@@@@@@@@@@@@@@@@@@@       ooooooooooXXX      @@@@@@@@@@@@@@@@@@@@@@@@@@@@@@@@@@@@@",
"@@@@@@@@@@@@@@@@@@@@@@@@@@@@@@@@@@@@@       ooooooooooXXX      @@@@@@@@@@@@@@@@@@@@@@@@@@@@@@@@@@@@@",
"@@@@@@@@@@@@@@@@@@@@@@@@@@@@@@@@@@@@@       ooooooooooXXX      @@@@@@@@@@@@@@@@@@@@@@@@@@@@@@@@@@@@@",
"@@@@@@@@@@@@@@@@@@@@@@@@@@@@@@@@@@   ooooooooooooooooooooXXXXXX    @@@@@@@@@@@@@@@@@@@@@@@@@@@@@@@@@",
"@@@@@@@@@@@@@@@@@@@@@@@@@@@@@@@@@@   ooooooooooooooooooooXXXXXX    @@@@@@@@@@@@@@@@@@@@@@@@@@@@@@@@@",
"@@@@@@@@@@@@@@@@@@@@@@@@@@@@@@@@@@   ooooooooooooooooooooXXXXXX    @@@@@@@@@@@@@@@@@@@@@@@@@@@@@@@@@",
"@@@@@@@@@@@@@@@@@@@@@@@@@@@@@@@   oooooooooooooXXXXXXXXXXooooooXXXX   @@@@@@@@@@@@@@@@@@@@@@@@@@@@@@",
"@@@@@@@@@@@@@@@@@@@@@@@@@@@@@@@   oooooooooooooXXXXXXXXXXooooooXXXX   @@@@@@@@@@@@@@@@@@@@@@@@@@@@@@",
"@@@@@@@@@@@@@@@@@@@@@@@@@@@@@@@   oooooooooooooXXXXXXXXXXooooooXXXX   @@@@@@@@@@@@@@@@@@@@@@@@@@@@@@",
"@@@@@@@@@@@@@@@@@@@@@@@@@@@@@@@   ooooooooooOOO...XXXXoooooooooXXXX   @@@@@@@@@@@@@@@@@@@@@@@@@@@@@@",
"@@@@@@@@@@@@@@@@@@@@@@@@@@@@@@@   ooooooooooOOO...XXXXoooooooooXXXX   @@@@@@@@@@@@@@@@@@@@@@@@@@@@@@",
"@@@@@@@@@@@@@@@@@@@@@@@@@@@@@@@   ooooooooooOOO...XXXXoooooooooXXXX   @@@@@@@@@@@@@@@@@@@@@@@@@@@@@@",
"@@@@@@@@@@@@@@@@@@@@@@@@@@@    ooooooooooOOOOOO...XXXXoooooooooXXXXXXX   @@@@@@@@@@@@@@@@@@@@@@@@@@@",
"@@@@@@@@@@@@@@@@@@@@@@@@@@@    ooooooooooOOOOOO...XXXXoooooooooXXXXXXX   @@@@@@@@@@@@@@@@@@@@@@@@@@@",
"@@@@@@@@@@@@@@@@@@@@@@@@@@@    ooooooooooOOOOOO...XXXXoooooooooXXXXXXX   @@@@@@@@@@@@@@@@@@@@@@@@@@@",
"@@@@@@@@@@@@@@@@@@@@@@@@@@@    ooooooooooOOOOOO...XXXXoooooooooXXXXXXX   @@@@@@@@@@@@@@@@@@@@@@@@@@@",
"@@@@@@@@@@@@@@@@@@@@@@@@@@@    oooooo++++OOOOOO...XXXXoooooooooooooXXX   @@@@@@@@@@@@@@@@@@@@@@@@@@@",
"@@@@@@@@@@@@@@@@@@@@@@@@@@@    oooooo++++OOOOOO...XXXXoooooooooooooXXX   @@@@@@@@@@@@@@@@@@@@@@@@@@@",
"@@@@@@@@@@@@@@@@@@@@@@@@@@@    oooooo++++OOOOOO...XXXXoooooooooooooXXX   @@@@@@@@@@@@@@@@@@@@@@@@@@@",
"@@@@@@@@@@@@@@@@@@@@@@@@@@@    oooOOOOOOOOOO......oooooooooooooooooXXX   @@@@@@@@@@@@@@@@@@@@@@@@@@@",
"@@@@@@@@@@@@@@@@@@@@@@@@@@@    oooOOOOOOOOOO......oooooooooooooooooXXX   @@@@@@@@@@@@@@@@@@@@@@@@@@@",
"@@@@@@@@@@@@@@@@@@@@@@@@@@@    oooOOOOOOOOOO......oooooooooooooooooXXX   @@@@@@@@@@@@@@@@@@@@@@@@@@@",
"@@@@@@@@@@@@@@@@@@@@@@@@   ooooooo.............ooooooooooooooooooooXXXXXX    @@@@@@@@@@@@@@@@@@@@@@@",
"@@@@@@@@@@@@@@@@@@@@@@@@   ooooooo.............ooooooooooooooooooooXXXXXX    @@@@@@@@@@@@@@@@@@@@@@@",
"@@@@@@@@@@@@@@@@@@@@@@@@   ooooooo.............ooooooooooooooooooooXXXXXX    @@@@@@@@@@@@@@@@@@@@@@@",
"@@@@@@@@@@@@@@@@@@@@@@@@   ooooooo.............ooooooooooooooooooooXXXXXX    @@@@@@@@@@@@@@@@@@@@@@@",
"@@@@@@@@@@@@@@@@@@@@@@@@   oooooooooooooooooooooooooooooooooooooooooooXXX    @@@@@@@@@@@@@@@@@@@@@@@",
"@@@@@@@@@@@@@@@@@@@@@@@@   oooooooooooooooooooooooooooooooooooooooooooXXX    @@@@@@@@@@@@@@@@@@@@@@@",
"@@@@@@@@@@@@@@@@@@@@@@@@   oooooooooooooooooooooooooooooooooooooooooooXXX    @@@@@@@@@@@@@@@@@@@@@@@",
"@@@@@@@@@@@@@@@@@@@@@   XXXXXXXoooooooooooooooooooooooooooooooooooooooXXXXXXX   @@@@@@@@@@@@@@@@@@@@",
"@@@@@@@@@@@@@@@@@@@@@   XXXXXXXoooooooooooooooooooooooooooooooooooooooXXXXXXX   @@@@@@@@@@@@@@@@@@@@",
"@@@@@@@@@@@@@@@@@@@@@   XXXXXXXoooooooooooooooooooooooooooooooooooooooXXXXXXX   @@@@@@@@@@@@@@@@@@@@",
"@@@@@@@@@@@@@@@@@@@@@   XXXXXXXooooooXXXXoooooooooooooooooooooooooooooXXXXXXX   @@@@@@@@@@@@@@@@@@@@",
"@@@@@@@@@@@@@@@@@@@@@   XXXXXXXooooooXXXXoooooooooooooooooooooooooooooXXXXXXX   @@@@@@@@@@@@@@@@@@@@",
"@@@@@@@@@@@@@@@@@@@@@   XXXXXXXooooooXXXXoooooooooooooooooooooooooooooXXXXXXX   @@@@@@@@@@@@@@@@@@@@",
"@@@@@@@@@@@@@@@@@@@@@   XXXXXXXooooooXXXXXXXoooooooooooooooooooooooooooooXXXX   @@@@@@@@@@@@@@@@@@@@",
"@@@@@@@@@@@@@@@@@@@@@   XXXXXXXooooooXXXXXXXoooooooooooooooooooooooooooooXXXX   @@@@@@@@@@@@@@@@@@@@",
"@@@@@@@@@@@@@@@@@@@@@   XXXXXXXooooooXXXXXXXoooooooooooooooooooooooooooooXXXX   @@@@@@@@@@@@@@@@@@@@",
"@@@@@@@@@@@@@@@@@@@@@   XXXXXXXooooooXXXXXXXoooooooooooooooooooooooooooooXXXX   @@@@@@@@@@@@@@@@@@@@",
"@@@@@@@@@@@@@@@@@@   XXXXXXXXXXXXXoooXXXXXXXXXXooooooooooooooooooooooooooXXXXXXX   @@@@@@@@@@@@@@@@@",
"@@@@@@@@@@@@@@@@@@   XXXXXXXXXXXXXoooXXXXXXXXXXooooooooooooooooooooooooooXXXXXXX   @@@@@@@@@@@@@@@@@",
"@@@@@@@@@@@@@@@@@@   XXXXXXXXXXXXXoooXXXXXXXXXXooooooooooooooooooooooooooXXXXXXX   @@@@@@@@@@@@@@@@@",
"@@@@@@@@@@@@@@@@@@   XXXXXXXXXXXXXoooXXXXXXXXXXooooooooooooooooooooooooooXXXXXXX   @@@@@@@@@@@@@@@@@",
"@@@@@@@@@@@@@@@@@@   XXXXXXXXXXXXXoooXXXXXXXXXXooooooooooooooooooooooooooXXXXXXX   @@@@@@@@@@@@@@@@@",
"@@@@@@@@@@@@@@@@@@   XXXXXXXXXXXXXoooXXXXXXXXXXooooooooooooooooooooooooooXXXXXXX   @@@@@@@@@@@@@@@@@",
"@@@@@@@@@@@@@@@@@@   oooXXXXXXXXXXoooXXXXXXXXXXoooXXXXoooooooooooooooooooXXXXXXX   @@@@@@@@@@@@@@@@@",
"@@@@@@@@@@@@@@@@@@   oooXXXXXXXXXXoooXXXXXXXXXXoooXXXXoooooooooooooooooooXXXXXXX   @@@@@@@@@@@@@@@@@",
"@@@@@@@@@@@@@@@@@@   oooXXXXXXXXXXoooXXXXXXXXXXoooXXXXoooooooooooooooooooXXXXXXX   @@@@@@@@@@@@@@@@@",
"@@@@@@@@@@@@@@@@@@   oooXXXXXXXXXXoooXXXXXXXXXXoooXXXXoooooooooooooooooooXXXXXXX   @@@@@@@@@@@@@@@@@",
"@@@@@@@@@@@@@@    oooooooooooooooooooXXXXXXXXXXoooXXXXXXXooooooooooooooooooooXXXXXX    @@@@@@@@@@@@@",
"@@@@@@@@@@@@@@    oooooooooooooooooooXXXXXXXXXXoooXXXXXXXooooooooooooooooooooXXXXXX    @@@@@@@@@@@@@",
"@@@@@@@@@@@@@@    oooooooooooooooooooXXXXXXXXXXoooXXXXXXXooooooooooooooooooooXXXXXX    @@@@@@@@@@@@@",
"@@@@@@@@@@@@@@    oooooooooooooooooooooooXXXXXXoooXXXXXXXooooooooooooooooooooXXXXXX    @@@@@@@@@@@@@",
"@@@@@@@@@@@@@@    oooooooooooooooooooooooXXXXXXoooXXXXXXXooooooooooooooooooooXXXXXX    @@@@@@@@@@@@@",
"@@@@@@@@@@@@@@    oooooooooooooooooooooooXXXXXXoooXXXXXXXooooooooooooooooooooXXXXXX    @@@@@@@@@@@@@",
"@@@@@@@@@@@@@@    oooooooooooooooooooooooooooooooooooooooooooooooooooooooXXXXXXXXXX    @@@@@@@@@@@@@",
"@@@@@@@@@@@@@@    oooooooooooooooooooooooooooooooooooooooooooooooooooooooXXXXXXXXXX    @@@@@@@@@@@@@",
"@@@@@@@@@@@@@@    oooooooooooooooooooooooooooooooooooooooooooooooooooooooXXXXXXXXXX    @@@@@@@@@@@@@",
"@@@@@@@@@@@@@@    ooooooooooooooooooooooooooooooooooooooooooooooooooooXXXXXXXXXXXXX    @@@@@@@@@@@@@",
"@@@@@@@@@@@@@@    ooooooooooooooooooooooooooooooooooooooooooooooooooooXXXXXXXXXXXXX    @@@@@@@@@@@@@",
"@@@@@@@@@@@@@@    ooooooooooooooooooooooooooooooooooooooooooooooooooooXXXXXXXXXXXXX    @@@@@@@@@@@@@",
"@@@@@@@@@@@@@@    ooooooooooooooooooooooooooooooooooooooooooooooooooooXXXXXXXXXXXXX    @@@@@@@@@@@@@",
"@@@@@@@@@@@@@@@@@@                                                                 @@@@@@@@@@@@@@@@@",
"@@@@@@@@@@@@@@@@@@                                                                 @@@@@@@@@@@@@@@@@",
"@@@@@@@@@@@@@@@@@@                                                                 @@@@@@@@@@@@@@@@@"
};
