/* XPM */
static char *monster_14[] = {
/* columns rows colors chars-per-pixel */
"100 100 7 1 ",
"  c #386D00",
". c #DB4161",
"X c #51A200",
"o c #71F341",
"O c #FF61B2",
"+ c white",
"@ c None",
/* pixels */
"@@@@@@@@@@@@@@@@@@@@@@@@@@@@@@@@@@@@@@@@@@@@@@@@@@@@@@@@@@@@@@@@@@@@@@@@@@@@@@@@@@@@@@@@@@@@@@@@@@@@",
"@@@@@@@@@@@@@@@@@@@@@@@@@@@@@@@@@@@@@@@@@@@@@@@@@@@@@@@@@@@@@@@@@@@@@@@@@@@@@@@@@@@@@@@@@@@@@@@@@@@@",
"@@@@@@@@@@@@@@@@@@@@@@@@@@@@@@@@@@@@@@@@@@@@@@@@@@@@@@@@@@@@@@@@@@@@@@@@@@@@@@@@@@@@@@@@@@@@@@@@@@@@",
"@@@@@@@@@@@@@@@@@@@@@@@@@@@@@@@@@@@@@@@@@@@@@@@@@@@@@@@@@@@@@@@@@@@@@@@@@@@@@@@@@@@@@@@@@@@@@@@@@@@@",
"@@@@@@@@@@@@@@@@@@@@@@@@@@@@@@@@@@@@@@@@@@@@@@@@@@@@@@@@@@@@@@@@@@@@@@@@@@@@@@@@@@@@@@@@@@@@@@@@@@@@",
"@@@@@@@@@@@@@@@@@@@@@@@@@@@@@@@@@@@@@@@@@@@@@@@@@@@@@@@@@@@@@@@@@@@@@@@@@@@@@@@@@@@@@@@@@@@@@@@@@@@@",
"@@@@@@@@@@@@@@@@@@@@@@@@@@@@@@@@@@@@@@@@@@@@@@@@@@@@@@@@@@@@@@@@@@@@@@@@@@@@@@@@@@@@@@@@@@@@@@@@@@@@",
"@@@@@@@@@@@@@@@@@@@@@@@@@@@@@@@@@@@@@@@@@@@@@@@@@@@@@@@@@@@@@@@@@@@@@@@@@@@@@@@@@@@@@@@@@@@@@@@@@@@@",
"@@@@@@@@@@@@@@@@@@@@@@@@@@@@@@@@@@@@@@@@@@@@@@@@@@@@@@@@@@@@@@@@@@@@@@@@@@@@@@@@@@@@@@@@@@@@@@@@@@@@",
"@@@@@@@@@@@@@@@@@@@@@@@@@@@@@@@@@@@@@@@@@@@@@@@@@@@@@@@@@@@@@@@@@@@@@@@@@@@@@@@@@@@@@@@@@@@@@@@@@@@@",
"@@@@@@@@@@@@@@@@@@@@@@@@@@@@@@@@@@@@@@@@@@@@@@@@@@@@@@@@@@@@@@@@@@@@@@@@@@@@@@@@@@@@@@@@@@@@@@@@@@@@",
"@@@@@@@@@@@@@@@@@@@@@@@@@@@@@@@@@@@@@@@@@@@@@@@@@@@@@@@@@@@@@@@@@@@@@@@@@@@@@@@@@@@@@@@@@@@@@@@@@@@@",
"@@@@@@@@@@@@@@@@@@@@@@@@@@@@@@@@@@@@@@@@@@@@@@@@@@@@@@@@@@@@@@@@@@@@@@@@@@@@@@@@@@@@@@@@@@@@@@@@@@@@",
"@@@@@@@@@@@@@@@@@@@@@@@@@@@@@@@@@@@@@@@@@@@@@@@@@@@@@@@@@@@@@@@@@@@@@@@@@@@@@@@@@@@@@@@@@@@@@@@@@@@@",
"@@@@@@@@@@@@@@@@@@@@@@@@@@@@@@@@@@@@@@@@@@@@@@@@@@@@@@@@@@@@@@@@@@@@@@@@@@@@@@@@@@@@@@@@@@@@@@@@@@@@",
"@@@@@@@@@@@@@@@@@@@@@@@@@@@@@@@@@@@@@@@@@@@@@@@@@@@@@@@@@@@@@@@@@@@@@@@@@@@@@@@@@@@@@@@@@@@@@@@@@@@@",
"@@@@@@@@@@@@@@@@@@@@@@@@@@@@@@@@@@@@@@@@@@@@@@@@@@@@@@@@@@@@@@@@@@@@@@@@@@@@@@@@@@@@@@@@@@@@@@@@@@@@",
"@@@@@@@@@@@@@@@@@@@@@@@@@@@@@@@@@@@@@@@@@@@@@@@@@@@@@@@@@@@@@@@@@@@@@@@@@@@@@@@@@@@@@@@@@@@@@@@@@@@@",
"@@@@@@@@@@@@@@@@@@@@@@@@@@@@@@@@@@@@@@@@@@@@@@@@@@@@@@@@@@@@@@@@@@@@@@@@@@@@@@@@@@@@@@@@@@@@@@@@@@@@",
"@@@@@@@@@@@@@@@@@@@@@@@@@@@@@@@@@@@@@@@@@@@@@@@@@@@@@@@@@@@@@@@@@@@@@@@@@@@@@@@@@@@@@@@@@@@@@@@@@@@@",
"@@@@@@@@@@@@@@@@@@@@@@@@@@@@@@@@@@@@@@@@@@@@@@@@@@@@@@@@@@@@@@@@@@@@@@@@@@@@@@@@@@@@@@@@@@@@@@@@@@@@",
"@@@@@@@@@@@@@@@@@@@@@@@@@@@@@@@@@@@@@@@@@@@@@@@@@@@@@@@@@@@@@@@@@@@@@@@@@@@@@@@@@@@@@@@@@@@@@@@@@@@@",
"@@@@@@@@@@@@@@@@@@@@@@@@@@@@@@@@@@@@@@@@@@@@@@@@@@@@@@@@@@@@@@@@@@@@@@@@@@@@@@@@@@@@@@@@@@@@@@@@@@@@",
"@@@@@@@@@@@@@@@@@@@@@@@@@@@@@@@@@@@@@@@@@@@@@@@@@@@@@@@@@@@@@@@@@@@@@@@@@@@@@@@@@@@@@@@@@@@@@@@@@@@@",
"@@@@@@@@@@@@@@@@@@@@@@@@@@@@@@@@@@@@@@@@@@@@@@@@@@@@@@@@@@@@@@@@@@@@@@@@@@@@@@@@@@@@@@@@@@@@@@@@@@@@",
"@@@@@@@@@@@@@@@@@@@@@@@@@@@@@@@@@@@@@@@@@@@@@@@@@@@@@@@@@@@@@@@@@@@@@@@@@@@@@@@@@@@@@@@@@@@@@@@@@@@@",
"@@@@@@@@@@@@@@@@@@@@@@@@@@@@@@@@@@@@@@@@@@@@@@@@@@@@@@@@@@@@@@@@@@@@@@@@@@@@@@@@@@@@@@@@@@@@@@@@@@@@",
"@@@@@@@@@@@@@@@@@@@@@@@@@@@@@@@@@@@@@@@@@@@@@@@@@@@@@@@@@@@@@@@@@@@@@@@@@@@@@@@@@@@@@@@@@@@@@@@@@@@@",
"@@@@@@@@@@@@@@@@@@@@@@@@@@@@@@@@@@@@@@@@@@@@@@@@@@@@@@@@@@@@@@@@@@@@@@@@@@@@@@@@@@@@@@@@@@@@@@@@@@@@",
"@@@@@@@@@@@@@@@@@@@@@@@@@@@@@@@@@@@@@@@@@@@@@@@@@@@@@@@@@@@@@@@@@@@@@@@@@@@@@@@@@@@@@@@@@@@@@@@@@@@@",
"@@@@@@@@@@@@@@@@@@@@@@@@@@@@@@@@@@@@@@@@@@@@@@@@@@@@@@@@@@@@@@@@@@@@@@@@@@@@@@@@@@@@@@@@@@@@@@@@@@@@",
"@@@@@@@@@@@@@@@@@@@@@@@@@@@@@@@@@@@@@@@@@@@@@@@@@@@@@@@@@@@@@@@@@@@@@@@@@@@@@@@@@@@@@@@@@@@@@@@@@@@@",
"@@@@@@@@@@@@@@@@@@@@@@@@@@@@@@@@@@@@@@@@@@@@@@@@@@@@@@@@@@@@@@@@@@@@@@@@@@@@@@@@@@@@@@@@@@@@@@@@@@@@",
"@@@@@@@@@@@@@@@@@@@@@@@@@@@@@@@@@@@@@@@@@@@@@@@@@@@@@@@@@@@@@@@@@@@@@@@@@@@@@@@@@@@@@@@@@@@@@@@@@@@@",
"@@@@@@@@@@@@@@@@@@@@@@@@@@@@@@@@@@@@@@@@@@@@@@@@@@@@@@@@@@@@@@@@@@@@@@@@@@@@@@@@@@@@@@@@@@@@@@@@@@@@",
"@@@@@@@@@@@@@@@@@@@@@@@@@@@@@@@@@@@@@@@@@@@@@@@@@@@@@@@@@@@@@@@@@@@@@@@@@@@@@@@@@@@@@@@@@@@@@@@@@@@@",
"@@@@@@@@@@@@@@@@@@@@@@@@@@@@@@@@@@@@@@@@@@@@@@@@@@@@@@@@@@@@@@@@@@@@@@@@@@@@@@@@@@@@@@@@@@@@@@@@@@@@",
"@@@@@@@@@@@@@@@@@@@@@@@@@@@@@@@@@@@@@@@@@@@@@@@@@@@@@@@@@@@@@@@@@@@@@@@@@@@@@@@@@@@@@@@@@@@@@@@@@@@@",
"@@@@@@@@@@@@@@@@@@@@@@@@@@@@@@@@@@@@@@@@@@@@@@@@@@@@@@@@@@@@@@@@@@@@@@@@@@@@@@@@@@@@@@@@@@@@@@@@@@@@",
"@@@@@@@@@@@@@@@@@@@@@@@@@@@@@@@@@@@@@@@@@@@@@@@@@@@@@@@@@@@@@@@@@@@@@@@@@@@@@@@@@@@@@@@@@@@@@@@@@@@@",
"@@@@@@@@@@@@@@@@@@@@@@@@@@@@@@@@@@@@@@@@@@@@@@@@@@@@@@@@@@@@@@@@@@@@@@@@@@@@@@@@@@@@@@@@@@@@@@@@@@@@",
"@@@@@@@@@@@@@@@@@@@@@@@@@@@@@@@@@@@@@@@@@@@@@@@@@@@@@@@@@@@@@@@@@@@@@@@@@@@@@@@@@@@@@@@@@@@@@@@@@@@@",
"@@@@@@@@@@@@@@@@@@@@@@@@@@@@@@@@@@@@@@@@@@@@@@@@@@@@@@@@@@@@@@@@@@@@@@@@@@@@@@@@@@@@@@@@@@@@@@@@@@@@",
"@@@@@@@@@@@@@@@@@@@@@@@@@@@@@@@@@@@@@@@@@@@@@@@@@@@@@@@@@@@@@@@@@@@@@@@@@@@@@@@@@@@@@@@@@@@@@@@@@@@@",
"@@@@@@@@@@@@@@@@@@@@@@@@@@@@@@@@@@@@@@@@@@@@@@@@@@@@@@@@@@@@@@@@@@@@@@@@@@@@@@@@@@@@@@@@@@@@@@@@@@@@",
"@@@@@@@@@@@@@@@@@@@@@@@@@@@@@@@@@@@@@@@@@@@@@@@@@@@@@@@@@@@@@@@@@@@@@@@@@@@@@@@@@@@@@@@@@@@@@@@@@@@@",
"@@@@@@@@@@@@@@@@@@@@@@@@@@@@@@@@@@@@@@@@@@@@@@@@@@@@@@@@@@@@@@@@@@@@@@@@@@@@@@@@@@@@@@@@@@@@@@@@@@@@",
"@@@@@@@@@@@@@@@@@@@@@@@@@@@@@@@@@@@@@@@@@@@@                   @@@@@@@@@@@@@@@@@@@@@@@@@@@@@@@@@@@@@",
"@@@@@@@@@@@@@@@@@@@@@@@@@@@@@@@@@@@@@@@@@@@@                   @@@@@@@@@@@@@@@@@@@@@@@@@@@@@@@@@@@@@",
"@@@@@@@@@@@@@@@@@@@@@@@@@@@@@@@@@@@@@@@@@@@@                   @@@@@@@@@@@@@@@@@@@@@@@@@@@@@@@@@@@@@",
"@@@@@@@@@@@@@@@@@@@@@@@@@@@@@@@@@@@@@@@@@@@@                   @@@@@@@@@@@@@@@@@@@@@@@@@@@@@@@@@@@@@",
"@@@@@@@@@@@@@@@@@@@@@@@@@@@@@@@@@@          oooooooooooooXXXXXX       @@@@@@@@@@@@@@@@@@@@@@@@@@@@@@",
"@@@@@@@@@@@@@@@@@@@@@@@@@@@@@@@@@@          oooooooooooooXXXXXX       @@@@@@@@@@@@@@@@@@@@@@@@@@@@@@",
"@@@@@@@@@@@@@@@@@@@@@@@@@@@@@@@@@@          oooooooooooooXXXXXX       @@@@@@@@@@@@@@@@@@@@@@@@@@@@@@",
"@@@@@@@@@@@@@@@@@@@@@@@@@@@       oooooooooooooooooooooooooooooXXXXXXX   @@@@@@@@@@@@@@@@@@@@@@@@@@@",
"@@@@@@@@@@@@@@@@@@@@@@@@@@@       oooooooooooooooooooooooooooooXXXXXXX   @@@@@@@@@@@@@@@@@@@@@@@@@@@",
"@@@@@@@@@@@@@@@@@@@@@@@@@@@       oooooooooooooooooooooooooooooXXXXXXX   @@@@@@@@@@@@@@@@@@@@@@@@@@@",
"@@@@@@@@@@@@@@@@@@@@@@@@   oooooooooooooXXXXXXXXXXoooooooooooooooooXXXXXX   @@@@@@@@@@@@@@@@@@@@@@@@",
"@@@@@@@@@@@@@@@@@@@@@@@@   oooooooooooooXXXXXXXXXXoooooooooooooooooXXXXXX   @@@@@@@@@@@@@@@@@@@@@@@@",
"@@@@@@@@@@@@@@@@@@@@@@@@   oooooooooooooXXXXXXXXXXoooooooooooooooooXXXXXX   @@@@@@@@@@@@@@@@@@@@@@@@",
"@@@@@@@@@@@@@@@@@@@@@@@@   oooooooooooooXXXXXXXXXXoooooooooooooooooXXXXXX   @@@@@@@@@@@@@@@@@@@@@@@@",
"@@@@@@@@@@@@@@@@@@@@@   oooooooooooooOOO....XXXoooooooooooooooooooooooXXXXXX    @@@@@@@@@@@@@@@@@@@@",
"@@@@@@@@@@@@@@@@@@@@@   oooooooooooooOOO....XXXoooooooooooooooooooooooXXXXXX    @@@@@@@@@@@@@@@@@@@@",
"@@@@@@@@@@@@@@@@@@@@@   oooooooooooooOOO....XXXoooooooooooooooooooooooXXXXXX    @@@@@@@@@@@@@@@@@@@@",
"@@@@@@@@@@@@@@@@@    oooooooooooooOOOOOO....XXXooooooooooooooooooooooooooXXXXXXX   @@@@@@@@@@@@@@@@@",
"@@@@@@@@@@@@@@@@@    oooooooooooooOOOOOO....XXXooooooooooooooooooooooooooXXXXXXX   @@@@@@@@@@@@@@@@@",
"@@@@@@@@@@@@@@@@@    oooooooooooooOOOOOO....XXXooooooooooooooooooooooooooXXXXXXX   @@@@@@@@@@@@@@@@@",
"@@@@@@@@@@@@@@   ooooooooooooo++++OOOOOO....XXXooooooooooooooooooooooooooXXXXXXXXXX   @@@@@@@@@@@@@@",
"@@@@@@@@@@@@@@   ooooooooooooo++++OOOOOO....XXXooooooooooooooooooooooooooXXXXXXXXXX   @@@@@@@@@@@@@@",
"@@@@@@@@@@@@@@   ooooooooooooo++++OOOOOO....XXXooooooooooooooooooooooooooXXXXXXXXXX   @@@@@@@@@@@@@@",
"@@@@@@@@@@@@@@   ooooooooooOOOOOOOOOO.......ooooooooooooooooooooooooooooooooXXXXXXX   @@@@@@@@@@@@@@",
"@@@@@@@@@@@@@@   ooooooooooOOOOOOOOOO.......ooooooooooooooooooooooooooooooooXXXXXXX   @@@@@@@@@@@@@@",
"@@@@@@@@@@@@@@   ooooooooooOOOOOOOOOO.......ooooooooooooooooooooooooooooooooXXXXXXX   @@@@@@@@@@@@@@",
"@@@@@@@@@@@@@@   ooooooooooOOOOOOOOOO.......ooooooooooooooooooooooooooooooooXXXXXXX   @@@@@@@@@@@@@@",
"@@@@@@@@@@@   ooooooooooooo.............ooooooooooooooooooooooooooooooooooooXXXXXXXXXX   @@@@@@@@@@@",
"@@@@@@@@@@@   ooooooooooooo.............ooooooooooooooooooooooooooooooooooooXXXXXXXXXX   @@@@@@@@@@@",
"@@@@@@@@@@@   ooooooooooooo.............ooooooooooooooooooooooooooooooooooooXXXXXXXXXX   @@@@@@@@@@@",
"@@@@@@@@@@@   ooooooooooooooooooooooooooooooooooooooooooooooooooooooooooooooooooXXXXXX   @@@@@@@@@@@",
"@@@@@@@@@@@   ooooooooooooooooooooooooooooooooooooooooooooooooooooooooooooooooooXXXXXX   @@@@@@@@@@@",
"@@@@@@@@@@@   ooooooooooooooooooooooooooooooooooooooooooooooooooooooooooooooooooXXXXXX   @@@@@@@@@@@",
"@@@@@@@    XXXXXXXXXXXXXooooooooooooooooooooooooooooooooooooooooooooooooooooooooXXXXXXXXX    @@@@@@@",
"@@@@@@@    XXXXXXXXXXXXXooooooooooooooooooooooooooooooooooooooooooooooooooooooooXXXXXXXXX    @@@@@@@",
"@@@@@@@    XXXXXXXXXXXXXooooooooooooooooooooooooooooooooooooooooooooooooooooooooXXXXXXXXX    @@@@@@@",
"@@@@@@@    XXXXXXXXXXXXXooooooooooooooooooooooooooooooooooooooooooooooooooooooooXXXXXXXXX    @@@@@@@",
"@@@@@@@    XXXXXXXXXXXXXoooXXXXXXXXXXXXXooooooooooooooooooooooooooooooooooooooooXXXXXXXXX    @@@@@@@",
"@@@@@@@    XXXXXXXXXXXXXoooXXXXXXXXXXXXXooooooooooooooooooooooooooooooooooooooooXXXXXXXXX    @@@@@@@",
"@@@@@@@    XXXXXXXXXXXXXoooXXXXXXXXXXXXXooooooooooooooooooooooooooooooooooooooooXXXXXXXXX    @@@@@@@",
"@@@@   ooooooooooooooooooooooooooooooXXXooooXXXXXXoooooooooooooooooooooooooooooooooXXXXXXXXXX   @@@@",
"@@@@   ooooooooooooooooooooooooooooooXXXooooXXXXXXoooooooooooooooooooooooooooooooooXXXXXXXXXX   @@@@",
"@@@@   ooooooooooooooooooooooooooooooXXXooooXXXXXXoooooooooooooooooooooooooooooooooXXXXXXXXXX   @@@@",
"@@@@   oooooooooooooooooooooooooooooooooooooooooooooooooooooooooooooooooooooooooXXXXXXXXXXXXX   @@@@",
"@@@@   oooooooooooooooooooooooooooooooooooooooooooooooooooooooooooooooooooooooooXXXXXXXXXXXXX   @@@@",
"@@@@   oooooooooooooooooooooooooooooooooooooooooooooooooooooooooooooooooooooooooXXXXXXXXXXXXX   @@@@",
"@@@@   ooooooooooooooooooooooooooooooooooooooooooooooooooooooooooooooooooXXXXXXXXXXXXXXXXXXXX   @@@@",
"@@@@   ooooooooooooooooooooooooooooooooooooooooooooooooooooooooooooooooooXXXXXXXXXXXXXXXXXXXX   @@@@",
"@@@@   ooooooooooooooooooooooooooooooooooooooooooooooooooooooooooooooooooXXXXXXXXXXXXXXXXXXXX   @@@@",
"@@@@   ooooooooooooooooooooooooooooooooooooooooooooooooooooooooooooooooooXXXXXXXXXXXXXXXXXXXX   @@@@",
"@@@@@@@                                                                                      @@@@@@@",
"@@@@@@@                                                                                      @@@@@@@",
"@@@@@@@                                                                                      @@@@@@@"
};
