/* XPM */
static char *monster_2[] = {
/* columns rows colors chars-per-pixel */
"100 100 7 1 ",
"  c #386D00",
". c #DB4161",
"X c #51A200",
"o c #71F341",
"O c #FF61B2",
"+ c white",
"@ c None",
/* pixels */
"@@@@@@@@@@@@@@@@@@@@@@@@@@@@@@@@@@@@@@@@@@@@@@@@@@@@@@@@@@@@@@@@@@@@@@@@@@@@@@@@@@@@@@@@@@@@@@@@@@@@",
"@@@@@@@@@@@@@@@@@@@@@@@@@@@@@@@@@@@@@@@@@@@@@@@@@@@@@@@@@@@@@@@@@@@@@@@@@@@@@@@@@@@@@@@@@@@@@@@@@@@@",
"@@@@@@@@@@@@@@@@@@@@@@@@@@@@@@@@@@@@@@@@@@@@@@@@@@@@@@@@@@@@@@@@@@@@@@@@@@@@@@@@@@@@@@@@@@@@@@@@@@@@",
"@@@@@@@@@@@@@@@@@@@@@@@@@@@@@@@@@@@@@@@@@@@@@@@@@@@@@@@@@@@@@@@@@@@@@@@@@@@@@@@@@@@@@@@@@@@@@@@@@@@@",
"@@@@@@@@@@@@@@@@@@@@@@@@@@@@@@@@@@@@@@@@@@@@@@@@@@@@@@@@@@@@@@@@@@@@@@@@@@@@@@@@@@@@@@@@@@@@@@@@@@@@",
"@@@@@@@@@@@@@@@@@@@@@@@@@@@@@@@@@@@@@@@@@@@@@@@@@@@@@@@@@@@@@@@@@@@@@@@@@@@@@@@@@@@@@@@@@@@@@@@@@@@@",
"@@@@@@@@@@@@@@@@@@@@@@@@@@@@@@@@@@@@@@@@@@@@@@@@@@@@@@@@@@@@@@@@@@@@@@@@@@@@@@@@@@@@@@@@@@@@@@@@@@@@",
"@@@@@@@@@@@@@@@@@@@@@@@@@@@@@@@@@@@@@@@@@@@@@@@@@@@@@@@@@@@@@@@@@@@@@@@@@@@@@@@@@@@@@@@@@@@@@@@@@@@@",
"@@@@@@@@@@@@@@@@@@@@@@@@@@@@@@@@@@@@@@@@@@@@@@@@@@@@@@@@@@@@@@@@@@@@@@@@@@@@@@@@@@@@@@@@@@@@@@@@@@@@",
"@@@@@@@@@@@@@@@@@@@@@@@@@@@@@@@@@@@@@@@@@@@@@@@@@@@@@@@@@@@@@@@@@@@@@@@@@@@@@@@@@@@@@@@@@@@@@@@@@@@@",
"@@@@@@@@@@@@@@@@@@@@@@@@@@@@@@@@@@@@@@@@@@@@@@@@@@@@@@@@@@@@@@@@@@@@@@@@@@@@@@@@@@@@@@@@@@@@@@@@@@@@",
"@@@@@@@@@@@@@@@@@@@@@@@@@@@@@@@@@@@@@@@@@@@@@@@@@@@@@@@@@@@@@@@@@@@@@@@@@@@@@@@@@@@@@@@@@@@@@@@@@@@@",
"@@@@@@@@@@@@@@@@@@@@@@@@@@@@@@@@@@@@@@@@@@@@@@@@@@@@@@@@@@@@@@@@@@@@@@@@@@@@@@@@@@@@@@@@@@@@@@@@@@@@",
"@@@@@@@@@@@@@@@@@@@@@@@@@@@@@@@@@@@@@@@@@@@@@@@@@@@@@@@@@@@@@@@@@@@@@@@@@@@@@@@@@@@@@@@@@@@@@@@@@@@@",
"@@@@@@@@@@@@@@@@@@@@@@@@@@@@@@@@@@@@@@@@@@@@@@@@@@@@@@@@@@@@@@@@@@@@@@@@@@@@@@@@@@@@@@@@@@@@@@@@@@@@",
"@@@@@@@@@@@@@@@@@@@@@@@@@@@@@@@@@@@@@@@@@@@@@@@@@@@@@@@@@@@@@@@@@@@@@@@@@@@@@@@@@@@@@@@@@@@@@@@@@@@@",
"@@@@@@@@@@@@@@@@@@@@@@@@@@@@@@@@@@@@@@@@@@@@@@@@@@@@@@@@@@@@@@@@@@@@@@@@@@@@@@@@@@@@@@@@@@@@@@@@@@@@",
"@@@@@@@@@@@@@@@@@@@@@@@@@@@@@@@@@@@@@@@@@@@@@@@@@@@@@@@@@@@@@@@@@@@@@@@@@@@@@@@@@@@@@@@@@@@@@@@@@@@@",
"@@@@@@@@@@@@@@@@@@@@@@@@@@@@@@@@@@@@@@@@@@@@@@@@@@@@@@@@@@@@@@@@@@@@@@@@@@@@@@@@@@@@@@@@@@@@@@@@@@@@",
"@@@@@@@@@@@@@@@@@@@@@@@@@@@@@@@@@@@@@@@@@@@@@@@@@@@@@@@@@@@@@@@@@@@@@@@@@@@@@@@@@@@@@@@@@@@@@@@@@@@@",
"@@@@@@@@@@@@@@@@@@@@@@@@@@@@@@@@@@@@@@@@@@@@@@@@@@@@@@@@@@@@@@@@@@@@@@@@@@@@@@@@@@@@@@@@@@@@@@@@@@@@",
"@@@@@@@@@@@@@@@@@@@@@@@@@@@@@@@@@@@@@@@@@@@@@@@@@@@@@@@@@@@@@@@@@@@@@@@@@@@@@@@@@@@@@@@@@@@@@@@@@@@@",
"@@@@@@@@@@@@@@@@@@@@@@@@@@@@@@@@@@@@@@@@@@@@@@@@@@@@@@@@@@@@@@@@@@@@@@@@@@@@@@@@@@@@@@@@@@@@@@@@@@@@",
"@@@@@@@@@@@@@@@@@@@@@@@@@@@@@@@@@@@@@@@@@@@@@@@@@@@@@@@@@@@@@@@@@@@@@@@@@@@@@@@@@@@@@@@@@@@@@@@@@@@@",
"@@@@@@@@@@@@@@@@@@@@@@@@@@@@@@@@@@@@@@@@@@@@@@@@@@@@@@@@@@@@@@@@@@@@@@@@@@@@@@@@@@@@@@@@@@@@@@@@@@@@",
"@@@@@@@@@@@@@@@@@@@@@@@@@@@@@@@@@@@@@@@@@@@@@@@@@@@@@@@@@@@@@@@@@@@@@@@@@@@@@@@@@@@@@@@@@@@@@@@@@@@@",
"@@@@@@@@@@@@@@@@@@@@@@@@@@@@@@@@@@@@@@@@@@@@@@@@@@@@@@@@@@@@@@@@@@@@@@@@@@@@@@@@@@@@@@@@@@@@@@@@@@@@",
"@@@@@@@@@@@@@@@@@@@@@@@@@@@@@@@@@@@@@@@@@@@@@@@@@@@@@@@@@@@@@@@@@@@@@@@@@@@@@@@@@@@@@@@@@@@@@@@@@@@@",
"@@@@@@@@@@@@@@@@@@@@@@@@@@@@@@@@@@@@@@@@@@@@@@@@@@@@@@@@@@@@@@@@@@@@@@@@@@@@@@@@@@@@@@@@@@@@@@@@@@@@",
"@@@@@@@@@@@@@@@@@@@@@@@@@@@@@@@@@@@@@@@@@@@@@@@@@@@@@@@@@@@@@@@@@@@@@@@@@@@@@@@@@@@@@@@@@@@@@@@@@@@@",
"@@@@@@@@@@@@@@@@@@@@@@@@@@@@@@@@@@@@@@@@@@@@@@@@@@@@@@@@@@@@@@@@@@@@@@@@@@@@@@@@@@@@@@@@@@@@@@@@@@@@",
"@@@@@@@@@@@@@@@@@@@@@@@@@@@@@@@@@@@@@@@@@@@@@@@@@@@@@@@@@@@@@@@@@@@@@@@@@@@@@@@@@@@@@@@@@@@@@@@@@@@@",
"@@@@@@@@@@@@@@@@@@@@@@@@@@@@@@@@@@@@@@@@@@@@@@@@@@@@@@@@@@@@@@@@@@@@@@@@@@@@@@@@@@@@@@@@@@@@@@@@@@@@",
"@@@@@@@@@@@@@@@@@@@@@@@@@@@@@@@@@@@@@@@@@@@@@@@@@@@@@@@@@@@@@@@@@@@@@@@@@@@@@@@@@@@@@@@@@@@@@@@@@@@@",
"@@@@@@@@@@@@@@@@@@@@@@@@@@@@@@@@@@@@@@@@@@@@@@@@@@@@@@@@@@@@@@@@@@@@@@@@@@@@@@@@@@@@@@@@@@@@@@@@@@@@",
"@@@@@@@@@@@@@@@@@@@@@@@@@@@@@@@@@@@@@@@@@@@@@@@@@@@@@@@@@@@@@@@@@@@@@@@@@@@@@@@@@@@@@@@@@@@@@@@@@@@@",
"@@@@@@@@@@@@@@@@@@@@@@@@@@@@@@@@@@@@@@@@@@@@@@@@@@@@@@@@@@@@@@@@@@@@@@@@@@@@@@@@@@@@@@@@@@@@@@@@@@@@",
"@@@@@@@@@@@@@@@@@@@@@@@@@@@@@@@@@@@@@@@@@@@@@@@@@@@@@@@@@@@@@@@@@@@@@@@@@@@@@@@@@@@@@@@@@@@@@@@@@@@@",
"@@@@@@@@@@@@@@@@@@@@@@@@@@@@@@@@@@@@@@@@@@             @@@@@@@@@@@@@@@@@@@@@@@@@@@@@@@@@@@@@@@@@@@@@",
"@@@@@@@@@@@@@@@@@@@@@@@@@@@@@@@@@@@@@@@@@@             @@@@@@@@@@@@@@@@@@@@@@@@@@@@@@@@@@@@@@@@@@@@@",
"@@@@@@@@@@@@@@@@@@@@@@@@@@@@@@@@@@@@@@@@@@             @@@@@@@@@@@@@@@@@@@@@@@@@@@@@@@@@@@@@@@@@@@@@",
"@@@@@@@@@@@@@@@@@@@@@@@@@@@@@@@@@@@       XXXoooooooooo       @@@@@@@@@@@@@@@@@@@@@@@@@@@@@@@@@@@@@@",
"@@@@@@@@@@@@@@@@@@@@@@@@@@@@@@@@@@@       XXXoooooooooo       @@@@@@@@@@@@@@@@@@@@@@@@@@@@@@@@@@@@@@",
"@@@@@@@@@@@@@@@@@@@@@@@@@@@@@@@@@@@       XXXoooooooooo       @@@@@@@@@@@@@@@@@@@@@@@@@@@@@@@@@@@@@@",
"@@@@@@@@@@@@@@@@@@@@@@@@@@@@@      XXXXXXXoooooooooooooooooooo      @@@@@@@@@@@@@@@@@@@@@@@@@@@@@@@@",
"@@@@@@@@@@@@@@@@@@@@@@@@@@@@@      XXXXXXXoooooooooooooooooooo      @@@@@@@@@@@@@@@@@@@@@@@@@@@@@@@@",
"@@@@@@@@@@@@@@@@@@@@@@@@@@@@@      XXXXXXXoooooooooooooooooooo      @@@@@@@@@@@@@@@@@@@@@@@@@@@@@@@@",
"@@@@@@@@@@@@@@@@@@@@@@@@@@   XXXXXXooooooooooXXXXXXXXXXooooooooooooo    @@@@@@@@@@@@@@@@@@@@@@@@@@@@",
"@@@@@@@@@@@@@@@@@@@@@@@@@@   XXXXXXooooooooooXXXXXXXXXXooooooooooooo    @@@@@@@@@@@@@@@@@@@@@@@@@@@@",
"@@@@@@@@@@@@@@@@@@@@@@@@@@   XXXXXXooooooooooXXXXXXXXXXooooooooooooo    @@@@@@@@@@@@@@@@@@@@@@@@@@@@",
"@@@@@@@@@@@@@@@@@@@@@@@@@@   XXXXXXooooooooooXXXXXXXXXXooooooooooooo    @@@@@@@@@@@@@@@@@@@@@@@@@@@@",
"@@@@@@@@@@@@@@@@@@@@@@    XXXXXXoooooooooooooooooXXX...OOOoooooooooooooo   @@@@@@@@@@@@@@@@@@@@@@@@@",
"@@@@@@@@@@@@@@@@@@@@@@    XXXXXXoooooooooooooooooXXX...OOOoooooooooooooo   @@@@@@@@@@@@@@@@@@@@@@@@@",
"@@@@@@@@@@@@@@@@@@@@@@    XXXXXXoooooooooooooooooXXX...OOOoooooooooooooo   @@@@@@@@@@@@@@@@@@@@@@@@@",
"@@@@@@@@@@@@@@@@@@@@@@    XXXooooooooooooooooooooXXX...OOOOOOOooooooooooooo   @@@@@@@@@@@@@@@@@@@@@@",
"@@@@@@@@@@@@@@@@@@@@@@    XXXooooooooooooooooooooXXX...OOOOOOOooooooooooooo   @@@@@@@@@@@@@@@@@@@@@@",
"@@@@@@@@@@@@@@@@@@@@@@    XXXooooooooooooooooooooXXX...OOOOOOOooooooooooooo   @@@@@@@@@@@@@@@@@@@@@@",
"@@@@@@@@@@@@@@@@@@@   XXXXXXXooooooooooooooooooooXXX...OOOOOOO+++oooooooooo   @@@@@@@@@@@@@@@@@@@@@@",
"@@@@@@@@@@@@@@@@@@@   XXXXXXXooooooooooooooooooooXXX...OOOOOOO+++oooooooooo   @@@@@@@@@@@@@@@@@@@@@@",
"@@@@@@@@@@@@@@@@@@@   XXXXXXXooooooooooooooooooooXXX...OOOOOOO+++oooooooooo   @@@@@@@@@@@@@@@@@@@@@@",
"@@@@@@@@@@@@@@@@@@@   XXXXXXXooooooooooooooooooooXXX...OOOOOOO+++oooooooooo   @@@@@@@@@@@@@@@@@@@@@@",
"@@@@@@@@@@@@@@@@@@@   XXXXoooooooooooooooooooooooooo......OOOOOOOOOOoooooooooo   @@@@@@@@@@@@@@@@@@@",
"@@@@@@@@@@@@@@@@@@@   XXXXoooooooooooooooooooooooooo......OOOOOOOOOOoooooooooo   @@@@@@@@@@@@@@@@@@@",
"@@@@@@@@@@@@@@@@@@@   XXXXoooooooooooooooooooooooooo......OOOOOOOOOOoooooooooo   @@@@@@@@@@@@@@@@@@@",
"@@@@@@@@@@@@@@@@   XXXXXXXooooooooooooooooooooooooooooo.............oooooooooo   @@@@@@@@@@@@@@@@@@@",
"@@@@@@@@@@@@@@@@   XXXXXXXooooooooooooooooooooooooooooo.............oooooooooo   @@@@@@@@@@@@@@@@@@@",
"@@@@@@@@@@@@@@@@   XXXXXXXooooooooooooooooooooooooooooo.............oooooooooo   @@@@@@@@@@@@@@@@@@@",
"@@@@@@@@@@@@@@@@   XXXXXXXooooooooooooooooooooooooooooooooooooooooooooooooooooooo    @@@@@@@@@@@@@@@",
"@@@@@@@@@@@@@@@@   XXXXXXXooooooooooooooooooooooooooooooooooooooooooooooooooooooo    @@@@@@@@@@@@@@@",
"@@@@@@@@@@@@@@@@   XXXXXXXooooooooooooooooooooooooooooooooooooooooooooooooooooooo    @@@@@@@@@@@@@@@",
"@@@@@@@@@@@@@@@@   XXXoooooooooooooooooooooooooooooooooooooooooooooooooooooXXXXXX    @@@@@@@@@@@@@@@",
"@@@@@@@@@@@@@@@@   XXXoooooooooooooooooooooooooooooooooooooooooooooooooooooXXXXXX    @@@@@@@@@@@@@@@",
"@@@@@@@@@@@@@@@@   XXXoooooooooooooooooooooooooooooooooooooooooooooooooooooXXXXXX    @@@@@@@@@@@@@@@",
"@@@@@@@@@@@@@@@@   XXXoooooooooooooooooooooooooooooooooooooooooooooooooooooXXXXXX    @@@@@@@@@@@@@@@",
"@@@@@@@@@@@@    XXXXXXooooooooooooooooooooooooooooooooooooXXXXXXXoooooooXXXXXXXXXXXXX   @@@@@@@@@@@@",
"@@@@@@@@@@@@    XXXXXXooooooooooooooooooooooooooooooooooooXXXXXXXoooooooXXXXXXXXXXXXX   @@@@@@@@@@@@",
"@@@@@@@@@@@@    XXXXXXooooooooooooooooooooooooooooooooooooXXXXXXXoooooooXXXXXXXXXXXXX   @@@@@@@@@@@@",
"@@@@@@@@@@@@    XXXXXXoooooooooooooooooooooooooooooooooXXXXXXXXXXoooooooXXXXXXXXXXXXX   @@@@@@@@@@@@",
"@@@@@@@@@@@@    XXXXXXoooooooooooooooooooooooooooooooooXXXXXXXXXXoooooooXXXXXXXXXXXXX   @@@@@@@@@@@@",
"@@@@@@@@@@@@    XXXXXXoooooooooooooooooooooooooooooooooXXXXXXXXXXoooooooXXXXXXXXXXXXX   @@@@@@@@@@@@",
"@@@@@@@@@@@@    XXXXXXoooooooooooooooooooooooooooooooooXXXXXXXXXXoooXXXXXXXXXXooooooo   @@@@@@@@@@@@",
"@@@@@@@@@@@@    XXXXXXoooooooooooooooooooooooooooooooooXXXXXXXXXXoooXXXXXXXXXXooooooo   @@@@@@@@@@@@",
"@@@@@@@@@@@@    XXXXXXoooooooooooooooooooooooooooooooooXXXXXXXXXXoooXXXXXXXXXXooooooo   @@@@@@@@@@@@",
"@@@@@@@@@@@@    XXXXXXoooooooooooooooooooooooooooooooooXXXXXXXXXXoooXXXXXXXXXXooooooo   @@@@@@@@@@@@",
"@@@@@@@@@   XXXXXXXooooooooooooooooooooooooooooooXXXoooXXXXXXXXXXoooXXXXoooooooooooooooo   @@@@@@@@@",
"@@@@@@@@@   XXXXXXXooooooooooooooooooooooooooooooXXXoooXXXXXXXXXXoooXXXXoooooooooooooooo   @@@@@@@@@",
"@@@@@@@@@   XXXXXXXooooooooooooooooooooooooooooooXXXoooXXXXXXXXXXoooXXXXoooooooooooooooo   @@@@@@@@@",
"@@@@@@@@@   XXXXXXXooooooooooooooooooooooooooXXXXXXXoooXXXXXXXoooooooooooooooooooooooooo   @@@@@@@@@",
"@@@@@@@@@   XXXXXXXooooooooooooooooooooooooooXXXXXXXoooXXXXXXXoooooooooooooooooooooooooo   @@@@@@@@@",
"@@@@@@@@@   XXXXXXXooooooooooooooooooooooooooXXXXXXXoooXXXXXXXoooooooooooooooooooooooooo   @@@@@@@@@",
"@@@@@@@@@   XXXXXXXXXXoooooooooooooooooooooooooooooooooooooooooooooooooooooooooooooooooo   @@@@@@@@@",
"@@@@@@@@@   XXXXXXXXXXoooooooooooooooooooooooooooooooooooooooooooooooooooooooooooooooooo   @@@@@@@@@",
"@@@@@@@@@   XXXXXXXXXXoooooooooooooooooooooooooooooooooooooooooooooooooooooooooooooooooo   @@@@@@@@@",
"@@@@@@@@@   XXXXXXXXXXXXXXXXXooooooooooooooooooooooooooooooooooooooooooooooooooooooooooo   @@@@@@@@@",
"@@@@@@@@@   XXXXXXXXXXXXXXXXXooooooooooooooooooooooooooooooooooooooooooooooooooooooooooo   @@@@@@@@@",
"@@@@@@@@@   XXXXXXXXXXXXXXXXXooooooooooooooooooooooooooooooooooooooooooooooooooooooooooo   @@@@@@@@@",
"@@@@@@@@@   XXXXXXXXXXXXXXXXXooooooooooooooooooooooooooooooooooooooooooooooooooooooooooo   @@@@@@@@@",
"@@@@@@@@@                                                                               @@@@@@@@@@@@",
"@@@@@@@@@                                                                               @@@@@@@@@@@@",
"@@@@@@@@@                                                                               @@@@@@@@@@@@"
};
