/* XPM */
static char *monster_11[] = {
/* columns rows colors chars-per-pixel */
"100 100 7 1 ",
"  c #386D00",
". c #DB4161",
"X c #51A200",
"o c #71F341",
"O c #FF61B2",
"+ c white",
"@ c None",
/* pixels */
"@@@@@@@@@@@@@@@@@@@@@@@@@@@@@@@@@@@@@@@@@@@@@@@@@@@@@@@@@@@@@@@@@@@@@@@@@@@@@@@@@@@@@@@@@@@@@@@@@@@@",
"@@@@@@@@@@@@@@@@@@@@@@@@@@@@@@@@@@@@@@@@@@@@@@@@@@@@@@@@@@@@@@@@@@@@@@@@@@@@@@@@@@@@@@@@@@@@@@@@@@@@",
"@@@@@@@@@@@@@@@@@@@@@@@@@@@@@@@@@@@@@@@@@@@@@@@@@@@@@@@@@@@@@@@@@@@@@@@@@@@@@@@@@@@@@@@@@@@@@@@@@@@@",
"@@@@@@@@@@@@@@@@@@@@@@@@@@@@@@@@@@@@@@@@@@@@@@@@@@@@@@@@@@@@@@@@@@@@@@@@@@@@@@@@@@@@@@@@@@@@@@@@@@@@",
"@@@@@@@@@@@@@@@@@@@@@@@@@@@@@@@@@@@@@@@@@@@@@@@@@@@@@@@@@@@@@@@@@@@@@@@@@@@@@@@@@@@@@@@@@@@@@@@@@@@@",
"@@@@@@@@@@@@@@@@@@@@@@@@@@@@@@@@@@@@@@@@@@@@@@@@@@@@@@@@@@@@@@@@@@@@@@@@@@@@@@@@@@@@@@@@@@@@@@@@@@@@",
"@@@@@@@@@@@@@@@@@@@@@@@@@@@@@@@@@@@@@@@@@@@@@@@@@@@@@@@@@@@@@@@@@@@@@@@@@@@@@@@@@@@@@@@@@@@@@@@@@@@@",
"@@@@@@@@@@@@@@@@@@@@@@@@@@@@@@@@@@@@@@@@@@@@@@@@@@@@@@@@@@@@@@@@@@@@@@@@@@@@@@@@@@@@@@@@@@@@@@@@@@@@",
"@@@@@@@@@@@@@@@@@@@@@@@@@@@@@@@@@@@@@@@@@@@@@@@@@@@@@@@@@@@@@@@@@@@@@@@@@@@@@@@@@@@@@@@@@@@@@@@@@@@@",
"@@@@@@@@@@@@@@@@@@@@@@@@@@@@@@@@@@@@@@@@@@@@@@@@@@@@@@@@@@@@@@@@@@@@@@@@@@@@@@@@@@@@@@@@@@@@@@@@@@@@",
"@@@@@@@@@@@@@@@@@@@@@@@@@@@@@@@@@@@@@@@@@@@@@@@@@@@@@@@@@@@@@@@@@@@@@@@@@@@@@@@@@@@@@@@@@@@@@@@@@@@@",
"@@@@@@@@@@@@@@@@@@@@@@@@@@@@@@@@@@@@@@@@@@@@@@@@@@@@@@@@@@@@@@@@@@@@@@@@@@@@@@@@@@@@@@@@@@@@@@@@@@@@",
"@@@@@@@@@@@@@@@@@@@@@@@@@@@@@@@@@@@@@@@@@@@@@@@@@@@@@@@@@@@@@@@@@@@@@@@@@@@@@@@@@@@@@@@@@@@@@@@@@@@@",
"@@@@@@@@@@@@@@@@@@@@@@@@@@@@@@@@@@@@@@@@@@@@@@@@@@@@@@@@@@@@@@@@@@@@@@@@@@@@@@@@@@@@@@@@@@@@@@@@@@@@",
"@@@@@@@@@@@@@@@@@@@@@@@@@@@@@@@@@@@@@@@@@@@@@@@@@@@@@@@@@@@@@@@@@@@@@@@@@@@@@@@@@@@@@@@@@@@@@@@@@@@@",
"@@@@@@@@@@@@@@@@@@@@@@@@@@@@@@@@@@@@@@@@@@@@@@@@@@@@@@@@@@@@@@@@@@@@@@@@@@@@@@@@@@@@@@@@@@@@@@@@@@@@",
"@@@@@@@@@@@@@@@@@@@@@@@@@@@@@@@@@@@@@@@@@@@@@@@@@@@@@@@@@@@@@@@@@@@@@@@@@@@@@@@@@@@@@@@@@@@@@@@@@@@@",
"@@@@@@@@@@@@@@@@@@@@@@@@@@@@@@@@@@@@@@@@@@@@@@@@@@@@@@@@@@@@@@@@@@@@@@@@@@@@@@@@@@@@@@@@@@@@@@@@@@@@",
"@@@@@@@@@@@@@@@@@@@@@@@@@@@@@@@@@@@@@@@@@@@@@@@@@@@@@@@@@@@@@@@@@@@@@@@@@@@@@@@@@@@@@@@@@@@@@@@@@@@@",
"@@@@@@@@@@@@@@@@@@@@@@@@@@@@@@@@@@@@@@@@@@@@@@@@@@@@@@@@@@@@@@@@@@@@@@@@@@@@@@@@@@@@@@@@@@@@@@@@@@@@",
"@@@@@@@@@@@@@@@@@@@@@@@@@@@@@@@@@@@@@@@@@@@@@@@@@@@@@@@@@@@@@@@@@@@@@@@@@@@@@@@@@@@@@@@@@@@@@@@@@@@@",
"@@@@@@@@@@@@@@@@@@@@@@@@@@@@@@@@@@@@@@@@@@@@@@@@@@@@@@@@@@@@@@@@@@@@@@@@@@@@@@@@@@@@@@@@@@@@@@@@@@@@",
"@@@@@@@@@@@@@@@@@@@@@@@@@@@@@@@@@@@@@@@@@@@@@@@@@@@@@@@@@@@@@@@@@@@@@@@@@@@@@@@@@@@@@@@@@@@@@@@@@@@@",
"@@@@@@@@@@@@@@@@@@@@@@@@@@@@@@@@@@@@@@@@@@@@@@@@@@@@@@@@@@@@@@@@@@@@@@@@@@@@@@@@@@@@@@@@@@@@@@@@@@@@",
"@@@@@@@@@@@@@@@@@@@@@@@@@@@@@@@@@@@@@@@@@@@@@@@@@@@@@@@@@@@@@@@@@@@@@@@@@@@@@@@@@@@@@@@@@@@@@@@@@@@@",
"@@@@@@@@@@@@@@@@@@@@@@@@@@@@@@@@@@@@@@@@@@@@@@@@@@@@@@@@@@@@@@@@@@@@@@@@@@@@@@@@@@@@@@@@@@@@@@@@@@@@",
"@@@@@@@@@@@@@@@@@@@@@@@@@@@@@@@@@@@@@@@@@@@@@@@@@@@@@@@@@@@@@@@@@@@@@@@@@@@@@@@@@@@@@@@@@@@@@@@@@@@@",
"@@@@@@@@@@@@@@@@@@@@@@@@@@@@@@@@@@@@@@@@@@@@@@@@@@@@@@@@@@@@@@@@@@@@@@@@@@@@@@@@@@@@@@@@@@@@@@@@@@@@",
"@@@@@@@@@@@@@@@@@@@@@@@@@@@@@@@@@@@@@@@@@@@@@@@@@@@@@@@@@@@@@@@@@@@@@@@@@@@@@@@@@@@@@@@@@@@@@@@@@@@@",
"@@@@@@@@@@@@@@@@@@@@@@@@@@@@@@@@@@@@@@@@@@@@@@@@@@@@@@@@@@@@@@@@@@@@@@@@@@@@@@@@@@@@@@@@@@@@@@@@@@@@",
"@@@@@@@@@@@@@@@@@@@@@@@@@@@@@@@@@@@@@@@@@@@@@@@@@@@@@@@@@@@@@@@@@@@@@@@@@@@@@@@@@@@@@@@@@@@@@@@@@@@@",
"@@@@@@@@@@@@@@@@@@@@@@@@@@@@@@@@@@@@@@@@@@@@@@@@@@@@@@@@@@@@@@@@@@@@@@@@@@@@@@@@@@@@@@@@@@@@@@@@@@@@",
"@@@@@@@@@@@@@@@@@@@@@@@@@@@@@@@@@@@@@@@@@@@@@@@@@@@@@@@@@@@@@@@@@@@@@@@@@@@@@@@@@@@@@@@@@@@@@@@@@@@@",
"@@@@@@@@@@@@@@@@@@@@@@@@@@@@@@@@@@@@@@@@@@@@@@@@@@@@@@@@@@@@@@@@@@@@@@@@@@@@@@@@@@@@@@@@@@@@@@@@@@@@",
"@@@@@@@@@@@@@@@@@@@@@@@@@@@@@@@@@@@@@@@@@@@@@@@@@@@@@@@@@@@@@@@@@@@@@@@@@@@@@@@@@@@@@@@@@@@@@@@@@@@@",
"@@@@@@@@@@@@@@@@@@@@@@@@@@@@@@@@@@@@@@@@@@@@@@@@@@@@@@@@@@@@@@@@@@@@@@@@@@@@@@@@@@@@@@@@@@@@@@@@@@@@",
"@@@@@@@@@@@@@@@@@@@@@@@@@@@@@@@@@@@@@@@@@@@@@@@@@@@@@@@@@@@@@@@@@@@@@@@@@@@@@@@@@@@@@@@@@@@@@@@@@@@@",
"@@@@@@@@@@@@@@@@@@@@@@@@@@@@@@@@@@@@@@@@@@@@@@@@@@@@@@@@@@@@@@@@@@@@@@@@@@@@@@@@@@@@@@@@@@@@@@@@@@@@",
"@@@@@@@@@@@@@@@@@@@@@@@@@@@@@@@@@@@@@@@@@@@@@             @@@@@@@@@@@@@@@@@@@@@@@@@@@@@@@@@@@@@@@@@@",
"@@@@@@@@@@@@@@@@@@@@@@@@@@@@@@@@@@@@@@@@@@@@@             @@@@@@@@@@@@@@@@@@@@@@@@@@@@@@@@@@@@@@@@@@",
"@@@@@@@@@@@@@@@@@@@@@@@@@@@@@@@@@@@@@@@@@@@@@             @@@@@@@@@@@@@@@@@@@@@@@@@@@@@@@@@@@@@@@@@@",
"@@@@@@@@@@@@@@@@@@@@@@@@@@@@@@@@@@@@@@       ooooooooooXXX       @@@@@@@@@@@@@@@@@@@@@@@@@@@@@@@@@@@",
"@@@@@@@@@@@@@@@@@@@@@@@@@@@@@@@@@@@@@@       ooooooooooXXX       @@@@@@@@@@@@@@@@@@@@@@@@@@@@@@@@@@@",
"@@@@@@@@@@@@@@@@@@@@@@@@@@@@@@@@@@@@@@       ooooooooooXXX       @@@@@@@@@@@@@@@@@@@@@@@@@@@@@@@@@@@",
"@@@@@@@@@@@@@@@@@@@@@@@@@@@@@@@@      ooooooooooooooooooooXXXXXXX      @@@@@@@@@@@@@@@@@@@@@@@@@@@@@",
"@@@@@@@@@@@@@@@@@@@@@@@@@@@@@@@@      ooooooooooooooooooooXXXXXXX      @@@@@@@@@@@@@@@@@@@@@@@@@@@@@",
"@@@@@@@@@@@@@@@@@@@@@@@@@@@@@@@@      ooooooooooooooooooooXXXXXXX      @@@@@@@@@@@@@@@@@@@@@@@@@@@@@",
"@@@@@@@@@@@@@@@@@@@@@@@@@@@@    oooooooooooooXXXXXXXXXXooooooooooXXXXXX   @@@@@@@@@@@@@@@@@@@@@@@@@@",
"@@@@@@@@@@@@@@@@@@@@@@@@@@@@    oooooooooooooXXXXXXXXXXooooooooooXXXXXX   @@@@@@@@@@@@@@@@@@@@@@@@@@",
"@@@@@@@@@@@@@@@@@@@@@@@@@@@@    oooooooooooooXXXXXXXXXXooooooooooXXXXXX   @@@@@@@@@@@@@@@@@@@@@@@@@@",
"@@@@@@@@@@@@@@@@@@@@@@@@@@@@    oooooooooooooXXXXXXXXXXooooooooooXXXXXX   @@@@@@@@@@@@@@@@@@@@@@@@@@",
"@@@@@@@@@@@@@@@@@@@@@@@@@   ooooooooooooooOOO...XXXoooooooooooooooooXXXXXX    @@@@@@@@@@@@@@@@@@@@@@",
"@@@@@@@@@@@@@@@@@@@@@@@@@   ooooooooooooooOOO...XXXoooooooooooooooooXXXXXX    @@@@@@@@@@@@@@@@@@@@@@",
"@@@@@@@@@@@@@@@@@@@@@@@@@   ooooooooooooooOOO...XXXoooooooooooooooooXXXXXX    @@@@@@@@@@@@@@@@@@@@@@",
"@@@@@@@@@@@@@@@@@@@@@@   oooooooooooooOOOOOOO...XXXooooooooooooooooooooXXX    @@@@@@@@@@@@@@@@@@@@@@",
"@@@@@@@@@@@@@@@@@@@@@@   oooooooooooooOOOOOOO...XXXooooooooooooooooooooXXX    @@@@@@@@@@@@@@@@@@@@@@",
"@@@@@@@@@@@@@@@@@@@@@@   oooooooooooooOOOOOOO...XXXooooooooooooooooooooXXX    @@@@@@@@@@@@@@@@@@@@@@",
"@@@@@@@@@@@@@@@@@@@@@@   oooooooooo+++OOOOOOO...XXXooooooooooooooooooooXXXXXXX   @@@@@@@@@@@@@@@@@@@",
"@@@@@@@@@@@@@@@@@@@@@@   oooooooooo+++OOOOOOO...XXXooooooooooooooooooooXXXXXXX   @@@@@@@@@@@@@@@@@@@",
"@@@@@@@@@@@@@@@@@@@@@@   oooooooooo+++OOOOOOO...XXXooooooooooooooooooooXXXXXXX   @@@@@@@@@@@@@@@@@@@",
"@@@@@@@@@@@@@@@@@@@@@@   oooooooooo+++OOOOOOO...XXXooooooooooooooooooooXXXXXXX   @@@@@@@@@@@@@@@@@@@",
"@@@@@@@@@@@@@@@@@@@   ooooooooooOOOOOOOOOO......ooooooooooooooooooooooooooXXXX   @@@@@@@@@@@@@@@@@@@",
"@@@@@@@@@@@@@@@@@@@   ooooooooooOOOOOOOOOO......ooooooooooooooooooooooooooXXXX   @@@@@@@@@@@@@@@@@@@",
"@@@@@@@@@@@@@@@@@@@   ooooooooooOOOOOOOOOO......ooooooooooooooooooooooooooXXXX   @@@@@@@@@@@@@@@@@@@",
"@@@@@@@@@@@@@@@@@@@   oooooooooo.............oooooooooooooooooooooooooooooXXXXXXX   @@@@@@@@@@@@@@@@",
"@@@@@@@@@@@@@@@@@@@   oooooooooo.............oooooooooooooooooooooooooooooXXXXXXX   @@@@@@@@@@@@@@@@",
"@@@@@@@@@@@@@@@@@@@   oooooooooo.............oooooooooooooooooooooooooooooXXXXXXX   @@@@@@@@@@@@@@@@",
"@@@@@@@@@@@@@@@    oooooooooooooooooooooooooooooooooooooooooooooooooooooooXXXXXXX   @@@@@@@@@@@@@@@@",
"@@@@@@@@@@@@@@@    oooooooooooooooooooooooooooooooooooooooooooooooooooooooXXXXXXX   @@@@@@@@@@@@@@@@",
"@@@@@@@@@@@@@@@    oooooooooooooooooooooooooooooooooooooooooooooooooooooooXXXXXXX   @@@@@@@@@@@@@@@@",
"@@@@@@@@@@@@@@@    XXXXXXoooooooooooooooooooooooooooooooooooooooooooooooooooooXXX   @@@@@@@@@@@@@@@@",
"@@@@@@@@@@@@@@@    XXXXXXoooooooooooooooooooooooooooooooooooooooooooooooooooooXXX   @@@@@@@@@@@@@@@@",
"@@@@@@@@@@@@@@@    XXXXXXoooooooooooooooooooooooooooooooooooooooooooooooooooooXXX   @@@@@@@@@@@@@@@@",
"@@@@@@@@@@@@@@@    XXXXXXoooooooooooooooooooooooooooooooooooooooooooooooooooooXXX   @@@@@@@@@@@@@@@@",
"@@@@@@@@@@@@   XXXXXXXXXXXXXoooooooXXXXXXXooooooooooooooooooooooooooooooooooooXXXXXX    @@@@@@@@@@@@",
"@@@@@@@@@@@@   XXXXXXXXXXXXXoooooooXXXXXXXooooooooooooooooooooooooooooooooooooXXXXXX    @@@@@@@@@@@@",
"@@@@@@@@@@@@   XXXXXXXXXXXXXoooooooXXXXXXXooooooooooooooooooooooooooooooooooooXXXXXX    @@@@@@@@@@@@",
"@@@@@@@@@@@@   XXXXXXXXXXXXXoooooooXXXXXXXXXXoooooooooooooooooooooooooooooooooXXXXXX    @@@@@@@@@@@@",
"@@@@@@@@@@@@   XXXXXXXXXXXXXoooooooXXXXXXXXXXoooooooooooooooooooooooooooooooooXXXXXX    @@@@@@@@@@@@",
"@@@@@@@@@@@@   XXXXXXXXXXXXXoooooooXXXXXXXXXXoooooooooooooooooooooooooooooooooXXXXXX    @@@@@@@@@@@@",
"@@@@@@@@@@@@   oooooooXXXXXXXXXXoooXXXXXXXXXXoooooooooooooooooooooooooooooooooXXXXXX    @@@@@@@@@@@@",
"@@@@@@@@@@@@   oooooooXXXXXXXXXXoooXXXXXXXXXXoooooooooooooooooooooooooooooooooXXXXXX    @@@@@@@@@@@@",
"@@@@@@@@@@@@   oooooooXXXXXXXXXXoooXXXXXXXXXXoooooooooooooooooooooooooooooooooXXXXXX    @@@@@@@@@@@@",
"@@@@@@@@@@@@   oooooooXXXXXXXXXXoooXXXXXXXXXXoooooooooooooooooooooooooooooooooXXXXXX    @@@@@@@@@@@@",
"@@@@@@@@@   ooooooooooooooooXXXXoooXXXXXXXXXXoooXXXooooooooooooooooooooooooooooooXXXXXXX   @@@@@@@@@",
"@@@@@@@@@   ooooooooooooooooXXXXoooXXXXXXXXXXoooXXXooooooooooooooooooooooooooooooXXXXXXX   @@@@@@@@@",
"@@@@@@@@@   ooooooooooooooooXXXXoooXXXXXXXXXXoooXXXooooooooooooooooooooooooooooooXXXXXXX   @@@@@@@@@",
"@@@@@@@@@   ooooooooooooooooooooooooooXXXXXXXoooXXXXXXXooooooooooooooooooooooooooXXXXXXX   @@@@@@@@@",
"@@@@@@@@@   ooooooooooooooooooooooooooXXXXXXXoooXXXXXXXooooooooooooooooooooooooooXXXXXXX   @@@@@@@@@",
"@@@@@@@@@   ooooooooooooooooooooooooooXXXXXXXoooXXXXXXXooooooooooooooooooooooooooXXXXXXX   @@@@@@@@@",
"@@@@@@@@@   ooooooooooooooooooooooooooooooooooooooooooooooooooooooooooooooooooXXXXXXXXXX   @@@@@@@@@",
"@@@@@@@@@   ooooooooooooooooooooooooooooooooooooooooooooooooooooooooooooooooooXXXXXXXXXX   @@@@@@@@@",
"@@@@@@@@@   ooooooooooooooooooooooooooooooooooooooooooooooooooooooooooooooooooXXXXXXXXXX   @@@@@@@@@",
"@@@@@@@@@   oooooooooooooooooooooooooooooooooooooooooooooooooooooooooooXXXXXXXXXXXXXXXXX   @@@@@@@@@",
"@@@@@@@@@   oooooooooooooooooooooooooooooooooooooooooooooooooooooooooooXXXXXXXXXXXXXXXXX   @@@@@@@@@",
"@@@@@@@@@   oooooooooooooooooooooooooooooooooooooooooooooooooooooooooooXXXXXXXXXXXXXXXXX   @@@@@@@@@",
"@@@@@@@@@   oooooooooooooooooooooooooooooooooooooooooooooooooooooooooooXXXXXXXXXXXXXXXXX   @@@@@@@@@",
"@@@@@@@@@@@@                                                                               @@@@@@@@@",
"@@@@@@@@@@@@                                                                               @@@@@@@@@",
"@@@@@@@@@@@@                                                                               @@@@@@@@@"
};
