/* XPM */
static char *other_5[] = {
/* columns rows colors chars-per-pixel */
"40 40 83 1 ",
"  c black",
". c #941102",
"X c #971202",
"o c #971203",
"O c #991200",
"+ c #991201",
"@ c #9A1200",
"# c #9A1201",
"$ c #9B1201",
"% c #981203",
"& c #991205",
"* c #9B130A",
"= c #9D130A",
"- c #9E130A",
"; c #9E130D",
": c #9F130D",
"> c #9E130F",
", c #9F130F",
"< c #9F1310",
"1 c #A11410",
"2 c #A11411",
"3 c #A21412",
"4 c #A31412",
"5 c #D91E02",
"6 c #DE1F02",
"7 c #DF2002",
"8 c #E02002",
"9 c #E02003",
"0 c #FE2502",
"q c #FF2602",
"w c #FF2603",
"e c #F82404",
"r c #FB2504",
"t c #FE2611",
"y c #FA2727",
"u c #FC2627",
"i c #FD2627",
"p c #FE2627",
"a c #F82728",
"s c #FD2728",
"d c #FE2628",
"f c #FC2F31",
"g c #FC3030",
"h c #FF3134",
"j c #FD3335",
"k c #F54748",
"l c #F74849",
"z c #FB4848",
"x c #FB4849",
"c c #F9494B",
"v c #FA494B",
"b c #FB4A4A",
"n c #FC4949",
"m c #FE494A",
"M c #FE494B",
"N c #FF494B",
"B c #FD4A4A",
"V c #FF4A4B",
"C c #FB4A4C",
"Z c #FD494C",
"A c #FF4A4C",
"S c #FC4D4E",
"D c #FC4D4F",
"F c #FF5656",
"G c #FF5757",
"H c #FA9492",
"J c #FC9594",
"K c #FE9595",
"L c #FD9795",
"P c #FE9695",
"I c #FF9696",
"U c #FF9796",
"Y c #FF9797",
"T c #FF9D9D",
"R c #FD9E9C",
"E c #FF9F9E",
"W c #FAD7BC",
"Q c #FCD7BD",
"! c #FED9C0",
"~ c #FFDAC0",
"^ c #FFDAC1",
"/ c #FFDDC5",
"( c None",
/* pixels */
"((((((((((((((((((((((((((((((((((((((((",
"((((((((((((((((((((((((((((((((((((((((",
"((((((((((((((((((((((((((((((((((((((((",
"((((((((((((((((((((((((((((((((((((((((",
"((((((((((((((((((((((((((((((((((((((((",
"((((((((((((((((((((((((((((((((((((((((",
"((((((((((((((((((((((((((((((((((((((((",
"((((((((((((((((((((((((((((((((((((((((",
"((((((((((        ((((        ((((((((((",
"(((((((((( @$$$$$ (((( $$$@$@ ((((((((((",
"((((((((   $;$$$$      $$@;@$   ((((((((",
"(((((((( @@HYYYMV$<  $$YYRYAA@$ ((((((((",
"((((((   @-YYYYVc;$  $$RRYYMA@-   ((((((",
"(((((( $@gdAMYYQQVA$$AxcMYY^^zx@@ ((((((",
"(((((( @$ddMMYY/QMA$$VAMMYY^WMA@$ ((((((",
"(((((( @@97dpMkMAYYYYAAAVMMGxdd@@ ((((((",
"(((((( @$88pdMAAAYYLYMMVMMMMAdp@@ ((((((",
"(((((( $$88eqpdAAASFMAMVMVMpsqq@& ((((((",
"(((((( @$86t0pdAVVcVVMMMAMVpdqq;@ ((((((",
"((((((   @>660qdagsMMAMkAasqq@3   ((((((",
"(((((((( 4$88qqdjsdMMMCMAddwqo@ ((((((((",
"((((((((   $@89qqsdpdgyddww@@   ((((((((",
"(((((((((( $@89wqddpdsddpqw@@ ((((((((((",
"((((((((((   3@98qqqqqqqq@.   ((((((((((",
"(((((((((((( @$99weqqqqwq<@ ((((((((((((",
"((((((((((((   @@56qwww$*   ((((((((((((",
"(((((((((((((( @&69wwqw.@ ((((((((((((((",
"((((((((((((((   @@97@@   ((((((((((((((",
"(((((((((((((((( @@97@@ ((((((((((((((((",
"((((((((((((((((   @@   ((((((((((((((((",
"(((((((((((((((((( 4@ ((((((((((((((((((",
"((((((((((((((((((    ((((((((((((((((((",
"((((((((((((((((((((((((((((((((((((((((",
"((((((((((((((((((((((((((((((((((((((((",
"((((((((((((((((((((((((((((((((((((((((",
"((((((((((((((((((((((((((((((((((((((((",
"((((((((((((((((((((((((((((((((((((((((",
"((((((((((((((((((((((((((((((((((((((((",
"((((((((((((((((((((((((((((((((((((((((",
"(((((((((((((((((((((((((((((((((((((((("
};
