/* XPM */
static char *other_6[] = {
/* columns rows colors chars-per-pixel */
"40 40 24 1 ",
"  c black",
". c #1B1B1B",
"X c gray11",
"o c #1D1D1D",
"O c gray13",
"+ c #222222",
"@ c #272727",
"# c #282828",
"$ c gray16",
"% c #2A2A2A",
"& c gray17",
"* c #2C2C2C",
"= c #2D2D2D",
"- c gray18",
"; c #2F2F2F",
": c gray19",
"> c #313131",
", c #323232",
"< c gray20",
"1 c #353535",
"2 c gray21",
"3 c #373737",
"4 c gray26",
"5 c None",
/* pixels */
"5555555555555555555555555555555555555555",
"5555555555555555555555555555555555555555",
"5555555555555555555555555555555555555555",
"5555555555555555555555555555555555555555",
"5555555555555555555555555555555555555555",
"5555555555555555555555555555555555555555",
"5555555555555555555555555555555555555555",
"5555555555555555555555555555555555555555",
"5555555555        5555        5555555555",
"5555555555 333333 5555 333333 5555555555",
"55555555  .333333.    .333333.  55555555",
"55555555 33++++&&33@@33++++&&33 55555555",
"555555  .33++++&&334333++++&&33.  555555",
"555555 33==&&++XX&&33&==&++..&&33 555555",
"555555 33==&&++.X&&33&&&&++.X&&33 555555",
"555555 33<<==&&&&++X+&@&@&&@&=&33 555555",
"555555 33<<==&&&&++++&@&@&&&&=<33 555555",
"555555 33<<<==&&&&&@&&&&&&&====33 555555",
"555555 33<<=<==&&&&&&@&&@&&===<33 555555",
"555555  .33<<<<==&=@&&@&&===<33.  555555",
"55555555 33<<=<=&==&&&&&&====33 55555555",
"55555555  .33<<=<======<==<33.  55555555",
"5555555555 33<3==========<<33 5555555555",
"5555555555  .33<3=<<<=<=<33.  5555555555",
"555555555555 33<<<<=<=<==33 555555555555",
"555555555555  .33<<<=<=33.  555555555555",
"55555555555555 33<<=<=<33 55555555555555",
"55555555555555  .33<<33.  55555555555555",
"5555555555555555 33<<33 5555555555555555",
"5555555555555555  .33.  5555555555555555",
"555555555555555555 33 555555555555555555",
"555555555555555555    555555555555555555",
"5555555555555555555555555555555555555555",
"5555555555555555555555555555555555555555",
"5555555555555555555555555555555555555555",
"5555555555555555555555555555555555555555",
"5555555555555555555555555555555555555555",
"5555555555555555555555555555555555555555",
"5555555555555555555555555555555555555555",
"5555555555555555555555555555555555555555"
};
