/* XPM */
static char *other_0[] = {
/* columns rows colors chars-per-pixel */
"100 100 10 1 ",
"  c gray4",
". c #130F0F",
"X c #100E10",
"o c #161011",
"O c #221B1A",
"+ c #312B28",
"@ c #413736",
"# c #423D39",
"$ c #55524C",
"% c None",
/* pixels */
"%%%%%%                %%%%%%             %%%%%%                      %%%                      %%%%%%",
"%%%%%%                %%%%%%             %%%%%%                      %%%                      %%%%%%",
"%%%%%%                %%%%%%             %%%%%%                      %%%                      %%%%%%",
"%%%   +++###$$$$$$$$$$      +++$$$$$$$$$$      +++###$$$$$$$$$$$$$$$$   +++$$$$$$######$$$$$$$   %%%",
"%%%   +++###$$$$$$$$$$      +++$$$$$$$$$$      +++###$$$$$$$$$$$$$$$$   +++$$$$$$######$$$$$$$   %%%",
"%%%   +++###$$$$$$$$$$      +++$$$$$$$$$$      +++###$$$$$$$$$$$$$$$$   +++$$$$$$######$$$$$$$   %%%",
"   +++###$$$$$$$$$$###+++###$$$$$$$$$#######+++###$$$$$$######$$$$##################$$$$$$$######   ",
"   +++###$$$$$$$$$$###+++###$$$$$$$$$#######+++###$$$$$$######$$$$##################$$$$$$$######   ",
"   +++###$$$$$$$$$$###+++###$$$$$$$$$#######+++###$$$$$$######$$$$##################$$$$$$$######   ",
"   OOO+++###$$$$$$$OOOOOO+++###$$$$$$++++++++++######$$$OOO+++####++++++++++++OOO+++###$$$$++++++   ",
"   OOO+++###$$$$$$$OOOOOO+++###$$$$$$++++++++++######$$$OOO+++####++++++++++++OOO+++###$$$$++++++   ",
"   OOO+++###$$$$$$$OOOOOO+++###$$$$$$++++++++++######$$$OOO+++####++++++++++++OOO+++###$$$$++++++   ",
"   OOO+++###$$$$###OOOOOOOOO+++######OOOOXXXOOO+++######OOOOOO++++OOOOOOXXXXXXXXXOOO+++####OOO   %%%",
"   OOO+++###$$$$###OOOOOOOOO+++######OOOOXXXOOO+++######OOOOOO++++OOOOOOXXXXXXXXXOOO+++####OOO   %%%",
"   OOO+++###$$$$###OOOOOOOOO+++######OOOOXXXOOO+++######OOOOOO++++OOOOOOXXXXXXXXXOOO+++####OOO   %%%",
"   OOO+++###$$$$###OOOOOOOOO+++######OOOOXXXOOO+++######OOOOOO++++OOOOOOXXXXXXXXXOOO+++####OOO   %%%",
"%%%   XXX+++####+++XXXXXXOOO+++###+++XXXXXXXXXXOOO++++++OOOXXXXXXX............XXXXXXOOOOOOOooo   %%%",
"%%%   XXX+++####+++XXXXXXOOO+++###+++XXXXXXXXXXOOO++++++OOOXXXXXXX............XXXXXXOOOOOOOooo   %%%",
"%%%   XXX+++####+++XXXXXXOOO+++###+++XXXXXXXXXXOOO++++++OOOXXXXXXX............XXXXXXOOOOOOOooo   %%%",
"%%%   XXXOOO++++XXX...XXXXXXOOO+++XXXoooooooXXXXXXOOOOOOXXXooo....+++++++++......XXXXXX+++++++   %%%",
"%%%   XXXOOO++++XXX...XXXXXXOOO+++XXXoooooooXXXXXXOOOOOOXXXooo....+++++++++......XXXXXX+++++++   %%%",
"%%%   XXXOOO++++XXX...XXXXXXOOO+++XXXoooooooXXXXXXOOOOOOXXXooo....+++++++++......XXXXXX+++++++   %%%",
"%%%   XXXXXXXXXXoooooo...XXXXXXXXXoooooooooo...++++++oooooo...OOOOOOO+++++++++ooo...OOO++++++++++   ",
"%%%   XXXXXXXXXXoooooo...XXXXXXXXXoooooooooo...++++++oooooo...OOOOOOO+++++++++ooo...OOO++++++++++   ",
"%%%   XXXXXXXXXXoooooo...XXXXXXXXXoooooooooo...++++++oooooo...OOOOOOO+++++++++ooo...OOO++++++++++   ",
"%%%   ..........oooXXXOOO......oooOOOoooo...OOO+++++++++...OOOOOOOOOO+++@@@@@@...OOOOOO++++@@@@@@   ",
"%%%   ..........oooXXXOOO......oooOOOoooo...OOO+++++++++...OOOOOOOOOO+++@@@@@@...OOOOOO++++@@@@@@   ",
"%%%   ..........oooXXXOOO......oooOOOoooo...OOO+++++++++...OOOOOOOOOO+++@@@@@@...OOOOOO++++@@@@@@   ",
"   ......OOO+++++++oooXXX+++......ooo....OOOOOO+++@@@@@@...OOOOOOO+++@@@@@@oooXXX...+++@@@@@@@ooo   ",
"   ......OOO+++++++oooXXX+++......ooo....OOOOOO+++@@@@@@...OOOOOOO+++@@@@@@oooXXX...+++@@@@@@@ooo   ",
"   ......OOO+++++++oooXXX+++......ooo....OOOOOO+++@@@@@@...OOOOOOO+++@@@@@@oooXXX...+++@@@@@@@ooo   ",
"   ...XXXOOOOOOO++++++ooo...+++++++++XXXX...+++@@@@@@oooXXX...++++@@@@@@ooo......XXX...oooooooooo   ",
"   ...XXXOOOOOOO++++++ooo...+++++++++XXXX...+++@@@@@@oooXXX...++++@@@@@@ooo......XXX...oooooooooo   ",
"   ...XXXOOOOOOO++++++ooo...+++++++++XXXX...+++@@@@@@oooXXX...++++@@@@@@ooo......XXX...oooooooooo   ",
"%%%   ...XXX++++@@@@@@...OOOOOO++++++ooooXXX@@@@@@oooooooooXXX....oooooo...++++++++++++ooooooo   %%%",
"%%%   ...XXX++++@@@@@@...OOOOOO++++++ooooXXX@@@@@@oooooooooXXX....oooooo...++++++++++++ooooooo   %%%",
"%%%   ...XXX++++@@@@@@...OOOOOO++++++ooooXXX@@@@@@oooooooooXXX....oooooo...++++++++++++ooooooo   %%%",
"%%%%%%   ...XXXX@@@ooo...OOO+++@@@@@@....oooooo......+++++++++OOOOooo...OOO++++++++++++++++ooo   %%%",
"%%%%%%   ...XXXX@@@ooo...OOO+++@@@@@@....oooooo......+++++++++OOOOooo...OOO++++++++++++++++ooo   %%%",
"%%%%%%   ...XXXX@@@ooo...OOO+++@@@@@@....oooooo......+++++++++OOOOooo...OOO++++++++++++++++ooo   %%%",
"%%%%%%   ...XXXX@@@ooo...OOO+++@@@@@@....oooooo......+++++++++OOOOooo...OOO++++++++++++++++ooo   %%%",
"%%%%%%   .......ooooooXXX+++@@@@@@@@@ooooooo...OOO++++++++++++....OOO...OOOOOO++++++++++++++++ooo   ",
"%%%%%%   .......ooooooXXX+++@@@@@@@@@ooooooo...OOO++++++++++++....OOO...OOOOOO++++++++++++++++ooo   ",
"%%%%%%   .......ooooooXXX+++@@@@@@@@@ooooooo...OOO++++++++++++....OOO...OOOOOO++++++++++++++++ooo   ",
"%%%   ...++++++++++ooo...XXX@@@@@@ooooooo...OOOOOOOOO+++@@@ooooooo...XXXOOOOOOOOO+++++++++++++ooo   ",
"%%%   ...++++++++++ooo...XXX@@@@@@ooooooo...OOOOOOOOO+++@@@ooooooo...XXXOOOOOOOOO+++++++++++++ooo   ",
"%%%   ...++++++++++ooo...XXX@@@@@@ooooooo...OOOOOOOOO+++@@@ooooooo...XXXOOOOOOOOO+++++++++++++ooo   ",
"%%%   OOO+++++++++++++oooooo......ooo....OOOOOO++++++@@@@@@...+++++++oooXXXOOO+++@@@@@@@@@@@@@ooo   ",
"%%%   OOO+++++++++++++oooooo......ooo....OOOOOO++++++@@@@@@...+++++++oooXXXOOO+++@@@@@@@@@@@@@ooo   ",
"%%%   OOO+++++++++++++oooooo......ooo....OOOOOO++++++@@@@@@...+++++++oooXXXOOO+++@@@@@@@@@@@@@ooo   ",
"   OOOOOOOOO++++++++++ooo...++++++oooooooXXX+++@@@@@@ooo...OOO++++@@@oooooo+++@@@@@@@@@@@@@ooo   %%%",
"   OOOOOOOOO++++++++++ooo...++++++oooooooXXX+++@@@@@@ooo...OOO++++@@@oooooo+++@@@@@@@@@@@@@ooo   %%%",
"   OOOOOOOOO++++++++++ooo...++++++oooooooXXX+++@@@@@@ooo...OOO++++@@@oooooo+++@@@@@@@@@@@@@ooo   %%%",
"   OOOOOO+++@@@@@@@@@@...OOOOOO++++++ooooooooooXXXXXXoooXXX+++@@@@ooooooooooooXXX@@@@@@oooo   %%%%%%",
"   OOOOOO+++@@@@@@@@@@...OOOOOO++++++ooooooooooXXXXXXoooXXX+++@@@@ooooooooooooXXX@@@@@@oooo   %%%%%%",
"   OOOOOO+++@@@@@@@@@@...OOOOOO++++++ooooooooooXXXXXXoooXXX+++@@@@ooooooooooooXXX@@@@@@oooo   %%%%%%",
"   XXX+++@@@@@@@@@@oooXXX...+++@@@@@@oooo...ooo++++++oooOOOXXXoooo......++++++ooooooooo.......   %%%",
"   XXX+++@@@@@@@@@@oooXXX...+++@@@@@@oooo...ooo++++++oooOOOXXXoooo......++++++ooooooooo.......   %%%",
"   XXX+++@@@@@@@@@@oooXXX...+++@@@@@@oooo...ooo++++++oooOOOXXXoooo......++++++ooooooooo.......   %%%",
"%%%   XXX@@@@@@@oooOOOoooXXX@@@@@@ooo....+++++++++++++++...ooo....OOO++++++++++++ooo...++++++++++   ",
"%%%   XXX@@@@@@@oooOOOoooXXX@@@@@@ooo....+++++++++++++++...ooo....OOO++++++++++++ooo...++++++++++   ",
"%%%   XXX@@@@@@@oooOOOoooXXX@@@@@@ooo....+++++++++++++++...ooo....OOO++++++++++++ooo...++++++++++   ",
"%%%   ......oooo...ooooooooooooooo...OOOOOOO++++++++++++oooooo....OOOOOO+++++++++XXXOOOOOOO+++@@@   ",
"%%%   ......oooo...ooooooooooooooo...OOOOOOO++++++++++++oooooo....OOOOOO+++++++++XXXOOOOOOO+++@@@   ",
"%%%   ......oooo...ooooooooooooooo...OOOOOOO++++++++++++oooooo....OOOOOO+++++++++XXXOOOOOOO+++@@@   ",
"%%%   ......oooo...ooooooooooooooo...OOOOOOO++++++++++++oooooo....OOOOOO+++++++++XXXOOOOOOO+++@@@   ",
"%%%%%%   ooo....+++++++++...OOOooo...OOOOOOOOOO+++@@@@@@ooooooOOOOOOO+++@@@@@@oooOOOXXX++++@@@ooo   ",
"%%%%%%   ooo....+++++++++...OOOooo...OOOOOOOOOO+++@@@@@@ooooooOOOOOOO+++@@@@@@oooOOOXXX++++@@@ooo   ",
"%%%%%%   ooo....+++++++++...OOOooo...OOOOOOOOOO+++@@@@@@ooooooOOOOOOO+++@@@@@@oooOOOXXX++++@@@ooo   ",
"%%%   ......++++++++++++++++ooooooXXXOOOOOOO+++@@@@@@@@@oooXXXOOOO+++@@@@@@oooooo......ooooooo   %%%",
"%%%   ......++++++++++++++++ooooooXXXOOOOOOO+++@@@@@@@@@oooXXXOOOO+++@@@@@@oooooo......ooooooo   %%%",
"%%%   ......++++++++++++++++ooooooXXXOOOOOOO+++@@@@@@@@@oooXXXOOOO+++@@@@@@oooooo......ooooooo   %%%",
"%%%   ...OOOOOOO+++++++++++++++ooooooXXXX+++@@@@@@@@@XXXooooooXXXX@@@@@@oooooo...++++++++++ooo   %%%",
"%%%   ...OOOOOOO+++++++++++++++ooooooXXXX+++@@@@@@@@@XXXooooooXXXX@@@@@@oooooo...++++++++++ooo   %%%",
"%%%   ...OOOOOOO+++++++++++++++ooooooXXXX+++@@@@@@@@@XXXooooooXXXX@@@@@@oooooo...++++++++++ooo   %%%",
"   ...OOOOOOOOOO+++++++++++++++...OOOooooXXX@@@@@@@@@ooo...OOOooooooooooooo...OOO+++++++++++++   %%%",
"   ...OOOOOOOOOO+++++++++++++++...OOOooooXXX@@@@@@@@@ooo...OOOooooooooooooo...OOO+++++++++++++   %%%",
"   ...OOOOOOOOOO+++++++++++++++...OOOooooXXX@@@@@@@@@ooo...OOOooooooooooooo...OOO+++++++++++++   %%%",
"   OOOOOOOOOOOOOOOO++++++++++++ooo.......oooXXXXXXooo......+++++++++++++ooo...OOOOOOOOO++++++++++   ",
"   OOOOOOOOOOOOOOOO++++++++++++ooo.......oooXXXXXXooo......+++++++++++++ooo...OOOOOOOOO++++++++++   ",
"   OOOOOOOOOOOOOOOO++++++++++++ooo.......oooXXXXXXooo......+++++++++++++ooo...OOOOOOOOO++++++++++   ",
"   OOOOOOOOOOOOO+++@@@@@@@@@@@@...OOO+++++++oooooo...OOOOOO++++++++++++++++oooXXXOOOOOO++++@@@@@@   ",
"   OOOOOOOOOOOOO+++@@@@@@@@@@@@...OOO+++++++oooooo...OOOOOO++++++++++++++++oooXXXOOOOOO++++@@@@@@   ",
"   OOOOOOOOOOOOO+++@@@@@@@@@@@@...OOO+++++++oooooo...OOOOOO++++++++++++++++oooXXXOOOOOO++++@@@@@@   ",
"   XXXOOOOOO++++@@@@@@@@@@@@ooo...OOOOOOO++++++ooo...OOOOOOOOO+++++++++++++oooXXXOOO+++@@@@@@@@@@   ",
"   XXXOOOOOO++++@@@@@@@@@@@@ooo...OOOOOOO++++++ooo...OOOOOOOOO+++++++++++++oooXXXOOO+++@@@@@@@@@@   ",
"   XXXOOOOOO++++@@@@@@@@@@@@ooo...OOOOOOO++++++ooo...OOOOOOOOO+++++++++++++oooXXXOOO+++@@@@@@@@@@   ",
"%%%   OOOOOO++++@@@@@@@@@ooo......XXX++++@@@@@@...OOOOOOOOO+++@@@@@@@@@@ooo......XXX@@@@@@@@@@@@@   ",
"%%%   OOOOOO++++@@@@@@@@@ooo......XXX++++@@@@@@...OOOOOOOOO+++@@@@@@@@@@ooo......XXX@@@@@@@@@@@@@   ",
"%%%   OOOOOO++++@@@@@@@@@ooo......XXX++++@@@@@@...OOOOOOOOO+++@@@@@@@@@@ooo......XXX@@@@@@@@@@@@@   ",
"%%%   OOOOOO++++@@@@@@@@@ooo......XXX++++@@@@@@...OOOOOOOOO+++@@@@@@@@@@ooo......XXX@@@@@@@@@@@@@   ",
"%%%   XXX+++@@@@@@@@@@.........      XXXX@@@@@@XXXOOOOOO+++@@@@@@@@@@@@@...   ......ooo@@@@@@@ooo   ",
"%%%   XXX+++@@@@@@@@@@.........      XXXX@@@@@@XXXOOOOOO+++@@@@@@@@@@@@@...   ......ooo@@@@@@@ooo   ",
"%%%   XXX+++@@@@@@@@@@.........      XXXX@@@@@@XXXOOOOOO+++@@@@@@@@@@@@@...   ......ooo@@@@@@@ooo   ",
"%%%%%%   XXX@@@@@@@...         %%%%%%    ......   XXX+++@@@@@@@@@@@@@      %%%      ...ooooooo   %%%",
"%%%%%%   XXX@@@@@@@...         %%%%%%    ......   XXX+++@@@@@@@@@@@@@      %%%      ...ooooooo   %%%",
"%%%%%%   XXX@@@@@@@...         %%%%%%    ......   XXX+++@@@@@@@@@@@@@      %%%      ...ooooooo   %%%",
"%%%%%%%%%             %%%%%%%%%%%%%%%%%%%      %%%                   %%%%%%%%%%%%%%%          %%%%%%",
"%%%%%%%%%             %%%%%%%%%%%%%%%%%%%      %%%                   %%%%%%%%%%%%%%%          %%%%%%",
"%%%%%%%%%             %%%%%%%%%%%%%%%%%%%      %%%                   %%%%%%%%%%%%%%%          %%%%%%"
};
