/* XPM */
static char *other_1[] = {
/* columns rows colors chars-per-pixel */
"100 100 9 1 ",
"  c #161318",
". c #171732",
"X c #2A3351",
"o c #495960",
"O c #4B6974",
"+ c #6DAA97",
"@ c #BDDFC8",
"# c #E7F2E7",
"$ c None",
/* pixels */
"$$$                                      $$$$$$                                                  $$$",
"$$$                                      $$$$$$                                                  $$$",
"$$$                                      $$$$$$                                                  $$$",
"   +++@@@@@@####@@@@@@######@@@##########      ###############@@@@###############################   ",
"   +++@@@@@@####@@@@@@######@@@##########      ###############@@@@###############################   ",
"   +++@@@@@@####@@@@@@######@@@##########      ###############@@@@###############################   ",
"   OOO++++++@@@@@@@@@@@@@@@@@@@@@@@@@@@@@###@@@@@@@@@@@@@@@@@@@@@@@@@@@@@@@@@@@@@@@@@@@@@@@@@@###   ",
"   OOO++++++@@@@@@@@@@@@@@@@@@@@@@@@@@@@@###@@@@@@@@@@@@@@@@@@@@@@@@@@@@@@@@@@@@@@@@@@@@@@@@@@###   ",
"   OOO++++++@@@@@@@@@@@@@@@@@@@@@@@@@@@@@###@@@@@@@@@@@@@@@@@@@@@@@@@@@@@@@@@@@@@@@@@@@@@@@@@@###   ",
"   XXXOOO++++++++++++++++++++++++++++@@@@@@@+++++++++++++++++++++++++@@@@@@++++++++++++++++@@@###   ",
"   XXXOOO++++++++++++++++++++++++++++@@@@@@@+++++++++++++++++++++++++@@@@@@++++++++++++++++@@@###   ",
"   XXXOOO++++++++++++++++++++++++++++@@@@@@@+++++++++++++++++++++++++@@@@@@++++++++++++++++@@@###   ",
"   XXXOOO++++++++++OOOOOO++++++++++++++++@@@+++++++++OOO+++++++++++++@@@+++++++++++++++++++@@@@@@   ",
"   XXXOOO++++++++++OOOOOO++++++++++++++++@@@+++++++++OOO+++++++++++++@@@+++++++++++++++++++@@@@@@   ",
"   XXXOOO++++++++++OOOOOO++++++++++++++++@@@+++++++++OOO+++++++++++++@@@+++++++++++++++++++@@@@@@   ",
"   XXXOOO++++++++++OOOOOO++++++++++++++++@@@+++++++++OOO+++++++++++++@@@+++++++++++++++++++@@@@@@   ",
"   XXXOOOOOOOOOO   XXXOOOOOOOOOOOOOOO++++OOOOOOOOOOOOOOOOOOOOOOOOOOOO+++OOOOOOOOOOOOOOOOOOO@@@OOO   ",
"   XXXOOOOOOOOOO   XXXOOOOOOOOOOOOOOO++++OOOOOOOOOOOOOOOOOOOOOOOOOOOO+++OOOOOOOOOOOOOOOOOOO@@@OOO   ",
"   XXXOOOOOOOOOO   XXXOOOOOOOOOOOOOOO++++OOOOOOOOOOOOOOOOOOOOOOOOOOOO+++OOOOOOOOOOOOOOOOOOO@@@OOO   ",
"   XXXXXXXXX       XXXXXXXXXXXX   XXXXXXXXXXXXXXXXOOOOOOXXXXXXOOOOOOOOOOOOO   OOOXXXXXXOOOOOOOXXX   ",
"   XXXXXXXXX       XXXXXXXXXXXX   XXXXXXXXXXXXXXXXOOOOOOXXXXXXOOOOOOOOOOOOO   OOOXXXXXXOOOOOOOXXX   ",
"   XXXXXXXXX       XXXXXXXXXXXX   XXXXXXXXXXXXXXXXOOOOOOXXXXXXOOOOOOOOOOOOO   OOOXXXXXXOOOOOOOXXX   ",
"$$$                                                                                              $$$",
"$$$                                                                                              $$$",
"$$$                                                                                              $$$",
"   XXXOOO+++@@@@......OOOOOO+++@@@+++++++@@@@@@......OOO++++++@@@@++++++@@@@@@@@@...OOO++++@@@...   ",
"   XXXOOO+++@@@@......OOOOOO+++@@@+++++++@@@@@@......OOO++++++@@@@++++++@@@@@@@@@...OOO++++@@@...   ",
"   XXXOOO+++@@@@......OOOOOO+++@@@+++++++@@@@@@......OOO++++++@@@@++++++@@@@@@@@@...OOO++++@@@...   ",
"   XXXXXX+++@@@@...XXXOOOOOOOOOOOOOOO++++++++++@@@...OOOOOOOOOOOOOOOO+++++++++@@@...XXXOOOO+++@@@   ",
"   XXXXXX+++@@@@...XXXOOOOOOOOOOOOOOO++++++++++@@@...OOOOOOOOOOOOOOOO+++++++++@@@...XXXOOOO+++@@@   ",
"   XXXXXX+++@@@@...XXXOOOOOOOOOOOOOOO++++++++++@@@...OOOOOOOOOOOOOOOO+++++++++@@@...XXXOOOO+++@@@   ",
"   XXXXXXOOO++++...XXXOOOOOOOOOOOOOOOOOOOOOOOOO+++...OOOOOOOOOOOOOOOOOOOOOO++++++...XXXOOOO+++@@@   ",
"   XXXXXXOOO++++...XXXOOOOOOOOOOOOOOOOOOOOOOOOO+++...OOOOOOOOOOOOOOOOOOOOOO++++++...XXXOOOO+++@@@   ",
"   XXXXXXOOO++++...XXXOOOOOOOOOOOOOOOOOOOOOOOOO+++...OOOOOOOOOOOOOOOOOOOOOO++++++...XXXOOOO+++@@@   ",
"   XXXXXXOOOOOOO...XXXOOOXXXXXXXXXXXXOOOO..................XXXOOOOXXXOOOXXXOOO+++...XXXOOOO+++OOO   ",
"   XXXXXXOOOOOOO...XXXOOOXXXXXXXXXXXXOOOO..................XXXOOOOXXXOOOXXXOOO+++...XXXOOOO+++OOO   ",
"   XXXXXXOOOOOOO...XXXOOOXXXXXXXXXXXXOOOO..................XXXOOOOXXXOOOXXXOOO+++...XXXOOOO+++OOO   ",
"   XXXXXXXXXOOOO...XXXXXXXXXXXXXXX..........+++@@@@@@@@@..........XXXXXXXXXOOOOOO...XXXXXXXXXXOOO   ",
"   XXXXXXXXXOOOO...XXXXXXXXXXXXXXX..........+++@@@@@@@@@..........XXXXXXXXXOOOOOO...XXXXXXXXXXOOO   ",
"   XXXXXXXXXOOOO...XXXXXXXXXXXXXXX..........+++@@@@@@@@@..........XXXXXXXXXOOOOOO...XXXXXXXXXXOOO   ",
"   XXXXXXXXXOOOO...XXXXXXXXXXXXXXX..........+++@@@@@@@@@..........XXXXXXXXXOOOOOO...XXXXXXXXXXOOO   ",
"$$$...............................@@@@@@@...XXXXXX++++++...+++@@@@...............................ooo",
"$$$...............................@@@@@@@...XXXXXX++++++...+++@@@@...............................ooo",
"$$$...............................@@@@@@@...XXXXXX++++++...+++@@@@...............................ooo",
"   ...OOO+++++++@@@++++++@@@...XXX+++++++XXX............XXX+++@@@@@@@...++++++@@@+++@@@@@@@@@@@@@   ",
"   ...OOO+++++++@@@++++++@@@...XXX+++++++XXX............XXX+++@@@@@@@...++++++@@@+++@@@@@@@@@@@@@   ",
"   ...OOO+++++++@@@++++++@@@...XXX+++++++XXX............XXX+++@@@@@@@...++++++@@@+++@@@@@@@@@@@@@   ",
"   XXXOOOOOOOOOOOOOOOO+++......OOOOOOXXXX...            ...XXX++++@@@...OOOOOO+++++++++++++@@@@@@   ",
"   XXXOOOOOOOOOOOOOOOO+++......OOOOOOXXXX...            ...XXX++++@@@...OOOOOO+++++++++++++@@@@@@   ",
"   XXXOOOOOOOOOOOOOOOO+++......OOOOOOXXXX...            ...XXX++++@@@...OOOOOO+++++++++++++@@@@@@   ",
"   XXXOOOOOOOOOOOOOOOO............XXX....                  ...XXXX.........OOOOOOOOOOOOOOOO+++@@@   ",
"   XXXOOOOOOOOOOOOOOOO............XXX....                  ...XXXX.........OOOOOOOOOOOOOOOO+++@@@   ",
"   XXXOOOOOOOOOOOOOOOO............XXX....                  ...XXXX.........OOOOOOOOOOOOOOOO+++@@@   ",
"   XXXXXXXXXXXXXOOOXXX......OOO@@@...                         ....+++@@@...XXXXXXOOOXXXOOOO++++++   ",
"   XXXXXXXXXXXXXOOOXXX......OOO@@@...                         ....+++@@@...XXXXXXOOOXXXOOOO++++++   ",
"   XXXXXXXXXXXXXOOOXXX......OOO@@@...                         ....+++@@@...XXXXXXOOOXXXOOOO++++++   ",
"   ...XXXXXXXXXXXXX.........OOO+++...                         ....+++@@@...XXXXXXXXXXXXXXXXXXXOOO   ",
"   ...XXXXXXXXXXXXX.........OOO+++...                         ....+++@@@...XXXXXXXXXXXXXXXXXXXOOO   ",
"   ...XXXXXXXXXXXXX.........OOO+++...                         ....+++@@@...XXXXXXXXXXXXXXXXXXXOOO   ",
"$$$.........................XXX+++...                         ....XXX@@@.........................$$$",
"$$$.........................XXX+++...                         ....XXX@@@.........................$$$",
"$$$.........................XXX+++...                         ....XXX@@@.........................$$$",
"   XXXOOO+++................XXXOOO...                         ....XXX+++...@@@......OOO++++@@@@@@   ",
"   XXXOOO+++................XXXOOO...                         ....XXX+++...@@@......OOO++++@@@@@@   ",
"   XXXOOO+++................XXXOOO...                         ....XXX+++...@@@......OOO++++@@@@@@   ",
"   XXXOOO+++................XXXOOO...                         ....XXX+++...@@@......OOO++++@@@@@@   ",
"   XXXXXXOOO@@@@..................@@@....                  ...++++.........+++@@@...XXXOOOO+++@@@   ",
"   XXXXXXOOO@@@@..................@@@....                  ...++++.........+++@@@...XXXOOOO+++@@@   ",
"   XXXXXXOOO@@@@..................@@@....                  ...++++.........+++@@@...XXXOOOO+++@@@   ",
"   XXXXXXOOO++++...............OOO+++@@@@...            ...OOO++++@@@...OOOOOO+++...XXXOOOO++++++   ",
"   XXXXXXOOO++++...............OOO+++@@@@...            ...OOO++++@@@...OOOOOO+++...XXXOOOO++++++   ",
"   XXXXXXOOO++++...............OOO+++@@@@...            ...OOO++++@@@...OOOOOO+++...XXXOOOO++++++   ",
"   XXXXXXOOOOOOO...............XXXOOO+++++++............XXXOOOOOOO+++...XXXOOOOOO...XXXOOOO+++OOO   ",
"   XXXXXXOOOOOOO...............XXXOOO+++++++............XXXOOOOOOO+++...XXXOOOOOO...XXXOOOO+++OOO   ",
"   XXXXXXOOOOOOO...............XXXOOO+++++++............XXXOOOOOOO+++...XXXOOOOOO...XXXOOOO+++OOO   ",
"   XXXXXXXXXOOOO..................XXXOOOO...OOO+++@@@@@@...XXXXXXX...XXXXXXXXXOOO...XXXXXXXOOOOOO   ",
"   XXXXXXXXXOOOO..................XXXOOOO...OOO+++@@@@@@...XXXXXXX...XXXXXXXXXOOO...XXXXXXXOOOOOO   ",
"   XXXXXXXXXOOOO..................XXXOOOO...OOO+++@@@@@@...XXXXXXX...XXXXXXXXXOOO...XXXXXXXOOOOOO   ",
"$$$.........................................XXXXXXXXX+++.........................................$$$",
"$$$.........................................XXXXXXXXX+++.........................................$$$",
"$$$.........................................XXXXXXXXX+++.........................................$$$",
"   XXXXXXOOO++++@@@+++@@@............................................OOO++++++@@@++++++@@@@@@@@@@   ",
"   XXXXXXOOO++++@@@+++@@@............................................OOO++++++@@@++++++@@@@@@@@@@   ",
"   XXXXXXOOO++++@@@+++@@@............................................OOO++++++@@@++++++@@@@@@@@@@   ",
"   XXXXXXOOOOOOOOOOOOOOOOOOO...............................@@@....XXXOOOOOOOOOOOOOOO++++++++++@@@   ",
"   XXXXXXOOOOOOOOOOOOOOOOOOO...............................@@@....XXXOOOOOOOOOOOOOOO++++++++++@@@   ",
"   XXXXXXOOOOOOOOOOOOOOOOOOO...............................@@@....XXXOOOOOOOOOOOOOOO++++++++++@@@   ",
"   XXXXXXOOOOOOOOOOOOOOOOOOOOOO......................OOOOOO+++....XXXOOOOOOOOOOOOOOOOOOOOOO++++++   ",
"   XXXXXXOOOOOOOOOOOOOOOOOOOOOO......................OOOOOO+++....XXXOOOOOOOOOOOOOOOOOOOOOO++++++   ",
"   XXXXXXOOOOOOOOOOOOOOOOOOOOOO......................OOOOOO+++....XXXOOOOOOOOOOOOOOOOOOOOOO++++++   ",
"   XXXXXXOOOOOOOOOOOOOOOOOOOOOO......................OOOOOO+++....XXXOOOOOOOOOOOOOOOOOOOOOO++++++   ",
"   XXXXXXXXXOOOOXXXXXXOOOXXXOOO...XXXXXXXXXXXXXXXXOOOXXXOOOOOO....XXXXXXXXXXXXOOOXXXOOOXXXXOOO+++   ",
"   XXXXXXXXXOOOOXXXXXXOOOXXXOOO...XXXXXXXXXXXXXXXXOOOXXXOOOOOO....XXXXXXXXXXXXOOOXXXOOOXXXXOOO+++   ",
"   XXXXXXXXXOOOOXXXXXXOOOXXXOOO...XXXXXXXXXXXXXXXXOOOXXXOOOOOO....XXXXXXXXXXXXOOOXXXOOOXXXXOOO+++   ",
"   ...XXXXXXXXXXXXXXXXXXXXXXOOO...XXXXXXXXXXXXXXXXXXXXXXXXXOOO.......XXXXXXXXXXXXXXXXXXXXXXOOOOOO   ",
"   ...XXXXXXXXXXXXXXXXXXXXXXOOO...XXXXXXXXXXXXXXXXXXXXXXXXXOOO.......XXXXXXXXXXXXXXXXXXXXXXOOOOOO   ",
"   ...XXXXXXXXXXXXXXXXXXXXXXOOO...XXXXXXXXXXXXXXXXXXXXXXXXXOOO.......XXXXXXXXXXXXXXXXXXXXXXOOOOOO   ",
"$$$                            $$$                            $$$$                               $$$",
"$$$                            $$$                            $$$$                               $$$",
"$$$                            $$$                            $$$$                               $$$"
};
