/* XPM */
static char *other_4[] = {
/* columns rows colors chars-per-pixel */
"25 25 190 2 ",
"   c #010000",
".  c #0C0505",
"X  c #0C0B0B",
"o  c #070907",
"O  c #140A0C",
"+  c #1E0109",
"@  c #0A120C",
"#  c #11140A",
"$  c #1C120C",
"%  c #1C180F",
"&  c #1A0E11",
"*  c #141515",
"=  c #1E1A14",
"-  c #1A1814",
";  c #200F13",
":  c #2C191D",
">  c #251718",
",  c #35171F",
"<  c #1D221B",
"1  c #192316",
"2  c #22211E",
"3  c #34201A",
"4  c #1C2321",
"5  c #242523",
"6  c #2A2B24",
"7  c #282725",
"8  c #362225",
"9  c #352529",
"0  c #3A2E2F",
"q  c #2D342B",
"w  c #32362D",
"e  c #34382E",
"r  c #3F2931",
"t  c #2C3831",
"y  c #393D34",
"u  c #3B3C3C",
"i  c #353735",
"p  c #421827",
"a  c #46252A",
"s  c #4F2534",
"d  c #442833",
"f  c #472832",
"g  c #542739",
"h  c #483539",
"j  c #59313C",
"k  c #41403D",
"l  c #5C3444",
"z  c #692440",
"x  c #633242",
"c  c #683549",
"v  c #444444",
"b  c #4B4B4B",
"n  c #5C424B",
"m  c #4F5955",
"M  c #525754",
"N  c #565958",
"B  c #7F435B",
"V  c #5E6362",
"C  c #666B69",
"Z  c #656B67",
"A  c #6B706E",
"S  c #6D7472",
"D  c #777978",
"F  c #853D5A",
"G  c #87485D",
"H  c #8F4165",
"J  c #924564",
"K  c #944A64",
"L  c #994C66",
"P  c #994C6A",
"I  c #A3536D",
"U  c #AB4C76",
"Y  c #A04C72",
"T  c #AD5479",
"R  c #AD5A79",
"E  c #A65572",
"W  c #B8537F",
"Q  c #B3557A",
"!  c #946677",
"~  c #758079",
"^  c #8D817F",
"/  c #B95682",
"(  c #B35A82",
")  c #BA5A86",
"_  c #A66484",
"`  c #B4658A",
"'  c #A6738D",
"]  c #BE6A91",
"[  c #B8789A",
"{  c #C35384",
"}  c #C65789",
"|  c #CC6996",
" . c #D8669A",
".. c #D8709E",
"X. c #DA6AA2",
"o. c #C57FA2",
"O. c #D972A3",
"+. c #E86DA9",
"@. c #F876B0",
"#. c #F57BB3",
"$. c #F879B2",
"%. c #FA7BB7",
"&. c #7C8A82",
"*. c #848585",
"=. c #878A88",
"-. c #8A8E8D",
";. c #9B8687",
":. c #8D918F",
">. c #8D9291",
",. c #929694",
"<. c #949996",
"1. c #969B9B",
"2. c #9B9B9C",
"3. c #B991A6",
"4. c #9FA2A1",
"5. c #A6AAAA",
"6. c #A5A9A9",
"7. c #B8A9B3",
"8. c #B5B6B6",
"9. c #BCBDBC",
"0. c #B4B7B8",
"q. c #D88DB8",
"w. c #C790B1",
"e. c #E586BC",
"r. c #F988BC",
"t. c #E79ABF",
"y. c #C5AABB",
"u. c #BAC0BE",
"i. c #D89DC1",
"p. c #FE84C5",
"a. c #FF85CB",
"s. c #FF8BCC",
"d. c #F68DC2",
"f. c #E798C7",
"g. c #F792C5",
"h. c #F796C8",
"j. c #FE93CC",
"k. c #F39CCD",
"l. c #F997C8",
"z. c #FF8CD3",
"x. c #FF89D5",
"c. c #FD94D5",
"v. c #FF93DD",
"b. c #FF9AD9",
"n. c #FEA0CC",
"m. c #EBA9DA",
"M. c #E4A7DC",
"N. c #F3A7D6",
"B. c #FBA2D2",
"V. c #FFA4DA",
"C. c #FBACD9",
"Z. c #EFB0DD",
"A. c #F8B3DD",
"S. c #F8B9DC",
"D. c #FF9DE6",
"F. c #DBADE4",
"G. c #DBA3E0",
"H. c #D7B2EA",
"J. c #FFA7E1",
"K. c #FFB2E3",
"L. c #FFB3E9",
"P. c #FDBDE5",
"I. c #FFBBF0",
"U. c #BFC5C4",
"Y. c #C2C3C4",
"T. c #CACDCE",
"R. c #CDCFD1",
"E. c #D3D3D4",
"W. c #DCDBDB",
"Q. c #DDDDE0",
"!. c #C9C7FD",
"~. c #E9C4EB",
"^. c #E6C4EE",
"/. c #FBC4E2",
"(. c #FCCAE5",
"). c #FCCCEC",
"_. c #FBD0EB",
"`. c #EBCEF2",
"'. c #FFCEFD",
"]. c #FFCCF4",
"[. c #FFDBFD",
"{. c #FFD8F9",
"}. c #E4E4E5",
"|. c #E9ECEB",
" X c #FFE2FF",
".X c #EDF3F2",
"XX c #F5F4F4",
"oX c #FEFEFF",
"OX c #FFF5FF",
"+X c None",
/* pixels */
"+X+X+X+X+X+X+X      +X+X+X+X+X+X  +X+X+X+X+X+X+X+X",
"+X+X+X+X+X+X+X: G   +X+X+X+X+X  j O +X+X+X+X+X+X+X",
"+X+X+X+X+X+X$ O.D.Y ; * u - & B p.T X +X+X+X+X+X+X",
"+X+X+X+X+XO ] I.C.c.U w Y.i ' K.r.z.H   +X+X+X+X+X",
"+X+X+X+X+X& t. X/.V.} e Q.i y. Xr.x.I   +X+X+X+X+X",
"+X+X+X+Xo : f. X(.B.W w E.y 7. Xd.a.K = 4 +X+X+X+X",
"+X+X+Xb >.  [ [.S.V.W e T.w 3.].g.a.P y -.5 +X+X+X",
"+X    *.oXN 9 e.j.j.W e Y.w ( c.r.x.F q |.i     +X",
"+X  $ = 1..X# Q x.a.} 6 R.w { a.x.W h <.S . 3 . +X",
"  g e.( 8 :.Z l J J g S }.D s J F h &.-.d | e.x   ",
"  ! '.K.) 0 6.N 6 5 M XXoX}.w 2 5 =.>.0 i.L.D.L   ",
"  ^ oX{.V.J @ 8.u.6.<.6.U.U.E.|.oX,.. w.oXS.c.K   ",
"  ;.oX_.V. .% 6.0.S # $ $   1.E.W.S a A. XS.v.I   ",
"  n K.C.b.| % 0.|.u _ o.| H   w oX<.. q.P.B.p.c   ",
"+X  K s.z./ $ R.A l K.[.J.a.W   >.XXV f #.c.T   +X",
"+X  x d. .h ,.C d f.)./.(.k.a.U . :.5.> +.X.> o +X",
"+X  X s , <.oX1 R [.^.m.^.N.r.a.z t XX&.p f M X +X",
"+X+X* N =.oX~ 9 q.[.m.k.M./.m.c.U < >.2.C -.*.  +X",
"+X+X  9.oXS . q.'.~.m.l.n.`.!.G.p.( + 5 oXE.* +X+X",
"+X+X+Xv 9.  ) L._.H.F.B.B.F.H.f.@.v.I y T.v +X+X+X",
"+X+X+Xo m 8 #.V.k.g.l.l.l.l.g.#.@.z.P y *.X +X+X+X",
"+X+X+X+X  > ..b.#.@.$.#.#.$.$.$.#.v.K q u   +X+X+X",
"+X+X+X+X+X  d p.z.a.a.a.a.a.a.s.z. .r 4 X +X+X+X+X",
"+X+X+X+X+X+X  c ` R R R R R R R R : @ * +X+X+X+X+X",
"+X+X+X+X+X+X+X                      +X+X+X+X+X+X+X"
};
