/* XPM */
static char *other_3[] = {
/* columns rows colors chars-per-pixel */
"420 40 9 1 ",
"  c #222222",
". c gray14",
"X c #252525",
"o c gray16",
"O c gray20",
"+ c #343434",
"@ c #373737",
"# c #3A3A3A",
"$ c None",
/* pixels */
"$$$$##+#+#+#+#+#+#+#+#+#+#+#+#+#+#+#+#+#+#+#+#+#+#+#+#+#+#+#+#+#+#+#+#+#+#+#+#+#+#+#+#+#+#+#+#+#+#+#+#+#+#+#+#+#+#+#+#+#+#+#+#+#+#+#+#+#+#+#+#+#+#+#+#+#+#+#+#+#+#+#+#+#+#+#+#+#+#+#+#+#+#+#+#+#+#+#+#+#+#+#+#+#+#+#+#+#+#+#+#+#+#+#+#+#+#+#+#+#+#+#+#+#+#+#+#+#+#+#+#+#+#+#+#+#+#+#+#+#+#+#+#+#+#+#+#+#+#+#+#+#+#+#+#+#+#+#+#+#+#+#+#+#+#+#+#+#+#+#+#+#+#+#+#+#+#+#+#+#+#+#+#+#+#+#+#+#+#+#+#+#+#+#+#+#+#+#+#+#+#+#+#+#+#+#+#+#$$$$",
"$$$O.                                                                                                                                             oo                                                                                                                                                                                                                                                                           .+$$$",
"$$+.                                                                                                                                              oo                                                                                                                                                                                                                                                                            .+$$",
"$+.                                                                                                                                               oo                                                                                                                                                                                                                                                                             .+$",
"#.                                                                                                                                                oo                                                                                                                                                                                                                                                                              .#",
"+                                                                                                                                                 oo                                                                                                                                                                                                                                                                               +",
"#                                                                                                                                                 oo                                                                                                                                                                                                                                                                               #",
"+.                                                                                                                                                oo                                                                                                                                                                                                                                                                              .+",
"+                                                                                                                                                 oo                                                                                                                                                                                                                                                                               #",
"#                                                                                                                                                 oo                                                                                                                                                                                                                                                                               +",
"+                                                                                                                                                 oo                                                                                                                                                                                                                                                                               #",
"#                                                                                                                                                 oo                                                                                                                                                                                                                                                                               +",
"+                                                                                                                                                 oo                                                                                                                                                                                                                                                                               +",
"#                                                                                                                                                 oo                                                                                                                                                                                                                                                                               #",
"+                                                                                                                                                 oo                                                                                                                                                                                                                                                                               +",
"#                                                                                                                                                 oo                                                                                                                                                                                                                                                                               #",
"+                                                                                                                                                 oo                                                                                                                                                                                                                                                                               +",
"#                                                                                                                                                 oo                                                                                                                                                                                                                                                                               #",
"+                                                                                                                                                 oo                                                                                                                                                                                                                                                                               +",
"#                                                                                                                                                 oo                                                                                                                                                                                                                                                                               #",
"+                                                                                                                                                 oo                                                                                                                                                                                                                                                                               #",
"#                                                                                                                                                 oo                                                                                                                                                                                                                                                                               +",
"+                                                                                                                                                 oo                                                                                                                                                                                                                                                                               #",
"#                                                                                                                                                 oo                                                                                                                                                                                                                                                                               +",
"+                                                                                                                                                 oo                                                                                                                                                                                                                                                                               +",
"#                                                                                                                                                 oo                                                                                                                                                                                                                                                                               #",
"+                                                                                                                                                 oo                                                                                                                                                                                                                                                                               +",
"#                                                                                                                                                 oo                                                                                                                                                                                                                                                                               #",
"+                                                                                                                                                 oo                                                                                                                                                                                                                                                                               +",
"#                                                                                                                                                 oo                                                                                                                                                                                                                                                                               #",
"+                                                                                                                                                 oo                                                                                                                                                                                                                                                                               +",
"#                                                                                                                                                 oo                                                                                                                                                                                                                                                                               #",
"#                                                                                                                                                 oo                                                                                                                                                                                                                                                                               #",
"+                                                                                                                                                 oo                                                                                                                                                                                                                                                                               +",
"#                                                                                                                                                 oo                                                                                                                                                                                                                                                                               #",
"#                                                                                                                                                 oo                                                                                                                                                                                                                                                                              .#",
"$O.                                                                                                                                               oo                                                                                                                                                                                                                                                                             .O$",
"$$+.                                                                                                                                              oo                                                                                                                                                                                                                                                                            .+$$",
"$$$+.                                                                                                                          .                  oo                                                                                                                                                                                                                                                                        .  .+$$$",
"$$$$#+#+#+#+#+#+#+#+#+#+#+#+#+#+#+#+#+#+#+#+#+#++#+#+#+##+#+#+#+#+#+#+#++#+#+#+##+#+#+#+#+#+#+#+#+#+#+#+#+#+#+#+#+#+#+#+#+#+#+#++#+#+#+##+#+#+#+#+#+#+#++#+#+#+#+#+#+#+##+#+#+#+#+#+#+#++#+#+#+##+#+#+#+#+#+#+#+#+#+#+#+#+#+#+#+#+#+#+#+#+#+#+#++#+#+#+##+#+#+#+#+#+#+#++#+#+#+##+#+#+#+#+#+#+#+#+#+#+#+#+#+#+#+#+#+#+#+#+#+#+#++#+#+#+##+#+#+#+#+#+#+#++#+#+#+#+#+#+#+##+#+#+#+#+#+#+#++#+#+#+#+#+#+#+#+#+#+#+#+#+#+#+#+#+#+#+#$$$$"
};
