/* XPM */
static char *cat_4[] = {
/* columns rows colors chars-per-pixel */
"100 100 9 1 ",
"  c black",
". c #1E1E11",
"X c #757A7B",
"o c #8C3B4E",
"O c #87959C",
"+ c #FFDABC",
"@ c #BCCCDC",
"# c #E5F9FF",
"$ c None",
/* pixels */
"$$$$$$$$$$$$$$$$$$$$$$$$$$$$$$$$$$$$$$$$$$$$$$$$$$$$$$$$$$$$$$$$$$$$$$$$$$$$$$$$$$$$$$$$$$$$$$$$$$$$",
"$$$$$$$$$$$$$$$$$$$$$$$$$$$$$$$$$$$$$$$$$$$$$$$$$$$$$$$$$$$$$$$$$$$$$$$$$$$$$$$$$$$$$$$$$$$$$$$$$$$$",
"$$$$$$$$$$$$$$$$$$$$$$$$$$$$$$$$$$$$$$$$$$$$$$$$$$$$$$$$$$$$$$$$$$$$$$$$$$$$$$$$$$$$$$$$$$$$$$$$$$$$",
"$$$$$$$$$$$$$$$$$$$$$$$$$$$$$$$$$$$$$$$$$$$$$$$$$$$$$$$$$$$$$$$$$$$$$$$$$$$$$$$$$$$$$$$$$$$$$$$$$$$$",
"$$$$$$$$$$$$$$$$$$$$$$$$$$$$$$$$$$$$$$$$$$$$$$$$$$$$$$$$$$$$$$$$$$$$$$$$$$$$$$$$$$$$$$$$$$$$$$$$$$$$",
"$$$$$$$$$$$$$$$$$$$$$$$$$$$$$$$$$$$$$$$$$$$$$$$$$$$$$$$$$$$$$$$$$$$$$$$$$$$$$$$$$$$$$$$$$$$$$$$$$$$$",
"$$$$$$$$$$$$$$$$$$$$$$$$$$$$$$$$$$$$$$$$$$$$$$$$$$$$$$$$$$$$$$$$$$$$$$$$$$$$$$$$$$$$$$$$$$$$$$$$$$$$",
"$$$$$$$$$$$$$$$$$$$$$$$$$$$$$$$$$$$$$$$$$$$$$$$$$$$$$$$$$$$$$$$$$$$$$$$$$$$$$$$$$$$$$$$$$$$$$$$$$$$$",
"$$$$$$$$$$$$$$$$$$$$$$$$$$$$$$$$$$$$$$$$$$$$$$$$$$$$$$$$$$$$$$$$$$$$$$$$$$$$$$$$$$$$$$$$$$$$$$$$$$$$",
"$$$$$$$$$$$$$$$$$$$$$$$$$$$$$$$$$$$$$$$$$$$$$$$$$$$$$$$$$$$$$$$$$$$$$$$$$$$$$$$$$$$$$$$$$$$$$$$$$$$$",
"$$$$$$$$$$$$$$$$$$$$$$$$$$$$$$$$$$$$$$$$$$$$$$$$$$$$$$$$$$$$$$$$$$$$$$$$$$$$$$$$$$$$$$$$$$$$$$$$$$$$",
"$$$$$$$$$$$$$$$$$$$$$$$$$$$$$$$$$$$$$$$$$$$$$$$$$$$$$$$$$$$$$$$$$$$$$$$$$$$$$$$$$$$$$$$$$$$$$$$$$$$$",
"$$$$$$$$$$$$$$$$$$$$$$$$$$$$$$$$$$$$$$$$$$$$$$$$$$$$$$$$$$$$$$$$$$$$$$$$$$$$$$$$$$$$$$$$$$$$$$$$$$$$",
"$$$$$$$$$$$$$$$$$$$$$$$$$$$$$$$$$$$$$$$$$$$$$$$$$$$$$$$$$$$$$$$$$$$$$$$$$$$$$$$$$$$$$$$$$$$$$$$$$$$$",
"$$$$$$$$$$$$$$$$$$$$$$$$$$$$$$$$$$$$$$$$$$$$$$$$$$$$$$$$$$$$$$$$$$$$$$$$$$$$$$$$$$$$$$$$$$$$$$$$$$$$",
"$$$$$$$$$$$$$$$$$$$$$$$$$$$$$$$$$$$$$$$$$$$$$$$$$$$$$$$$$$$$$$$$$$$$$$$$$$$$$$$$$$$$$$$$$$$$$$$$$$$$",
"$$$$$$$$$$$$$$$$$$$$$$$$$$$$$$$$$$$$$$$$$$$$$$$$$$$$$$$$$$$$$$$$$$$$$$$$$$$$$$$$$$$$$$$$$$$$$$$$$$$$",
"$$$$$$$$$$$$$$$$$$$$$$$$$$$$$$$$$$$$$$$$$$$$$$$$$$$$$$$$$$$$$$$$$$$$$$$$$$$$$$$$$$$$$$$$$$$$$$$$$$$$",
"$$$$$$$$$$$$$$$$$$$$$$$$$$$$$$$$$$$$$$$$$$$$$$$$$$$$$$$$$$$$$$$$$$$$$$$$$$$$$$$$$$$$$$$$$$$$$$$$$$$$",
"$$$$$$$$$$$$$$$$$$$$$$$$$$$$$$$$$$$$$$$$$$$$$$$$$$$$$$$$$$$$$$$$$$$$$$$$$$$$$$$$$$$$$$$$$$$$$$$$$$$$",
"$$$$$$$$$$$$$$$$$$$$$$$$$$$$$$$$$$$$$$$$$$$$$$$$$$     $$$$$$$$$$$$$$$$$$$$$$$$$     $$$$$$$$$$$$$$$",
"$$$$$$$$$$$$$$$$$$$$$$$$$$$$$$$$$$$$$$$$$$$$$$$$$$     $$$$$$$$$$$$$$$$$$$$$$$$$     $$$$$$$$$$$$$$$",
"$$$$$$$$$$$$$$$$$$$$$$$$$$$$$$$$$$$$$$$$$$$$$$$$$$     $$$$$$$$$$$$$$$$$$$$$$$$$     $$$$$$$$$$$$$$$",
"$$$$$$$$$$$$$$$$$$$$$$$$$$$$$$$$$$$$$$$$$$$$$$$$$$     $$$$$$$$$$$$$$$$$$$$$$$$$     $$$$$$$$$$$$$$$",
"$$$$$$$$$$$$$$$$$$$$$$$$$$$$$$$$$$$$$$$$$$$$$$$$$$     $$$$$$$$$$$$$$$$$$$$$$$$$     $$$$$$$$$$$$$$$",
"$$$$$$$$$$$$$$$$$$$$$$$$$$$$$$$$$$$$$$$$$$$$$     XXXXX     $$$$$$$$$$$$$$$     #####     $$$$$$$$$$",
"$$$$$$$$$$$$$$$$$$$$$$$$$$$$$$$$$$$$$$$$$$$$$     XXXXX     $$$$$$$$$$$$$$$     #####     $$$$$$$$$$",
"$$$$$$$$$$$$$$$$$$$$$$$$$$$$$$$$$$$$$$$$$$$$$     XXXXX     $$$$$$$$$$$$$$$     #####     $$$$$$$$$$",
"$$$$$$$$$$$$$$$$$$$$$$$$$$$$$$$$$$$$$$$$$$$$$     XXXXX     $$$$$$$$$$$$$$$     #####     $$$$$$$$$$",
"$$$$$$$$$$$$$$$$$$$$$$$$$$$$$$$$$$$$$$$$$$$$$     XXXXX     $$$$$$$$$$$$$$$     #####     $$$$$$$$$$",
"$$$$$$$$$$$$$$$$$$$$$$$$$$$$$$$$$$$$$$$$     XXXXX+++++XXXXX               #####+++++     $$$$$$$$$$",
"$$$$$$$$$$$$$$$$$$$$$$$$$$$$$$$$$$$$$$$$     XXXXX+++++XXXXX               #####+++++     $$$$$$$$$$",
"$$$$$$$$$$$$$$$$$$$$$$$$$$$$$$$$$$$$$$$$     XXXXX+++++XXXXX               #####+++++     $$$$$$$$$$",
"$$$$$$$$$$$$$$$$$$$$$$$$$$$$$$$$$$$$$$$$     XXXXX+++++XXXXX               #####+++++     $$$$$$$$$$",
"$$$$$$$$$$$$$$$$$$$$$$$$$$$$$$$$$$$$$$$$     XXXXX+++++XXXXX               #####+++++     $$$$$$$$$$",
"$$$$$$$$$$$$$$$$$$$$$$$$$$$$$$$$$$$$$$$$     XXXXXXXXXXXXXXX##########XXXXXXXXXXXXXXX     $$$$$$$$$$",
"$$$$$$$$$$$$$$$$$$$$$$$$$$$$$$$$$$$$$$$$     XXXXXXXXXXXXXXX##########XXXXXXXXXXXXXXX     $$$$$$$$$$",
"$$$$$$$$$$$$$$$$$$$$$$$$$$$$$$$$$$$$$$$$     XXXXXXXXXXXXXXX##########XXXXXXXXXXXXXXX     $$$$$$$$$$",
"$$$$$$$$$$$$$$$$$$$$$$$$$$$$$$$$$$$$$$$$     XXXXXXXXXXXXXXX##########XXXXXXXXXXXXXXX     $$$$$$$$$$",
"$$$$$$$$$$$$$$$$$$$$$$$$$$$$$$$$$$$$$$$$     XXXXXXXXXXXXXXX##########XXXXXXXXXXXXXXX     $$$$$$$$$$",
"$$$$$$$$$$$$$$$$$$$$$$$$$$$$$$$$$$$$$$$$     XXXXXXXXXX###############XXXXXXXXXXXXXXX     $$$$$$$$$$",
"$$$$$$$$$$$$$$$$$$$$$$$$$$$$$$$$$$$$$$$$     XXXXXXXXXX###############XXXXXXXXXXXXXXX     $$$$$$$$$$",
"$$$$$$$$$$$$$$$$$$$$$$$$$$$$$$$$$$$$$$$$     XXXXXXXXXX###############XXXXXXXXXXXXXXX     $$$$$$$$$$",
"$$$$$$$$$$$$$$$$$$$$$$$$$$$$$$$$$$$$$$$$     XXXXXXXXXX###############XXXXXXXXXXXXXXX     $$$$$$$$$$",
"$$$$$$$$$$$$$$$$$$$$$$$$$$$$$$$$$$$$$$$$     XXXXXXXXXX###############XXXXXXXXXXXXXXX     $$$$$$$$$$",
"$$$$$$$$$$$$$$$$$$$$$$$$$$$$$$$$$$$     ###############XXXXXXXXXX##########XXXXXXXXXXXXXXX     $$$$$",
"$$$$$$$$$$$$$$$$$$$$$$$$$$$$$$$$$$$     ###############XXXXXXXXXX##########XXXXXXXXXXXXXXX     $$$$$",
"$$$$$$$$$$$$$$$$$$$$$$$$$$$$$$$$$$$     ###############XXXXXXXXXX##########XXXXXXXXXXXXXXX     $$$$$",
"$$$$$$$$$$$$$$$$$$$$$$$$$$$$$$$$$$$     ###############XXXXXXXXXX##########XXXXXXXXXXXXXXX     $$$$$",
"$$$$$$$$$$$$$$$$$$$$$$$$$$$$$$$$$$$     ###############XXXXXXXXXX##########XXXXXXXXXXXXXXX     $$$$$",
"$$$$$$$$$$$$$$$$$$$$$$$$$$$$$$$$$$$     ##########XXXXXXXXXX.....XXXXX##########.....XXXXX     $$$$$",
"$$$$$$$$$$$$$$$$$$$$$$$$$$$$$$$$$$$     ##########XXXXXXXXXX.....XXXXX##########.....XXXXX     $$$$$",
"$$$$$$$$$$$$$$$$$$$$$$$$$$$$$$$$$$$     ##########XXXXXXXXXX.....XXXXX##########.....XXXXX     $$$$$",
"$$$$$$$$$$$$$$$$$$$$$$$$$$$$$$$$$$$     ##########XXXXXXXXXX.....XXXXX##########.....XXXXX     $$$$$",
"$$$$$$$$$$$$$$$$$$$$$$$$$$$$$$$$$$$     ##########XXXXXXXXXX.....XXXXX##########.....XXXXX     $$$$$",
"$$$$$$$$$$          $$$$$$$$$$          ##########XXXXXXXXXX.....XXXXX##########.....#####     $$$$$",
"$$$$$$$$$$          $$$$$$$$$$          ##########XXXXXXXXXX.....XXXXX##########.....#####     $$$$$",
"$$$$$$$$$$          $$$$$$$$$$          ##########XXXXXXXXXX.....XXXXX##########.....#####     $$$$$",
"$$$$$$$$$$          $$$$$$$$$$          ##########XXXXXXXXXX.....XXXXX##########.....#####     $$$$$",
"$$$$$$$$$$          $$$$$$$$$$          ##########XXXXXXXXXX.....XXXXX##########.....#####     $$$$$",
"$$$$$     ##########          ##########@@@@@##########XXXXXXXXXX#####ooooo##########     $$$$$$$$$$",
"$$$$$     ##########          ##########@@@@@##########XXXXXXXXXX#####ooooo##########     $$$$$$$$$$",
"$$$$$     ##########          ##########@@@@@##########XXXXXXXXXX#####ooooo##########     $$$$$$$$$$",
"$$$$$     ##########          ##########@@@@@##########XXXXXXXXXX#####ooooo##########     $$$$$$$$$$",
"$$$$$     ##########          ##########@@@@@##########XXXXXXXXXX#####ooooo##########     $$$$$$$$$$",
"     XXXXX          @@@@@@@@@@##########@@@@@@@@@@##############################     $$$$$$$$$$$$$$$",
"     XXXXX          @@@@@@@@@@##########@@@@@@@@@@##############################     $$$$$$$$$$$$$$$",
"     XXXXX          @@@@@@@@@@##########@@@@@@@@@@##############################     $$$$$$$$$$$$$$$",
"     XXXXX          @@@@@@@@@@##########@@@@@@@@@@##############################     $$$$$$$$$$$$$$$",
"     XXXXX          @@@@@@@@@@##########@@@@@@@@@@##############################     $$$$$$$$$$$$$$$",
"$$$$$     $$$$$$$$$$     @@@@@@@@@@##########@@@@@@@@@@@@@@@@@@@@@@@@@@@@@@     $$$$$$$$$$$$$$$$$$$$",
"$$$$$     $$$$$$$$$$     @@@@@@@@@@##########@@@@@@@@@@@@@@@@@@@@@@@@@@@@@@     $$$$$$$$$$$$$$$$$$$$",
"$$$$$     $$$$$$$$$$     @@@@@@@@@@##########@@@@@@@@@@@@@@@@@@@@@@@@@@@@@@     $$$$$$$$$$$$$$$$$$$$",
"$$$$$     $$$$$$$$$$     @@@@@@@@@@##########@@@@@@@@@@@@@@@@@@@@@@@@@@@@@@     $$$$$$$$$$$$$$$$$$$$",
"$$$$$     $$$$$$$$$$     @@@@@@@@@@##########@@@@@@@@@@@@@@@@@@@@@@@@@@@@@@     $$$$$$$$$$$$$$$$$$$$",
"$$$$$$$$$$$$$$$$$$$$$$$$$     @@@@@@@@@@@@@@@@@@@@@@@@@@@@@@@@@@@@@@@@@@@@@     $$$$$$$$$$$$$$$$$$$$",
"$$$$$$$$$$$$$$$$$$$$$$$$$     @@@@@@@@@@@@@@@@@@@@@@@@@@@@@@@@@@@@@@@@@@@@@     $$$$$$$$$$$$$$$$$$$$",
"$$$$$$$$$$$$$$$$$$$$$$$$$     @@@@@@@@@@@@@@@@@@@@@@@@@@@@@@@@@@@@@@@@@@@@@     $$$$$$$$$$$$$$$$$$$$",
"$$$$$$$$$$$$$$$$$$$$$$$$$     @@@@@@@@@@@@@@@@@@@@@@@@@@@@@@@@@@@@@@@@@@@@@     $$$$$$$$$$$$$$$$$$$$",
"$$$$$$$$$$$$$$$$$$$$$$$$$     @@@@@@@@@@@@@@@@@@@@@@@@@@@@@@@@@@@@@@@@@@@@@     $$$$$$$$$$$$$$$$$$$$",
"$$$$$$$$$$$$$$$$$$$$$$$$$     @@@@@@@@@@@@@@@@@@@@@@@@@@@@@@@@@@@@@@@@     $$$$$$$$$$$$$$$$$$$$$$$$$",
"$$$$$$$$$$$$$$$$$$$$$$$$$     @@@@@@@@@@@@@@@@@@@@@@@@@@@@@@@@@@@@@@@@     $$$$$$$$$$$$$$$$$$$$$$$$$",
"$$$$$$$$$$$$$$$$$$$$$$$$$     @@@@@@@@@@@@@@@@@@@@@@@@@@@@@@@@@@@@@@@@     $$$$$$$$$$$$$$$$$$$$$$$$$",
"$$$$$$$$$$$$$$$$$$$$$$$$$     @@@@@@@@@@@@@@@@@@@@@@@@@@@@@@@@@@@@@@@@     $$$$$$$$$$$$$$$$$$$$$$$$$",
"$$$$$$$$$$$$$$$$$$$$$$$$$     @@@@@@@@@@@@@@@@@@@@@@@@@@@@@@@@@@@@@@@@     $$$$$$$$$$$$$$$$$$$$$$$$$",
"$$$$$$$$$$$$$$$$$$$$$$$$$     @@@@@     OOOOO          @@@@@     OOOOO     $$$$$$$$$$$$$$$$$$$$$$$$$",
"$$$$$$$$$$$$$$$$$$$$$$$$$     @@@@@     OOOOO          @@@@@     OOOOO     $$$$$$$$$$$$$$$$$$$$$$$$$",
"$$$$$$$$$$$$$$$$$$$$$$$$$     @@@@@     OOOOO          @@@@@     OOOOO     $$$$$$$$$$$$$$$$$$$$$$$$$",
"$$$$$$$$$$$$$$$$$$$$$$$$$     @@@@@     OOOOO          @@@@@     OOOOO     $$$$$$$$$$$$$$$$$$$$$$$$$",
"$$$$$$$$$$$$$$$$$$$$$$$$$     @@@@@     OOOOO          @@@@@     OOOOO     $$$$$$$$$$$$$$$$$$$$$$$$$",
"$$$$$$$$$$$$$$$$$$$$$$$$$     @@@@@     OOOOO          @@@@@     OOOOO     $$$$$$$$$$$$$$$$$$$$$$$$$",
"$$$$$$$$$$$$$$$$$$$$$$$$$     @@@@@     OOOOO          @@@@@     OOOOO     $$$$$$$$$$$$$$$$$$$$$$$$$",
"$$$$$$$$$$$$$$$$$$$$$$$$$     @@@@@     OOOOO          @@@@@     OOOOO     $$$$$$$$$$$$$$$$$$$$$$$$$",
"$$$$$$$$$$$$$$$$$$$$$$$$$     @@@@@     OOOOO          @@@@@     OOOOO     $$$$$$$$$$$$$$$$$$$$$$$$$",
"$$$$$$$$$$$$$$$$$$$$$$$$$     @@@@@     OOOOO          @@@@@     OOOOO     $$$$$$$$$$$$$$$$$$$$$$$$$",
"$$$$$$$$$$$$$$$$$$$$$$$$$$$$$$     $$$$$     $$$$$$$$$$     $$$$$     $$$$$$$$$$$$$$$$$$$$$$$$$$$$$$",
"$$$$$$$$$$$$$$$$$$$$$$$$$$$$$$     $$$$$     $$$$$$$$$$     $$$$$     $$$$$$$$$$$$$$$$$$$$$$$$$$$$$$",
"$$$$$$$$$$$$$$$$$$$$$$$$$$$$$$     $$$$$     $$$$$$$$$$     $$$$$     $$$$$$$$$$$$$$$$$$$$$$$$$$$$$$",
"$$$$$$$$$$$$$$$$$$$$$$$$$$$$$$     $$$$$     $$$$$$$$$$     $$$$$     $$$$$$$$$$$$$$$$$$$$$$$$$$$$$$",
"$$$$$$$$$$$$$$$$$$$$$$$$$$$$$$     $$$$$     $$$$$$$$$$     $$$$$     $$$$$$$$$$$$$$$$$$$$$$$$$$$$$$"
};
