/* XPM */
static char *cat_30[] = {
/* columns rows colors chars-per-pixel */
"100 100 8 1 ",
"  c black",
". c #757A7B",
"X c #8C3B4E",
"o c #87959C",
"O c #FFDABC",
"+ c #BCCCDC",
"@ c #E5F9FF",
"# c None",
/* pixels */
"####################################################################################################",
"####################################################################################################",
"####################################################################################################",
"####################################################################################################",
"####################################################################################################",
"####################################################################################################",
"####################################################################################################",
"####################################################################################################",
"####################################################################################################",
"####################################################################################################",
"####################################################################################################",
"####################################################################################################",
"####################################################################################################",
"####################################################################################################",
"####################################################################################################",
"####################################################################################################",
"####################################################################################################",
"####################################################################################################",
"####################################################################################################",
"####################################################################################################",
"####################################################################################################",
"####################################################################################################",
"####################################################################################################",
"####################################################################################################",
"####################################################################################################",
"###############     #########################     ##################################################",
"###############     #########################     ##################################################",
"###############     #########################     ##################################################",
"###############     #########################     ##################################################",
"###############     #########################     ##################################################",
"##########     @@@@@     ###############     .....     #############################################",
"##########     @@@@@     ###############     .....     #############################################",
"##########     @@@@@     ###############     .....     #############################################",
"##########     @@@@@     ###############     .....     #############################################",
"##########     @@@@@     ###############     .....     #############################################",
"##########     OOOOO@@@@@               .....OOOOO.....     ########################################",
"##########     OOOOO@@@@@               .....OOOOO.....     ########################################",
"##########     OOOOO@@@@@               .....OOOOO.....     ########################################",
"##########     OOOOO@@@@@               .....OOOOO.....     ########################################",
"##########     OOOOO@@@@@               .....OOOOO.....     ########################################",
"##########     ...............@@@@@@@@@@...............     ########################################",
"##########     ...............@@@@@@@@@@...............     ########################################",
"##########     ...............@@@@@@@@@@...............     ########################################",
"##########     ...............@@@@@@@@@@...............     ########################################",
"##########     ...............@@@@@@@@@@...............     ########################################",
"##########     ...............@@@@@@@@@@@@@@@..........     ########################################",
"##########     ...............@@@@@@@@@@@@@@@..........     ########################################",
"##########     ...............@@@@@@@@@@@@@@@..........     ########################################",
"##########     ...............@@@@@@@@@@@@@@@..........     ########################################",
"##########     ...............@@@@@@@@@@@@@@@..........     ########################################",
"#####     ...............@@@@@@@@@@..........@@@@@@@@@@@@@@@     ###################################",
"#####     ...............@@@@@@@@@@..........@@@@@@@@@@@@@@@     ###################################",
"#####     ...............@@@@@@@@@@..........@@@@@@@@@@@@@@@     ###################################",
"#####     ...............@@@@@@@@@@..........@@@@@@@@@@@@@@@     ###################################",
"#####     ...............@@@@@@@@@@..........@@@@@@@@@@@@@@@     ###################################",
"#####     ..........@@@@@@@@@@....................@@@@@@@@@@     ###################################",
"#####     ..........@@@@@@@@@@....................@@@@@@@@@@     ###################################",
"#####     ..........@@@@@@@@@@....................@@@@@@@@@@     ###################################",
"#####     ..........@@@@@@@@@@....................@@@@@@@@@@     ###################################",
"#####     ..........@@@@@@@@@@....................@@@@@@@@@@     ###################################",
"#####     @@@@@@@@@@@@@@@@@@@@....................@@@@@@@@@@          ##############################",
"#####     @@@@@@@@@@@@@@@@@@@@....................@@@@@@@@@@          ##############################",
"#####     @@@@@@@@@@@@@@@@@@@@....................@@@@@@@@@@          ##############################",
"#####     @@@@@@@@@@@@@@@@@@@@....................@@@@@@@@@@          ##############################",
"#####     @@@@@@@@@@@@@@@@@@@@....................@@@@@@@@@@          ##############################",
"##########     @@@@@@@@@@XXXXX@@@@@..........@@@@@@@@@@+++++@@@@@@@@@@                         #####",
"##########     @@@@@@@@@@XXXXX@@@@@..........@@@@@@@@@@+++++@@@@@@@@@@                         #####",
"##########     @@@@@@@@@@XXXXX@@@@@..........@@@@@@@@@@+++++@@@@@@@@@@                         #####",
"##########     @@@@@@@@@@XXXXX@@@@@..........@@@@@@@@@@+++++@@@@@@@@@@                         #####",
"##########     @@@@@@@@@@XXXXX@@@@@..........@@@@@@@@@@+++++@@@@@@@@@@                         #####",
"###############     @@@@@@@@@@@@@@@@@@@@@@@@@@@@@@++++++++++@@@@@@@@@@++++++++++@@@@@@@@@@.....     ",
"###############     @@@@@@@@@@@@@@@@@@@@@@@@@@@@@@++++++++++@@@@@@@@@@++++++++++@@@@@@@@@@.....     ",
"###############     @@@@@@@@@@@@@@@@@@@@@@@@@@@@@@++++++++++@@@@@@@@@@++++++++++@@@@@@@@@@.....     ",
"###############     @@@@@@@@@@@@@@@@@@@@@@@@@@@@@@++++++++++@@@@@@@@@@++++++++++@@@@@@@@@@.....     ",
"###############     @@@@@@@@@@@@@@@@@@@@@@@@@@@@@@++++++++++@@@@@@@@@@++++++++++@@@@@@@@@@.....     ",
"####################     ++++++++++++++++++++++++++++++@@@@@@@@@@++++++++++                    #####",
"####################     ++++++++++++++++++++++++++++++@@@@@@@@@@++++++++++                    #####",
"####################     ++++++++++++++++++++++++++++++@@@@@@@@@@++++++++++                    #####",
"####################     ++++++++++++++++++++++++++++++@@@@@@@@@@++++++++++                    #####",
"####################     ++++++++++++++++++++++++++++++@@@@@@@@@@++++++++++                    #####",
"#########################     ++++++++++++++++++++++++++++++++++++++++     #########################",
"#########################     ++++++++++++++++++++++++++++++++++++++++     #########################",
"#########################     ++++++++++++++++++++++++++++++++++++++++     #########################",
"#########################     ++++++++++++++++++++++++++++++++++++++++     #########################",
"#########################     ++++++++++++++++++++++++++++++++++++++++     #########################",
"#########################     ooooo     +++++          ooooo     +++++     #########################",
"#########################     ooooo     +++++          ooooo     +++++     #########################",
"#########################     ooooo     +++++          ooooo     +++++     #########################",
"#########################     ooooo     +++++          ooooo     +++++     #########################",
"#########################     ooooo     +++++          ooooo     +++++     #########################",
"#########################     ooooo     +++++          ooooo     +++++     #########################",
"#########################     ooooo     +++++          ooooo     +++++     #########################",
"#########################     ooooo     +++++          ooooo     +++++     #########################",
"#########################     ooooo     +++++          ooooo     +++++     #########################",
"#########################     ooooo     +++++          ooooo     +++++     #########################",
"##############################     #####     ##########     #####     ##############################",
"##############################     #####     ##########     #####     ##############################",
"##############################     #####     ##########     #####     ##############################",
"##############################     #####     ##########     #####     ##############################",
"##############################     #####     ##########     #####     ##############################"
};
